<svg width="100" height="92" viewBox="0 0 100 92" fill="none" xmlns="http://www.w3.org/2000/svg">
<path d="M85.4307 16.5451H75.7221V9.94696C75.7221 8.62734 75.0461 7.4121 73.9143 6.6989C72.7825 5.9849 71.3753 5.88529 70.15 6.43274L60.8908 10.5749V6.7507C60.8908 4.62065 59.1244 2.88824 56.9526 2.88824H31.0582C28.8872 2.88824 27.1208 4.62065 27.1208 6.7507V16.5451H17.4139C9.89663 16.5451 3.78094 22.5424 3.78094 29.9151V64.5225V78.53C3.78094 85.9027 9.89663 91.9 17.4139 91.9H85.4307C92.9471 91.9 99.0628 85.9027 99.0628 78.53V64.5225V29.9151C99.0628 22.5424 92.9471 16.5451 85.4307 16.5451Z" fill="#E6E7E8"/>
<path d="M82.5869 14.5529H72.0659V21.9487C72.0659 24.18 69.7129 25.663 67.6434 24.737L57.2345 20.08V25.1442C57.2345 26.8367 55.8354 28.209 54.1096 28.209H28.2153C26.4895 28.209 25.0904 26.8367 25.0904 25.1442V14.5529H14.5701C7.49001 14.5529 1.74969 20.182 1.74969 27.1268V75.741C1.74969 82.6849 7.48919 88.3149 14.5701 88.3149H82.5869C89.6671 88.3149 95.4074 82.6857 95.4074 75.741V27.1268C95.4066 20.1828 89.6671 14.5529 82.5869 14.5529Z" fill="white"/>
<path d="M82.587 16.6471H72.0659V21.9487C72.0659 24.18 69.7129 25.6629 67.6434 24.737L57.2345 20.08V25.1442C57.2345 26.8367 55.8354 28.209 54.1096 28.209H28.2153C26.4895 28.209 25.0904 26.8367 25.0904 25.1442V16.6471H14.5701C7.49001 16.6471 1.74969 22.2762 1.74969 29.221V61.7343H95.4066V29.2202C95.4066 22.2762 89.6671 16.6471 82.587 16.6471Z" fill="#6DC9F7"/>
<path d="M82.587 88.3149H14.5701C7.49001 88.3149 1.74969 82.6858 1.74969 75.741V61.7335H95.4066V75.741C95.4066 82.685 89.6671 88.3149 82.587 88.3149Z" fill="#0089EF"/>
<path d="M67.6443 4.3689L57.2353 9.02583V3.96169C57.2353 2.26913 55.8362 0.896912 54.1104 0.896912H28.2161C26.4903 0.896912 25.0912 2.26913 25.0912 3.96169V25.145C25.0912 26.8376 26.4903 28.2098 28.2161 28.2098H54.1104C55.8362 28.2098 57.2353 26.8376 57.2353 25.145V20.0809L67.6443 24.7378C69.7137 25.6638 72.0667 24.18 72.0667 21.9495V7.15796C72.0659 4.92671 69.7137 3.44293 67.6443 4.3689Z" fill="#FF5A73"/>
<path d="M82.587 13.756H72.8784V7.1579C72.8784 5.83827 72.2024 4.62304 71.0706 3.90984C69.9388 3.19584 68.5315 3.09623 67.3063 3.64368L58.047 7.78584V3.96163C58.047 1.83159 56.2806 0.0991821 54.1088 0.0991821H46.1585C45.71 0.0991821 45.346 0.455385 45.346 0.896057C45.346 1.33673 45.71 1.69293 46.1585 1.69293H54.1088C55.3844 1.69293 56.422 2.71054 56.422 3.96163V9.02498C56.422 9.29592 56.5626 9.54852 56.7949 9.69515C57.0281 9.84177 57.3206 9.8617 57.5717 9.75013L67.9798 5.0932C68.7111 4.76728 69.5171 4.82385 70.1906 5.24859C70.8658 5.67412 71.2526 6.36979 71.2526 7.1571V21.9487C71.2526 22.7352 70.865 23.4301 70.1906 23.8564C69.5163 24.2819 68.7103 24.3401 67.9806 24.0118L57.5725 19.3549C57.3214 19.2433 57.0289 19.2632 56.7958 19.4099C56.5634 19.5565 56.4228 19.8091 56.4228 20.08V25.1442C56.4228 26.3945 55.3853 27.4121 54.1096 27.4121H28.2153C26.9404 27.4121 25.9029 26.3953 25.9029 25.1442V3.96163C25.9029 2.71134 26.9404 1.69293 28.2153 1.69293H32.4646C32.9131 1.69293 33.2771 1.33673 33.2771 0.896057C33.2771 0.455385 32.9131 0.0991821 32.4646 0.0991821H28.2153C26.0443 0.0991821 24.2779 1.83159 24.2779 3.96163V13.756H14.5701C7.05288 13.756 0.937195 19.7533 0.937195 27.126V61.7335V75.7409C0.937195 83.1136 7.05288 89.1109 14.5701 89.1109H82.587C90.1034 89.1109 96.2191 83.1136 96.2191 75.7409V61.7335V27.126C96.2191 19.7533 90.1034 13.756 82.587 13.756ZM14.5701 15.3498H24.2779V25.145C24.2779 27.2742 26.0443 29.0066 28.2153 29.0066H54.1096C56.2806 29.0066 58.0478 27.2742 58.0478 25.145V21.32L67.3071 25.4621C68.5315 26.0104 69.9388 25.9108 71.0706 25.1968C72.2032 24.4828 72.8792 23.2683 72.8792 21.9487V15.3498H82.5878C89.2088 15.3498 94.5949 20.6331 94.5949 27.126V60.9366H2.56219V27.126C2.56219 20.6331 7.94907 15.3498 14.5701 15.3498ZM94.5941 75.7409C94.5941 82.2339 89.208 87.5172 82.587 87.5172H14.5701C7.94907 87.5172 2.56219 82.2339 2.56219 75.7409V62.5303H94.5941V75.7409Z" fill="#3A2C60"/>
<path d="M36.5775 1.69293H41.8888C42.3373 1.69293 42.7013 1.33673 42.7013 0.896056C42.7013 0.455385 42.3373 0.0991821 41.8888 0.0991821H36.5775C36.129 0.0991821 35.765 0.455385 35.765 0.896056C35.765 1.33673 36.1282 1.69293 36.5775 1.69293Z" fill="#3A2C60"/>
<path d="M37.5013 6.67579L49.9496 13.7249C50.663 14.129 50.663 15.1386 49.9496 15.5426L37.5013 22.5918C36.7879 22.9958 35.8966 22.4906 35.8966 21.6833V7.58423C35.8966 6.7762 36.7879 6.27177 37.5013 6.67579Z" fill="white"/>
<path d="M29.7509 51.5566H21.4171V36.8407C21.4171 35.914 21.1896 35.2048 20.7411 34.7322C20.2861 34.2541 19.6889 34.0118 18.9641 34.0118C18.2467 34.0118 17.6576 34.2581 17.2124 34.7426C16.7753 35.2183 16.5543 35.9243 16.5543 36.8399V52.7232C16.5543 53.7002 16.7891 54.4286 17.2514 54.8868C17.7145 55.3466 18.4604 55.5792 19.4671 55.5792H29.7517C30.5219 55.5792 31.1248 55.396 31.5433 55.0342C31.9731 54.6628 32.1908 54.1736 32.1908 53.5815C32.1908 53.0006 31.9714 52.5097 31.54 52.124C31.1151 51.7479 30.5138 51.5566 29.7509 51.5566Z" fill="white"/>
<path d="M36.9667 34.0126C36.2598 34.0126 35.6732 34.258 35.223 34.7425C34.7802 35.219 34.556 35.9251 34.556 36.8415V53.0905C34.556 54.007 34.7827 54.7154 35.2303 55.1959C35.6845 55.6844 36.2687 55.9322 36.9667 55.9322C37.6922 55.9322 38.2902 55.6868 38.7452 55.2039C39.1929 54.7273 39.4204 54.0165 39.4204 53.0898V36.8407C39.4204 35.9139 39.1929 35.2047 38.7444 34.7322C38.2886 34.2548 37.6906 34.0126 36.9667 34.0126Z" fill="white"/>
<path d="M60.0482 34.321C59.6915 34.1162 59.2999 34.0134 58.8847 34.0134C58.3184 34.0134 57.8585 34.152 57.5172 34.4246C57.1931 34.6843 56.9566 34.9832 56.8136 35.3115C56.6861 35.6047 56.4951 36.1259 56.2457 36.8598L51.755 49.9548L47.2797 36.9586C46.9523 35.9673 46.6379 35.2597 46.3177 34.7967C45.9586 34.2763 45.3557 34.0126 44.5262 34.0126C43.8518 34.0126 43.2822 34.2413 42.8329 34.6923C42.3861 35.1417 42.1594 35.6509 42.1594 36.2072C42.1594 36.4167 42.1935 36.6702 42.2601 36.961C42.3251 37.2463 42.4064 37.5156 42.5022 37.7619C42.5924 37.9938 42.6794 38.2296 42.7663 38.4759L47.7705 51.8355C47.9525 52.3534 48.1377 52.8491 48.3197 53.3089C48.5082 53.7854 48.7325 54.2189 48.9876 54.5966C49.2566 54.9951 49.6149 55.321 50.052 55.5632C50.4932 55.8079 51.0327 55.9322 51.6567 55.9322C52.2815 55.9322 52.8218 55.8055 53.2638 55.5545C53.6993 55.3074 54.0536 54.9855 54.3176 54.5974C54.5679 54.2293 54.7905 53.7974 54.979 53.3153C55.1618 52.8475 55.3463 52.3495 55.525 51.8418L60.6194 38.3579C60.7047 38.1157 60.79 37.8806 60.8753 37.6527C60.9647 37.4128 61.0411 37.165 61.1012 36.9148C61.1638 36.6542 61.1954 36.4072 61.1954 36.1785C61.1954 35.8263 61.0923 35.4756 60.8883 35.1354C60.6852 34.7983 60.4024 34.5242 60.0482 34.321Z" fill="white"/>
<path d="M79.995 52.2036C79.5993 51.849 79.0217 51.6689 78.2782 51.6689H68.6534V46.3944H77.1878C77.9248 46.3944 78.487 46.2175 78.8592 45.8693C79.2353 45.5171 79.4255 45.0597 79.4255 44.509C79.4255 43.956 79.2305 43.501 78.8462 43.1575C78.47 42.822 77.9118 42.6515 77.187 42.6515H68.6534V38.1786H77.9483C78.7015 38.1786 79.2792 38.0033 79.6652 37.6583C80.0584 37.3061 80.2583 36.8367 80.2583 36.2653C80.2583 35.7028 80.0584 35.239 79.6652 34.886C79.2792 34.5409 78.7015 34.3656 77.9483 34.3656H66.7025C66.0599 34.3656 65.5179 34.462 65.0922 34.6525C64.6396 34.8557 64.3024 35.1832 64.0912 35.6263C63.8913 36.0438 63.7897 36.5809 63.7897 37.2224V52.7256C63.7897 53.7026 64.0245 54.4309 64.486 54.8891C64.9492 55.3489 65.6942 55.5824 66.7017 55.5824H78.2774C79.0217 55.5824 79.5993 55.4023 79.9942 55.0477C80.3972 54.6859 80.6012 54.2126 80.6012 53.6404C80.6028 53.0483 80.398 52.5662 79.995 52.2036Z" fill="white"/>
<path d="M22.3701 73.6627C22.0029 73.4069 21.5536 73.1878 21.036 73.0109C20.5331 72.8395 19.9659 72.6809 19.3549 72.5407C18.8739 72.4212 18.5254 72.3303 18.3198 72.269C18.1281 72.2124 17.9363 72.1319 17.7478 72.0307C17.578 71.9399 17.4456 71.8323 17.3529 71.7111C17.2725 71.606 17.2335 71.4816 17.2335 71.331C17.2335 71.0832 17.3643 70.8712 17.6332 70.6816C17.929 70.4744 18.3328 70.3692 18.8341 70.3692C19.372 70.3692 19.7571 70.4609 19.9781 70.6401C20.2202 70.837 20.4331 71.1207 20.6167 71.4928C20.7849 71.802 20.9417 72.0227 21.0953 72.1678C21.2806 72.3431 21.5406 72.4315 21.868 72.4315C22.2287 72.4315 22.5342 72.2961 22.7747 72.0283C23.0063 71.7709 23.1241 71.4753 23.1241 71.1493C23.1241 70.8266 23.0396 70.4951 22.8731 70.1628C22.7089 69.8353 22.4489 69.5213 22.1004 69.2289C21.7542 68.9388 21.3163 68.7045 20.7987 68.5316C20.2861 68.3603 19.675 68.2742 18.982 68.2742C18.1175 68.2742 17.3505 68.4041 16.7037 68.6607C16.0391 68.9245 15.5216 69.3094 15.1657 69.8066C14.8074 70.3071 14.6262 70.8856 14.6262 71.5263C14.6262 72.198 14.8001 72.7718 15.1429 73.2316C15.4777 73.681 15.9351 74.0404 16.5014 74.2986C17.0417 74.5448 17.7169 74.7616 18.5107 74.9441C19.0795 75.0716 19.5377 75.1935 19.8733 75.3051C20.1755 75.4063 20.4226 75.5513 20.6086 75.7378C20.7744 75.9043 20.8548 76.1195 20.8548 76.3976C20.8548 76.7498 20.6939 77.039 20.3624 77.2813C20.009 77.5395 19.5345 77.6702 18.9519 77.6702C18.5286 77.6702 18.1882 77.6064 17.9404 77.4813C17.6942 77.3562 17.5016 77.1984 17.37 77.0112C17.2229 76.8024 17.0832 76.5362 16.9548 76.2223C16.8256 75.8987 16.6631 75.6461 16.4722 75.4732C16.2577 75.2796 15.9944 75.1807 15.6897 75.1807C15.3249 75.1807 15.0186 75.3035 14.7781 75.5449C14.54 75.7848 14.4198 76.0764 14.4198 76.4119C14.4198 76.9131 14.5904 77.4311 14.926 77.9499C15.2567 78.4615 15.693 78.8758 16.2244 79.1834C16.9597 79.6026 17.8973 79.8154 19.0121 79.8154C19.9399 79.8154 20.7573 79.6608 21.4414 79.3556C22.1394 79.0448 22.6789 78.6049 23.0445 78.0495C23.4109 77.4933 23.5962 76.8598 23.5962 76.1657C23.5962 75.5871 23.4873 75.0867 23.272 74.6787C23.0559 74.2715 22.7528 73.9296 22.3701 73.6627Z" fill="white"/>
<path d="M33.3267 68.4567H26.3595C25.9313 68.4567 25.5909 68.5603 25.3487 68.7635C25.0928 68.9779 24.9636 69.2695 24.9636 69.6305C24.9636 69.978 25.0871 70.264 25.3317 70.4808C25.5673 70.6904 25.9134 70.7964 26.3595 70.7964H28.4622V78.2224C28.4622 78.7332 28.5914 79.1285 28.8449 79.3986C29.1049 79.6752 29.4429 79.8154 29.8508 79.8154C30.253 79.8154 30.5877 79.6759 30.8453 79.4018C31.0972 79.1341 31.2239 78.7372 31.2239 78.2216V70.7956H33.3267C33.7711 70.7956 34.1189 70.6904 34.3594 70.4824C34.6104 70.2648 34.738 69.978 34.738 69.6289C34.738 69.2815 34.6129 68.9938 34.3667 68.7747C34.127 68.5635 33.7776 68.4567 33.3267 68.4567Z" fill="white"/>
<path d="M45.2355 76.5728C44.9495 76.1146 44.6212 75.6764 44.258 75.27C44.0525 75.0405 43.8388 74.8396 43.6194 74.6691C44.293 74.4532 44.8252 74.144 45.2071 73.7471C45.7124 73.222 45.9684 72.5183 45.9684 71.6561C45.9684 71.237 45.8936 70.8338 45.7457 70.4576C45.597 70.0775 45.3761 69.7396 45.0884 69.452C44.8016 69.1659 44.4669 68.9428 44.1021 68.7914C43.7957 68.6543 43.4496 68.5627 43.0718 68.518C42.7119 68.4758 42.2756 68.4543 41.7759 68.4543H38.2106C37.6614 68.4543 37.247 68.5866 36.9805 68.8487C36.714 69.1101 36.5783 69.5165 36.5783 70.0552V78.2208C36.5783 78.7172 36.6986 79.1077 36.935 79.381C37.1836 79.6679 37.5306 79.8137 37.9669 79.8137C38.3731 79.8137 38.7103 79.6767 38.9679 79.4049C39.2197 79.1396 39.3481 78.7411 39.3481 78.22V75.0938H39.8267C40.1761 75.0938 40.4653 75.1385 40.6855 75.2253C40.8984 75.3098 41.1169 75.4748 41.3339 75.7154C41.5687 75.9752 41.8417 76.3641 42.148 76.8749L43.0263 78.3084C43.2351 78.6495 43.4033 78.9125 43.526 79.0894C43.6666 79.291 43.8364 79.4615 44.0322 79.5938C44.2483 79.7396 44.5115 79.8137 44.8162 79.8137C45.0681 79.8137 45.2964 79.7627 45.4947 79.6631C45.6962 79.5611 45.8587 79.4185 45.9773 79.24C46.0992 79.0567 46.1601 78.8647 46.1601 78.6694C46.1601 78.5483 46.1309 78.3419 45.905 77.8176C45.7449 77.4486 45.5199 77.0295 45.2355 76.5728ZM43.1685 71.7948C43.1685 72.0992 43.0962 72.3351 42.9548 72.496C42.8061 72.665 42.5786 72.7885 42.2796 72.8626C41.9449 72.9455 41.5224 72.9877 41.0219 72.9877H39.3473V70.6369H41.0812C41.966 70.6369 42.3308 70.711 42.4827 70.774C42.7021 70.864 42.8671 70.9947 42.9889 71.1732C43.11 71.3517 43.1685 71.5549 43.1685 71.7948Z" fill="white"/>
<path d="M56.1864 77.3602H51.3674V74.9082H55.6249C56.0401 74.9082 56.3602 74.8054 56.5772 74.6014C56.7982 74.395 56.9103 74.1273 56.9103 73.8062C56.9103 73.4834 56.7949 73.2165 56.5682 73.0141C56.3489 72.8188 56.032 72.7192 55.6249 72.7192H51.3674V70.68H56.0166C56.4391 70.68 56.7665 70.578 56.9899 70.378C57.2215 70.1708 57.3385 69.8975 57.3385 69.5644C57.3385 69.2361 57.2215 68.9651 56.9899 68.7579C56.7657 68.5571 56.4382 68.4559 56.0166 68.4559H50.2299C49.8806 68.4559 49.5832 68.5093 49.3459 68.6153C49.0835 68.7332 48.8885 68.9229 48.7658 69.1795C48.6545 69.4122 48.5984 69.707 48.5984 70.0569V78.0344C48.5984 78.5731 48.7317 78.9787 48.9958 79.2393C49.2598 79.5014 49.6758 79.6345 50.2308 79.6345H56.1872C56.6048 79.6345 56.9322 79.5301 57.1606 79.3245C57.397 79.1126 57.5164 78.8368 57.5164 78.5037C57.5164 78.1611 57.397 77.8806 57.1606 77.6686C56.9314 77.4646 56.6032 77.3602 56.1864 77.3602Z" fill="white"/>
<path d="M66.4767 70.4632C66.3426 70.1182 66.2321 69.8417 66.1452 69.6345C66.0518 69.4114 65.9348 69.2002 65.7983 69.0058C65.6488 68.793 65.4497 68.6169 65.2084 68.4822C64.9614 68.3451 64.6559 68.2758 64.3024 68.2758C63.9531 68.2758 63.6508 68.3451 63.403 68.483C63.1601 68.6177 62.961 68.7978 62.8115 69.0169C62.675 69.2169 62.5458 69.4679 62.428 69.7628L59.3771 77.3642C59.2601 77.6495 59.1772 77.867 59.126 78.0304C59.0683 78.2112 59.0391 78.3905 59.0391 78.5635C59.0391 78.8942 59.1756 79.189 59.4461 79.4416C59.7118 79.6902 60.0246 79.8169 60.3764 79.8169C60.7949 79.8169 61.1085 79.6855 61.3084 79.4257C61.4693 79.2161 61.6512 78.8408 61.8649 78.279L62.3118 77.1028H66.3109L66.757 78.2519L66.7594 78.2591C66.8293 78.4248 66.9122 78.6169 67.0089 78.8336C67.1161 79.0735 67.2169 79.2496 67.316 79.3731C67.4257 79.5094 67.5622 79.6177 67.7239 79.6974C67.8864 79.7771 68.0789 79.8177 68.2959 79.8177C68.6688 79.8177 68.9922 79.6863 69.2571 79.4273C69.5211 79.1683 69.6552 78.8727 69.6552 78.5499C69.6552 78.2734 69.539 77.8662 69.3018 77.3076L66.4767 70.4632ZM65.5058 74.921H63.0967L64.2903 71.657L65.5058 74.921Z" fill="white"/>
<path d="M82.2408 68.7468C81.9475 68.5539 81.5583 68.4567 81.0838 68.4567H80.4046C79.9553 68.4567 79.6295 68.499 79.4076 68.5858C79.1533 68.6854 78.9632 68.8663 78.843 69.1213C78.7463 69.3269 78.6415 69.6425 78.5236 70.0863L77.231 74.8668L75.9383 70.0871C75.8196 69.6417 75.7148 69.3253 75.6181 69.1213C75.4979 68.8663 75.3078 68.6862 75.0535 68.5858C74.8325 68.499 74.5066 68.4567 74.0565 68.4567H73.3773C72.9028 68.4567 72.5136 68.5547 72.2203 68.7476C71.8904 68.9643 71.723 69.3588 71.723 69.9206V78.3181C71.723 78.8002 71.8433 79.1723 72.0789 79.4249C72.3218 79.6855 72.6371 79.8178 73.0149 79.8178C73.4041 79.8178 73.7242 79.6839 73.9647 79.4194C74.1971 79.1644 74.3149 78.7938 74.3149 78.3189V73.2802L75.4808 77.824L75.4816 77.8264C75.541 78.0495 75.5986 78.2639 75.6555 78.4695C75.7181 78.6974 75.8058 78.9085 75.9163 79.0974C76.0382 79.3062 76.2096 79.4799 76.4274 79.613C76.65 79.7501 76.9206 79.8194 77.2301 79.8194C77.6413 79.8194 77.9744 79.7102 78.2198 79.4935C78.4481 79.2926 78.6081 79.0639 78.6951 78.8129C78.769 78.5994 78.8625 78.2758 78.9786 77.824L80.1438 73.2802V78.3189C80.1438 78.7946 80.2632 79.1659 80.4988 79.4209C80.7418 79.6847 81.0546 79.8178 81.4291 79.8178C81.8232 79.8178 82.1458 79.6839 82.3863 79.4194C82.6186 79.1644 82.7365 78.7938 82.7365 78.3189V69.9198C82.7381 69.3588 82.5707 68.9635 82.2408 68.7468Z" fill="white"/>
</svg>
