<svg width="70" height="70" viewBox="0 0 70 70" fill="none" xmlns="http://www.w3.org/2000/svg">
<circle cx="35" cy="35" r="35" fill="#8FDDFF"/>
<g clip-path="url(#clip0)">
<path d="M41.7431 22.2605C41.5994 22.2268 41.4566 22.1921 41.3167 22.1573" stroke="black" stroke-width="0.5" stroke-miterlimit="10"/>
<path d="M50.1419 27.806C50.0892 27.8416 50.0376 27.8773 49.9868 27.912" stroke="black" stroke-width="0.5" stroke-miterlimit="10"/>
<path d="M41.6425 22.2266C41.5203 22.2013 41.401 22.1731 41.2817 22.1459" stroke="black" stroke-width="0.5" stroke-miterlimit="10"/>
<path d="M28.8312 22.1188C28.6424 22.1667 28.4508 22.2126 28.2563 22.2567" stroke="black" stroke-width="0.5" stroke-miterlimit="10"/>
<path d="M19.6967 27.9885C19.6953 27.987 19.6924 27.9856 19.6902 27.9841" stroke="black" stroke-width="0.5" stroke-miterlimit="10"/>
<path d="M58.4863 46.6081C58.7381 47.1277 55.4662 49.5018 51.6495 50.7737C51.209 50.921 50.5721 51.1321 49.938 51.2784C49.6487 51.5964 49.3471 51.904 49.0343 52.2033C48.7723 52.4528 48.5027 52.6957 48.2246 52.9311C44.7348 55.2471 40.0915 56.6578 34.9945 56.6578C29.9003 56.6578 25.2616 55.2499 21.7737 52.9396C21.693 52.872 21.6131 52.8026 21.5342 52.7332C21.0664 52.3224 20.6202 51.8918 20.1984 51.4407C19.4046 51.3159 18.5104 51.0176 17.942 50.8281C14.1254 49.5562 10.8545 47.1821 11.1053 46.6625C11.1701 46.5255 11.4237 46.6268 12.1085 46.549C13.2846 46.4167 14.1282 45.9459 14.6702 45.6363C13.7177 45.0895 13.1052 44.5548 13.1869 44.3841C13.2226 44.3109 13.3588 44.3653 13.7271 44.3241C14.3706 44.2528 14.828 43.9911 15.1202 43.8241C15.4189 43.6543 15.6359 43.463 15.8012 43.2735C15.5166 42.0344 15.3663 40.7484 15.3663 39.4296C15.3663 38.5113 15.4396 37.607 15.5795 36.7244C14.301 36.7244 13.1146 35.7592 12.3312 35.1204C9.59197 32.8917 8.56805 29.348 8.97104 29.1041C9.13073 29.0065 9.38812 29.5093 10.2458 30.1453C10.8705 30.6096 11.4604 30.8835 12.0381 31.0701C11.8991 30.8234 11.7685 30.5749 11.6454 30.3263C10.3322 27.6614 10.1359 25.2667 10.0231 23.7312C9.76011 20.1087 10.4599 17.1474 11.0658 15.2845C12.0287 16.8979 13.0291 18.0385 13.7308 18.7561C13.7806 18.8067 13.8492 18.8761 13.9337 18.9606C15.0413 19.9942 16.5236 21.1414 18.4634 21.9021C21.7813 23.2022 25.3142 22.9292 28.2554 22.2576C30.3559 21.541 32.6263 21.1517 34.9935 21.1517C37.326 21.1517 39.5655 21.5297 41.6415 22.2276C44.5394 22.8655 47.9813 23.0943 51.2193 21.8252C54.1915 20.6602 56.089 18.5863 57.2125 17.4044C57.2135 17.4035 57.2144 17.4025 57.2163 17.4007C57.6775 16.821 58.1735 16.1269 58.6601 15.3108C59.266 17.1737 59.9668 20.134 59.7028 23.7575C59.5919 25.293 59.3937 27.6877 58.0805 30.3526C57.9612 30.5946 57.8334 30.8366 57.6991 31.0767C58.2515 30.8919 58.817 30.6218 59.4125 30.179C60.2692 29.5431 60.5276 29.0403 60.6872 29.1379C61.0893 29.3817 60.0663 32.9264 57.3271 35.1542C56.6113 35.7376 55.5592 36.5921 54.4085 36.7366C54.5484 37.6155 54.6208 38.515 54.6208 39.4305C54.6208 40.6537 54.4921 41.8487 54.245 43.0043C54.4291 43.2613 54.6865 43.539 55.1046 43.7781C55.3958 43.9432 55.8542 44.2049 56.4958 44.2772C56.864 44.3184 57.0012 44.2659 57.0359 44.3381C57.1261 44.5248 56.3699 45.1589 55.2436 45.762C55.7781 46.05 56.5183 46.3867 57.4812 46.4955C58.1679 46.5715 58.4205 46.4721 58.4863 46.6081Z" fill="white" stroke="black" stroke-width="0.5" stroke-miterlimit="10"/>
<path d="M45.6245 43.9282C45.6245 47.79 42.953 50.921 39.6567 50.921C38.5257 50.921 37.8362 50.8347 36.9344 50.1941C37.1401 49.5956 36.847 48.8114 36.4713 48.3424C36.0082 47.7637 35.4201 47.5086 34.617 47.533C34.0045 47.5517 33.5743 47.533 32.9947 48.1117C32.4686 48.637 32.1483 49.7823 32.5316 50.5411C31.7669 50.9585 31.5199 50.921 30.6199 50.921C27.3237 50.921 24.6521 47.79 24.6521 43.9282C24.6521 40.0665 27.3237 36.9354 30.6199 36.9354C32.4254 36.9354 34.0449 37.8753 35.1383 39.3602C36.2317 37.8753 37.8512 36.9354 39.6567 36.9354C42.953 36.9354 45.6245 40.0665 45.6245 43.9282Z" fill="#0675E1"/>
<path d="M46.7856 43.9264C46.7856 48.26 43.8181 51.7737 40.1574 51.7737C38.9005 51.7737 37.7272 51.3601 36.7249 50.6406C36.9532 49.969 36.9804 49.2411 36.6535 48.653C36.2872 47.9936 35.4624 47.4917 34.57 47.518C33.8899 47.5386 33.1374 47.8669 32.7711 48.4635C32.3352 49.1726 32.4902 50.1913 32.9148 51.043C32.0656 51.5111 31.1187 51.7728 30.1202 51.7728C26.4594 51.7728 23.4919 48.259 23.4919 43.9255C23.4919 39.5919 26.4594 36.0781 30.1202 36.0781C32.1257 36.0781 33.9237 37.1334 35.1383 38.7993C36.3529 37.1334 38.1509 36.0781 40.1565 36.0781C43.8181 36.0791 46.7856 39.5919 46.7856 43.9264Z" stroke="black" stroke-width="0.5" stroke-miterlimit="10"/>
<path d="M36.7257 50.6406C36.3669 51.6968 35.5121 52.6142 34.7606 52.6245C34.0917 52.6348 33.3571 51.9294 32.9166 51.0439C32.491 50.1922 32.337 49.1736 32.7728 48.4644C33.1392 47.8679 33.8916 47.5396 34.5717 47.5189C35.4632 47.4927 36.288 47.9945 36.6553 48.6539C36.9813 49.2411 36.9531 49.969 36.7257 50.6406Z" stroke="black" stroke-width="0.5" stroke-miterlimit="10"/>
<path d="M30.6188 46.5499C31.3866 46.5499 32.0091 45.9284 32.0091 45.1617C32.0091 44.395 31.3866 43.7734 30.6188 43.7734C29.851 43.7734 29.2285 44.395 29.2285 45.1617C29.2285 45.9284 29.851 46.5499 30.6188 46.5499Z" stroke="black" stroke-width="0.7" stroke-miterlimit="10"/>
<path d="M39.078 46.5499C39.8459 46.5499 40.4683 45.9284 40.4683 45.1617C40.4683 44.395 39.8459 43.7734 39.078 43.7734C38.3102 43.7734 37.6877 44.395 37.6877 45.1617C37.6877 45.9284 38.3102 46.5499 39.078 46.5499Z" stroke="black" stroke-width="0.7" stroke-miterlimit="10"/>
<path d="M34.9062 23.6402C34.5248 23.2866 32.9223 21.8777 30.851 22.1356C30.0281 22.2379 28.3842 22.6966 28.186 23.7556C28 24.7508 29.1188 25.9055 29.4607 25.9542C30.2714 26.0696 30.7533 26.3491 30.9674 26.4167C31.4146 26.5583 31.8777 26.9363 31.8946 26.8791C31.9294 26.7581 29.5753 25.3717 27.3753 25.9533C26.3983 26.2112 25.0776 26.956 25.0579 27.9203C25.04 28.771 26.0442 29.4023 26.4481 29.6556C28.1653 30.7343 30.1521 30.3056 30.851 30.118" stroke="black" stroke-width="0.3" stroke-miterlimit="10" stroke-linecap="round"/>
<path d="M17.2358 26.1278C17.6453 26.5762 18.0042 26.8707 18.2644 27.0611C18.2644 27.0611 18.5293 27.2553 18.5105 27.2844C18.4889 27.3191 18.131 27.0123 17.6998 27.0527C17.6773 27.0545 17.2207 27.1033 17.1202 27.3997C17.0282 27.6708 17.2978 27.9672 17.4678 28.0939C17.7985 28.3396 18.2052 28.2777 18.332 28.258C18.6336 28.212 18.8487 28.0751 18.8581 28.0939C18.8759 28.1276 18.0831 28.3649 17.9309 28.9033C17.8473 29.1988 17.9469 29.619 18.2785 29.8292C18.5885 30.0252 19.0187 29.9839 19.3212 29.7138" stroke="black" stroke-width="0.2" stroke-miterlimit="10" stroke-linecap="round"/>
<path d="M51.8703 26.0068C51.4607 26.4552 51.1019 26.7497 50.8417 26.9401C50.8417 26.9401 50.5768 27.1343 50.5956 27.1634C50.6172 27.1981 50.9751 26.8914 51.4063 26.9317C51.4288 26.9336 51.8853 26.9824 51.9859 27.2788C52.0779 27.5498 51.8083 27.8462 51.6383 27.9729C51.3076 28.2186 50.9009 28.1567 50.7741 28.137C50.4725 28.0911 50.2574 27.9541 50.248 27.9729C50.2302 28.0066 51.023 28.244 51.1752 28.7824C51.2588 29.0778 51.1592 29.4981 50.8276 29.7082C50.5176 29.9042 50.0874 29.8629 49.7849 29.5928" stroke="black" stroke-width="0.2" stroke-miterlimit="10" stroke-linecap="round"/>
<path d="M31.952 26.9382C31.378 26.6568 30.3156 26.2347 28.9394 26.2441C26.5999 25.9 25.7436 27.017 25.2317 27.4016" stroke="black" stroke-width="0.3" stroke-miterlimit="10" stroke-linecap="round"/>
<path d="M34.9643 23.6984C34.0419 23.1506 33.4379 22.7829 32.8789 22.6572C32.1472 22.4931 30.9889 22.2482 29.6343 22.6572C28.8979 22.8795 28.6987 23.1046 28.3596 23.3513" stroke="black" stroke-width="0.3" stroke-miterlimit="10" stroke-linecap="round"/>
<path d="M35.312 47.5329C35.3994 48.1576 35.4492 48.8555 35.4276 49.6153C35.4135 50.1086 35.3721 50.572 35.312 51.0035" stroke="black" stroke-width="0.2" stroke-miterlimit="10" stroke-linecap="round"/>
</g>
<defs>
<clipPath id="clip0">
<rect width="53.2" height="43.4" fill="white" transform="translate(8.3999 14)"/>
</clipPath>
</defs>
</svg>
