<svg width="95" height="95" viewBox="0 0 95 95" fill="none" xmlns="http://www.w3.org/2000/svg">
<path d="M83.125 10.3906H46.0156V87.5781H83.125C84.306 87.5781 85.4387 87.109 86.2738 86.2738C87.109 85.4387 87.5781 84.306 87.5781 83.125V14.8438C87.5781 13.6627 87.109 12.53 86.2738 11.6949C85.4387 10.8598 84.306 10.3906 83.125 10.3906Z" fill="#0089EF"/>
<path d="M77.1875 81.6406C78.3685 81.6406 79.5012 81.1715 80.3363 80.3363C81.1715 79.5012 81.6406 78.3685 81.6406 77.1875V19.2969L66.7969 4.45312H25.2344C24.0533 4.45313 22.9207 4.92229 22.0855 5.75742C21.2504 6.59254 20.7813 7.72521 20.7812 8.90625V77.1875C20.7813 78.3685 21.2504 79.5012 22.0855 80.3363C22.9207 81.1715 24.0533 81.6406 25.2344 81.6406H77.1875Z" fill="#6DC9F7"/>
<path d="M71.25 19.2969H81.6406L66.7969 4.45312V14.8438C66.7969 16.0248 67.266 17.1575 68.1012 17.9926C68.9363 18.8277 70.069 19.2969 71.25 19.2969Z" fill="#ADD7DB"/>
<path d="M43.0469 60.8594H4.45312C2.81353 60.8594 1.48438 62.1885 1.48438 63.8281V87.5781C1.48438 89.2177 2.81353 90.5469 4.45312 90.5469H43.0469C44.6865 90.5469 46.0156 89.2177 46.0156 87.5781V63.8281C46.0156 62.1885 44.6865 60.8594 43.0469 60.8594Z" fill="#FF5A73"/>
<path d="M7.42188 50.4688V54.9219H14.8438V50.4688C14.8438 48.1067 15.7821 45.8413 17.4523 44.1711C19.1226 42.5008 21.3879 41.5625 23.75 41.5625C26.1121 41.5625 28.3774 42.5008 30.0477 44.1711C31.7179 45.8413 32.6562 48.1067 32.6562 50.4688V60.8594H40.0781V50.4688C40.0781 46.1383 38.3578 41.9851 35.2957 38.923C32.2336 35.8609 28.0805 34.1406 23.75 34.1406C19.4195 34.1406 15.2664 35.8609 12.2043 38.923C9.14216 41.9851 7.42188 46.1383 7.42188 50.4688Z" fill="#DFDFDD"/>
<path d="M26.7188 74.2187C26.7192 73.6975 26.5825 73.1853 26.3222 72.7337C26.0619 72.2821 25.6873 71.907 25.2361 71.6461C24.7849 71.3851 24.2729 71.2476 23.7517 71.2473C23.2304 71.247 22.7183 71.384 22.2668 71.6444C21.8153 71.9048 21.4403 72.2795 21.1795 72.7308C20.9187 73.1821 20.7814 73.6942 20.7813 74.2154C20.7811 74.7366 20.9183 75.2487 21.1788 75.7001C21.4394 76.1516 21.8142 76.5265 22.2656 76.7871V81.6406H25.2344V76.7871C25.6855 76.527 26.0603 76.1527 26.3208 75.7019C26.5814 75.251 26.7187 74.7395 26.7188 74.2187Z" fill="#B93F33"/>
<path d="M83.125 8.90625H73.3493L67.8465 3.40349C67.7087 3.26565 67.545 3.15632 67.3649 3.08172C67.1848 3.00713 66.9918 2.96874 66.7969 2.96875H25.2344C23.6602 2.97052 22.151 3.59664 21.0379 4.70976C19.9248 5.82287 19.2986 7.33207 19.2969 8.90625V29.6875H22.2656V8.90625C22.2666 8.11917 22.5796 7.3646 23.1362 6.80806C23.6927 6.25151 24.4473 5.93843 25.2344 5.9375H65.3125V14.8438C65.3143 16.4179 65.9404 17.9271 67.0535 19.0402C68.1666 20.1534 69.6758 20.7795 71.25 20.7812H80.1562V77.1875C80.1553 77.9746 79.8422 78.7291 79.2857 79.2857C78.7291 79.8422 77.9746 80.1553 77.1875 80.1562H50.4688V83.125H77.1875C78.7617 83.1232 80.2709 82.4971 81.384 81.384C82.4971 80.2709 83.1232 78.7617 83.125 77.1875V19.2969C83.125 19.1019 83.0866 18.9089 83.012 18.7288C82.9374 18.5487 82.8281 18.3851 82.6903 18.2472L76.318 11.875H83.125C83.9121 11.8759 84.6666 12.189 85.2232 12.7456C85.7797 13.3021 86.0928 14.0567 86.0938 14.8438V83.125C86.0928 83.9121 85.7797 84.6666 85.2232 85.2232C84.6666 85.7797 83.9121 86.0928 83.125 86.0938H50.4688V89.0625H83.125C84.6992 89.0607 86.2084 88.4346 87.3215 87.3215C88.4346 86.2084 89.0607 84.6992 89.0625 83.125V14.8438C89.0607 13.2696 88.4346 11.7604 87.3215 10.6473C86.2084 9.53414 84.6992 8.90802 83.125 8.90625ZM68.2812 14.8438V8.03659L78.0572 17.8125H71.25C70.4629 17.8116 69.7084 17.4985 69.1518 16.9419C68.5953 16.3854 68.2822 15.6308 68.2812 14.8438ZM22.2656 47.5V56.4062H19.2969V47.5H22.2656ZM29.6875 11.875H26.7188V8.90625H29.6875V11.875ZM35.625 11.875H32.6562V8.90625H35.625V11.875ZM41.5625 11.875H38.5938V8.90625H41.5625V11.875ZM47.5 63.8281V87.5781C47.4987 88.7588 47.0291 89.8907 46.1942 90.7255C45.3594 91.5603 44.2275 92.0299 43.0469 92.0312H4.45312C3.27249 92.0299 2.14059 91.5603 1.30575 90.7255C0.470919 89.8907 0.00132598 88.7588 0 87.5781V69.7656H2.96875V87.5781C2.96919 87.9717 3.12572 88.349 3.404 88.6273C3.68228 88.9055 4.05958 89.0621 4.45312 89.0625H43.0469C43.4404 89.0621 43.8177 88.9055 44.096 88.6273C44.3743 88.349 44.5308 87.9717 44.5312 87.5781V63.8281C44.5308 63.4346 44.3743 63.0573 44.096 62.779C43.8177 62.5007 43.4404 62.3442 43.0469 62.3438H4.45312C4.05958 62.3442 3.68228 62.5007 3.404 62.779C3.12572 63.0573 2.96919 63.4346 2.96875 63.8281V66.7969H0V63.8281C0.00132598 62.6475 0.470919 61.5156 1.30575 60.6808C2.14059 59.8459 3.27249 59.3763 4.45312 59.375H31.1719V50.4688C31.1719 48.5003 30.3899 46.6126 28.9981 45.2207C27.6062 43.8288 25.7184 43.0469 23.75 43.0469C21.7816 43.0469 19.8938 43.8288 18.5019 45.2207C17.1101 46.6126 16.3281 48.5003 16.3281 50.4688V54.9219C16.3281 55.3156 16.1717 55.6931 15.8934 55.9715C15.615 56.2499 15.2374 56.4062 14.8438 56.4062H7.42188C7.02819 56.4062 6.65064 56.2499 6.37226 55.9715C6.09389 55.6931 5.9375 55.3156 5.9375 54.9219V50.4688C5.92779 48.0413 6.41891 45.638 7.38016 43.409C8.34141 41.18 9.75213 39.1733 11.5241 37.5142L13.5624 39.6731C12.0855 41.0556 10.9098 42.7279 10.1086 44.5854C9.3075 46.443 8.89817 48.4458 8.90625 50.4688V53.4375H13.3594V50.4688C13.3594 47.713 14.4541 45.0701 16.4027 43.1215C18.3513 41.1728 20.9942 40.0781 23.75 40.0781C26.5058 40.0781 29.1487 41.1728 31.0973 43.1215C33.0459 45.0701 34.1406 47.713 34.1406 50.4688V59.375H38.5938V50.4688C38.5932 47.7963 37.8714 45.1735 36.5043 42.8771C35.1372 40.5807 33.1756 38.6959 30.8265 37.4216C28.4774 36.1473 25.8279 35.5306 23.1575 35.6368C20.4872 35.7429 17.8949 36.5679 15.6544 38.0247L14.0331 35.5383C16.7215 33.7895 19.8323 32.7988 23.0369 32.6709C26.2416 32.543 29.4213 33.2826 32.2406 34.8116C35.0599 36.3407 37.4141 38.6024 39.0549 41.3582C40.6956 44.1139 41.5619 47.2615 41.5625 50.4688V59.375H43.0469C44.2275 59.3763 45.3594 59.8459 46.1942 60.6808C47.0291 61.5156 47.4987 62.6475 47.5 63.8281ZM25.2344 81.6406V78.4166C26.2248 78.0664 27.0595 77.3774 27.591 76.4713C28.1225 75.5652 28.3166 74.5004 28.139 73.4651C27.9614 72.4297 27.4234 71.4905 26.6203 70.8134C25.8171 70.1364 24.8005 69.765 23.75 69.765C22.6995 69.765 21.6829 70.1364 20.8797 70.8134C20.0766 71.4905 19.5386 72.4297 19.361 73.4651C19.1834 74.5004 19.3775 75.5652 19.909 76.4713C20.4405 77.3774 21.2752 78.0664 22.2656 78.4166V81.6406H25.2344ZM23.75 72.7344C24.0436 72.7344 24.3306 72.8214 24.5747 72.9845C24.8188 73.1476 25.009 73.3795 25.1214 73.6507C25.2337 73.9219 25.2631 74.2204 25.2059 74.5083C25.1486 74.7963 25.0072 75.0608 24.7996 75.2684C24.592 75.476 24.3275 75.6173 24.0396 75.6746C23.7516 75.7319 23.4532 75.7025 23.182 75.5901C22.9107 75.4778 22.6789 75.2875 22.5158 75.0434C22.3527 74.7993 22.2656 74.5123 22.2656 74.2188C22.2661 73.8252 22.4226 73.4479 22.7009 73.1696C22.9792 72.8913 23.3565 72.7348 23.75 72.7344ZM26.7188 23.75C26.7188 24.931 27.1879 26.0637 28.023 26.8988C28.8582 27.734 29.9908 28.2031 31.1719 28.2031C32.3529 28.2031 33.4856 27.734 34.3207 26.8988C35.1558 26.0637 35.625 24.931 35.625 23.75V20.7812C35.625 19.6002 35.1558 18.4675 34.3207 17.6324C33.4856 16.7973 32.3529 16.3281 31.1719 16.3281C29.9908 16.3281 28.8582 16.7973 28.023 17.6324C27.1879 18.4675 26.7188 19.6002 26.7188 20.7812V23.75ZM29.6875 20.7812C29.6875 20.3876 29.8439 20.01 30.1223 19.7316C30.4006 19.4533 30.7782 19.2969 31.1719 19.2969C31.5656 19.2969 31.9431 19.4533 32.2215 19.7316C32.4999 20.01 32.6562 20.3876 32.6562 20.7812V23.75C32.6562 24.1437 32.4999 24.5212 32.2215 24.7996C31.9431 25.078 31.5656 25.2344 31.1719 25.2344C30.7782 25.2344 30.4006 25.078 30.1223 24.7996C29.8439 24.5212 29.6875 24.1437 29.6875 23.75V20.7812ZM38.5938 16.3281H41.5625V28.2031H38.5938V16.3281ZM48.9844 16.3281C47.8037 16.3295 46.6718 16.799 45.837 17.6339C45.0022 18.4687 44.5326 19.6006 44.5312 20.7812V23.75C44.5312 24.931 45.0004 26.0637 45.8355 26.8988C46.6707 27.734 47.8033 28.2031 48.9844 28.2031C50.1654 28.2031 51.2981 27.734 52.1332 26.8988C52.9683 26.0637 53.4375 24.931 53.4375 23.75V20.7812C53.4362 19.6006 52.9666 18.4687 52.1317 17.6339C51.2969 16.799 50.165 16.3295 48.9844 16.3281ZM50.4688 23.75C50.4688 24.1437 50.3124 24.5212 50.034 24.7996C49.7556 25.078 49.3781 25.2344 48.9844 25.2344C48.5907 25.2344 48.2131 25.078 47.9348 24.7996C47.6564 24.5212 47.5 24.1437 47.5 23.75V20.7812C47.5 20.3876 47.6564 20.01 47.9348 19.7316C48.2131 19.4533 48.5907 19.2969 48.9844 19.2969C49.3781 19.2969 49.7556 19.4533 50.034 19.7316C50.3124 20.01 50.4688 20.3876 50.4688 20.7812V23.75ZM60.8594 16.3281C59.6787 16.3295 58.5468 16.799 57.712 17.6339C56.8772 18.4687 56.4076 19.6006 56.4062 20.7812V23.75C56.4062 24.931 56.8754 26.0637 57.7105 26.8988C58.5457 27.734 59.6783 28.2031 60.8594 28.2031C62.0404 28.2031 63.1731 27.734 64.0082 26.8988C64.8433 26.0637 65.3125 24.931 65.3125 23.75V20.7812C65.3112 19.6006 64.8416 18.4687 64.0067 17.6339C63.1719 16.799 62.04 16.3295 60.8594 16.3281ZM62.3438 23.75C62.3438 24.1437 62.1874 24.5212 61.909 24.7996C61.6306 25.078 61.2531 25.2344 60.8594 25.2344C60.4657 25.2344 60.0881 25.078 59.8098 24.7996C59.5314 24.5212 59.375 24.1437 59.375 23.75V20.7812C59.375 20.3876 59.5314 20.01 59.8098 19.7316C60.0881 19.4533 60.4657 19.2969 60.8594 19.2969C61.2531 19.2969 61.6306 19.4533 61.909 19.7316C62.1874 20.01 62.3438 20.3876 62.3438 20.7812V23.75ZM43.0469 35.625V38.5938C43.0469 39.7748 43.516 40.9075 44.3512 41.7426C45.1863 42.5777 46.319 43.0469 47.5 43.0469C48.681 43.0469 49.8137 42.5777 50.6488 41.7426C51.484 40.9075 51.9531 39.7748 51.9531 38.5938V35.625C51.9531 34.444 51.484 33.3113 50.6488 32.4762C49.8137 31.641 48.681 31.1719 47.5 31.1719C46.319 31.1719 45.1863 31.641 44.3512 32.4762C43.516 33.3113 43.0469 34.444 43.0469 35.625ZM46.0156 35.625C46.0156 35.2313 46.172 34.8538 46.4504 34.5754C46.7288 34.297 47.1063 34.1406 47.5 34.1406C47.8937 34.1406 48.2712 34.297 48.5496 34.5754C48.828 34.8538 48.9844 35.2313 48.9844 35.625V38.5938C48.9844 38.9874 48.828 39.365 48.5496 39.6434C48.2712 39.9217 47.8937 40.0781 47.5 40.0781C47.1063 40.0781 46.7288 39.9217 46.4504 39.6434C46.172 39.365 46.0156 38.9874 46.0156 38.5938V35.625ZM54.9219 31.1719H57.8906V43.0469H54.9219V31.1719ZM65.3125 31.1719C64.1319 31.1732 63 31.6428 62.1651 32.4776C61.3303 33.3125 60.8607 34.4444 60.8594 35.625V38.5938C60.8594 39.7748 61.3285 40.9075 62.1637 41.7426C62.9988 42.5777 64.1315 43.0469 65.3125 43.0469C66.4935 43.0469 67.6262 42.5777 68.4613 41.7426C69.2965 40.9075 69.7656 39.7748 69.7656 38.5938V35.625C69.7643 34.4444 69.2947 33.3125 68.4599 32.4776C67.625 31.6428 66.4931 31.1732 65.3125 31.1719ZM66.7969 38.5938C66.7969 38.9874 66.6405 39.365 66.3621 39.6434C66.0837 39.9217 65.7062 40.0781 65.3125 40.0781C64.9188 40.0781 64.5413 39.9217 64.2629 39.6434C63.9845 39.365 63.8281 38.9874 63.8281 38.5938V35.625C63.8281 35.2313 63.9845 34.8538 64.2629 34.5754C64.5413 34.297 64.9188 34.1406 65.3125 34.1406C65.7062 34.1406 66.0837 34.297 66.3621 34.5754C66.6405 34.8538 66.7969 35.2313 66.7969 35.625V38.5938ZM75.7031 31.1719V43.0469H72.7344V31.1719H75.7031ZM46.0156 46.0156H48.9844V57.8906H46.0156V46.0156ZM51.9531 50.4688V53.4375C51.9531 54.6185 52.4223 55.7512 53.2574 56.5863C54.0925 57.4215 55.2252 57.8906 56.4062 57.8906C57.5873 57.8906 58.72 57.4215 59.5551 56.5863C60.3902 55.7512 60.8594 54.6185 60.8594 53.4375V50.4688C60.8594 49.2877 60.3902 48.155 59.5551 47.3199C58.72 46.4848 57.5873 46.0156 56.4062 46.0156C55.2252 46.0156 54.0925 46.4848 53.2574 47.3199C52.4223 48.155 51.9531 49.2877 51.9531 50.4688ZM54.9219 50.4688C54.9219 50.0751 55.0783 49.6975 55.3566 49.4191C55.635 49.1408 56.0126 48.9844 56.4062 48.9844C56.7999 48.9844 57.1775 49.1408 57.4559 49.4191C57.7342 49.6975 57.8906 50.0751 57.8906 50.4688V53.4375C57.8906 53.8312 57.7342 54.2087 57.4559 54.4871C57.1775 54.7655 56.7999 54.9219 56.4062 54.9219C56.0126 54.9219 55.635 54.7655 55.3566 54.4871C55.0783 54.2087 54.9219 53.8312 54.9219 53.4375V50.4688ZM72.7344 50.4688C72.7344 49.2877 72.2652 48.155 71.4301 47.3199C70.595 46.4848 69.4623 46.0156 68.2812 46.0156C67.1002 46.0156 65.9675 46.4848 65.1324 47.3199C64.2973 48.155 63.8281 49.2877 63.8281 50.4688V53.4375C63.8281 54.6185 64.2973 55.7512 65.1324 56.5863C65.9675 57.4215 67.1002 57.8906 68.2812 57.8906C69.4623 57.8906 70.595 57.4215 71.4301 56.5863C72.2652 55.7512 72.7344 54.6185 72.7344 53.4375V50.4688ZM69.7656 53.4375C69.7656 53.8312 69.6092 54.2087 69.3309 54.4871C69.0525 54.7655 68.6749 54.9219 68.2812 54.9219C67.8876 54.9219 67.51 54.7655 67.2316 54.4871C66.9533 54.2087 66.7969 53.8312 66.7969 53.4375V50.4688C66.7969 50.0751 66.9533 49.6975 67.2316 49.4191C67.51 49.1408 67.8876 48.9844 68.2812 48.9844C68.6749 48.9844 69.0525 49.1408 69.3309 49.4191C69.6092 49.6975 69.7656 50.0751 69.7656 50.4688V53.4375ZM51.9531 62.3438H54.9219V74.2188H51.9531V62.3438ZM69.7656 62.3438H72.7344V74.2188H69.7656V62.3438ZM57.8906 66.7969V69.7656C57.8906 70.9467 58.3598 72.0793 59.1949 72.9145C60.03 73.7496 61.1627 74.2188 62.3438 74.2188C63.5248 74.2188 64.6575 73.7496 65.4926 72.9145C66.3277 72.0793 66.7969 70.9467 66.7969 69.7656V66.7969C66.7969 65.6158 66.3277 64.4832 65.4926 63.648C64.6575 62.8129 63.5248 62.3438 62.3438 62.3438C61.1627 62.3438 60.03 62.8129 59.1949 63.648C58.3598 64.4832 57.8906 65.6158 57.8906 66.7969ZM63.8281 66.7969V69.7656C63.8281 70.1593 63.6717 70.5369 63.3934 70.8152C63.115 71.0936 62.7374 71.25 62.3438 71.25C61.9501 71.25 61.5725 71.0936 61.2941 70.8152C61.0158 70.5369 60.8594 70.1593 60.8594 69.7656V66.7969C60.8594 66.4032 61.0158 66.0256 61.2941 65.7473C61.5725 65.4689 61.9501 65.3125 62.3438 65.3125C62.7374 65.3125 63.115 65.4689 63.3934 65.7473C63.6717 66.0256 63.8281 66.4032 63.8281 66.7969Z" fill="black"/>
</svg>
