<svg width="28" height="28" viewBox="0 0 28 28" fill="none" xmlns="http://www.w3.org/2000/svg">
<path d="M20.2737 0H7.72775C3.46721 0 0.000976562 3.4664 0.000976562 7.72694V20.2729C0.000976562 24.5336 3.46721 27.9998 7.72775 27.9998H20.2737C24.5346 27.9998 28.0008 24.5334 28.0008 20.2729V7.72694C28.001 3.4664 24.5346 0 20.2737 0ZM25.5167 20.2729C25.5167 23.1638 23.1647 25.5156 20.2739 25.5156H7.72775C4.83704 25.5157 2.48526 23.1638 2.48526 20.2729V7.72694C2.48526 4.83623 4.83704 2.48428 7.72775 2.48428H20.2737C23.1646 2.48428 25.5165 4.83623 25.5165 7.72694V20.2729H25.5167Z" fill="white"/>
<path d="M14.001 6.7854C10.0227 6.7854 6.78613 10.0219 6.78613 14.0002C6.78613 17.9784 10.0227 21.2148 14.001 21.2148C17.9793 21.2148 21.2158 17.9784 21.2158 14.0002C21.2158 10.0219 17.9793 6.7854 14.001 6.7854ZM14.001 18.7303C11.3927 18.7303 9.27041 16.6084 9.27041 14.0001C9.27041 11.3916 11.3925 9.26952 14.001 9.26952C16.6095 9.26952 18.7316 11.3916 18.7316 14.0001C18.7316 16.6084 16.6093 18.7303 14.001 18.7303Z" fill="white"/>
<path d="M21.5181 4.67896C21.0395 4.67896 20.5693 4.87273 20.2312 5.21225C19.8916 5.55011 19.6963 6.02047 19.6963 6.50076C19.6963 6.97957 19.8917 7.44976 20.2312 7.78927C20.5691 8.12714 21.0395 8.32257 21.5181 8.32257C21.9984 8.32257 22.4671 8.12714 22.8066 7.78927C23.1461 7.44976 23.3399 6.9794 23.3399 6.50076C23.3399 6.02047 23.1461 5.55011 22.8066 5.21225C22.4687 4.87273 21.9984 4.67896 21.5181 4.67896Z" fill="white"/>
</svg>
