<svg width="95" height="95" viewBox="0 0 95 95" fill="none" xmlns="http://www.w3.org/2000/svg">
<path d="M60.4136 54.703C58.2523 56.8643 55.9707 58.7314 53.6615 60.2773C52.4286 61.1029 50.7819 60.934 49.7324 59.8845L34.6168 44.769C33.5673 43.7195 33.3977 42.0727 34.224 40.8391C35.7692 38.5307 37.637 36.249 39.7984 34.087C49.989 23.8964 62.8649 20.2507 68.5581 25.9432C74.2507 31.6357 70.605 44.5124 60.4136 54.703Z" fill="#6DC9F7"/>
<path d="M25.4851 51.345C26.1701 50.6601 26.9202 50.0781 27.7168 49.5997C28.9402 48.8641 30.5094 49.0641 31.519 50.0737L44.4276 62.9823C45.4365 63.9919 45.6373 65.5604 44.9016 66.7838C44.4225 67.5811 43.8412 68.3313 43.1563 69.0155C38.464 73.7085 30.7044 73.5563 25.8243 68.6763C20.945 63.797 20.7928 56.0373 25.4851 51.345Z" fill="#6DC9F7"/>
<path d="M47.5 1.41119C22.0453 1.41119 1.41119 22.0453 1.41119 47.5C1.41119 72.9547 22.0453 93.5889 47.5 93.5889C72.9547 93.5889 93.5888 72.9547 93.5888 47.5C93.5888 22.0453 72.9547 1.41119 47.5 1.41119ZM9.70137 47.5C9.70137 34.69 16.0752 23.3695 25.8237 16.5333L61.9053 82.4539C57.4659 84.2854 52.6011 85.2987 47.5 85.2987C26.6245 85.2987 9.70137 68.3755 9.70137 47.5ZM69.1749 78.4675L33.0933 12.5469C37.5334 10.7146 42.3982 9.70137 47.5 9.70137C68.3755 9.70137 85.2965 26.6246 85.2965 47.5C85.2965 60.3107 78.9234 71.6313 69.1749 78.4675Z" fill="#FF5A73"/>
<path d="M24.8263 69.6743C27.4457 72.293 30.8928 73.7752 34.5327 73.8462C34.6248 73.8484 34.7168 73.8491 34.8082 73.8491C38.3647 73.8491 41.6748 72.493 44.1544 70.0135C44.9074 69.2597 45.5663 68.4182 46.1113 67.5108C47.1811 65.7307 46.8991 63.4585 45.4249 61.985L32.5164 49.0764C31.0429 47.6029 28.7706 47.3202 26.9905 48.39C26.0831 48.9351 25.2409 49.5939 24.4878 50.3477C19.2527 55.5821 19.4049 64.2521 24.8263 69.6743ZM26.4832 52.3423C27.0739 51.7516 27.7335 51.2356 28.4438 50.8087C28.7134 50.647 29.0134 50.568 29.3113 50.568C29.752 50.568 30.1898 50.7398 30.521 51.0718L43.4296 63.9803C43.9855 64.5355 44.0935 65.39 43.6927 66.0576C43.2658 66.7671 42.7497 67.4274 42.159 68.0181C40.1629 70.0135 37.4718 71.0782 34.5885 71.0253C31.6814 70.968 28.9228 69.7794 26.8217 67.6782C22.5005 63.357 22.3482 56.4773 26.4832 52.3423Z" fill="black"/>
<path d="M81.0876 13.9124C72.1161 4.94091 60.1875 0 47.5 0C34.8125 0 22.8839 4.94091 13.9124 13.9124C4.94091 22.8839 0 34.8125 0 47.5C0 60.1875 4.94091 72.1161 13.9124 81.0876C22.8839 90.0591 34.8125 95 47.5 95C60.1875 95 72.1161 90.0591 81.0876 81.0876C90.0591 72.1161 95 60.1875 95 47.5C95 34.8125 90.0591 22.8839 81.0876 13.9124ZM79.0923 79.0923C70.6535 87.531 59.4337 92.1784 47.5 92.1784C35.5663 92.1784 24.3465 87.531 15.9077 79.0923C7.46899 70.6535 2.82162 59.4337 2.82162 47.5C2.82162 35.5663 7.46899 24.3465 15.9077 15.9077C24.3465 7.46899 35.5663 2.82162 47.5 2.82162C59.4337 2.82162 70.6535 7.46899 79.0923 15.9077C87.531 24.3465 92.1784 35.5663 92.1784 47.5C92.1784 59.4337 87.531 70.6535 79.0923 79.0923Z" fill="black"/>
<path d="M47.5 8.29016C42.3308 8.29016 37.3022 9.28385 32.5548 11.2422C32.1844 11.3952 31.8959 11.6989 31.7626 12.0772C31.6292 12.4548 31.6633 12.8723 31.8554 13.2238L67.9377 79.1444C68.1305 79.4967 68.4639 79.7496 68.8546 79.841C68.9611 79.8663 69.0684 79.8779 69.1756 79.8779C69.4627 79.8779 69.746 79.7902 69.9852 79.6221C80.4563 72.2792 86.7076 60.2708 86.7076 47.5C86.7076 25.8794 69.1191 8.29016 47.5 8.29016ZM69.6395 76.3764L59.3735 57.6224C60.0599 57.0107 60.7427 56.3685 61.4117 55.7003C64.8849 52.2271 67.7594 48.2951 69.7243 44.3297C70.07 43.6318 69.7845 42.7852 69.0865 42.4395C68.3878 42.0938 67.542 42.3793 67.1955 43.0773C65.3654 46.7708 62.6757 50.4463 59.417 53.7042C58.9437 54.1768 58.4639 54.6348 57.9812 55.0777L45.0038 31.369C53.7339 24.6038 63.2968 22.678 67.5601 26.9412C69.9026 29.2838 70.4614 33.2361 69.135 38.0704C68.9285 38.822 69.3706 39.5983 70.1215 39.8041C70.2469 39.8389 70.3723 39.8549 70.4962 39.8549C71.1159 39.8549 71.6841 39.4439 71.8559 38.8177C73.4628 32.9628 72.6459 28.0364 69.5554 24.9459C66.7729 22.1634 62.4032 21.2118 57.2535 22.2678C52.8591 23.1687 48.0762 25.496 43.6347 28.867L35.1032 13.2804C39.0699 11.8409 43.2324 11.1125 47.4993 11.1125C67.563 11.1125 83.8853 27.4356 83.8853 47.5C83.886 58.8241 78.5892 69.5032 69.6395 76.3764Z" fill="black"/>
<path d="M27.0608 15.8563C26.868 15.504 26.5346 15.2511 26.1432 15.1598C25.7526 15.0684 25.3416 15.1482 25.0133 15.3787C17.49 20.6537 12.033 28.4184 9.64625 37.2427C9.44331 37.9951 9.88833 38.7692 10.6407 38.9728C11.3923 39.1765 12.1671 38.7315 12.3707 37.9791C14.4473 30.2978 19.0338 23.4811 25.359 18.6243L35.3684 36.9115C34.5429 37.9371 33.7644 38.9902 33.052 40.0542C31.8568 41.8401 32.0952 44.2421 33.6195 45.7663L48.1914 60.3383L59.8961 81.7211C55.9308 83.1598 51.7683 83.8882 47.5 83.8882C27.4356 83.8882 11.1118 67.5644 11.1118 47.5007C11.1118 46.0888 11.1944 44.6653 11.3568 43.2687C11.4466 42.4946 10.8922 41.7944 10.1181 41.7046C9.34473 41.6147 8.64386 42.1692 8.55399 42.9432C8.37931 44.4472 8.29016 45.9808 8.29016 47.5007C8.29016 69.1206 25.8794 86.7098 47.5 86.7098C52.6714 86.7098 57.6993 85.7176 62.4445 83.7592C62.8148 83.6063 63.1026 83.3026 63.2367 82.9242C63.37 82.5459 63.336 82.1292 63.1439 81.7776L27.0608 15.8563ZM35.6156 43.771C35.0408 43.1962 34.9488 42.2931 35.3967 41.6234C35.8511 40.945 36.3367 40.2709 36.8434 39.6048L43.3658 51.5219L35.6156 43.771Z" fill="black"/>
</svg>
