<svg width="610" height="614" viewBox="0 0 610 614" fill="none" xmlns="http://www.w3.org/2000/svg">
<path d="M576.729 419.805C520.195 554.866 369.601 630.528 239.007 610.119C217.757 606.799 159.499 596.906 107.918 550.234C8.62192 460.389 -12.6126 282.482 67.4864 157.106C125.784 65.8557 230.289 14.1285 329.587 16.7155C350.977 17.2736 432.948 20.7076 504.988 80.9773C515.568 89.8305 538.906 110.866 559.939 144.239C609.329 222.602 613.573 331.782 576.729 419.805Z" fill="#AAE0FF"/>
<path d="M3.86826 394.602C13.5203 353.402 45.0855 321.062 85.2674 311.172C112.893 304.371 139.398 308.02 161.801 319.04C169.232 322.695 178.061 318.558 180.12 310.375C199.924 231.67 269.622 173.526 352.569 173.526C450.926 173.526 530.657 255.277 530.657 356.125C530.657 358.802 530.605 362.459 530.559 365.967C530.907 373.51 534.117 376.712 538.913 377.515C577.449 381.627 607.734 414.199 609.415 454.375C611.345 500.505 574.726 538.724 529.694 538.724H113.156C41.8484 538.722 -13.9804 470.79 3.86826 394.602Z" fill="#0675E1"/>
<path opacity="0.21" d="M36.1294 410.041C44.7484 373.256 72.9299 344.378 108.809 335.549C133.475 329.478 157.139 332.737 177.142 342.575C183.775 345.838 191.659 342.144 193.498 334.838C211.18 264.564 273.411 212.648 347.471 212.648C435.29 212.648 506.481 285.643 506.481 375.685C506.481 378.075 506.433 381.341 506.393 384.473C506.704 391.205 509.571 394.066 513.852 394.784C548.261 398.456 575.3 427.539 576.801 463.41C578.523 504.598 545.829 538.722 505.621 538.722H133.707C70.0408 538.722 20.1915 478.067 36.1294 410.041Z" fill="#8FDDFF"/>
<path d="M84.4926 588.075C84.4926 591.45 87.2569 594.212 90.6362 594.212H422.876C426.255 594.212 429.019 591.45 429.019 588.075L431.784 397.145C431.784 393.77 427.807 387.178 420.516 387.675L95.8147 379.272C91.5752 379.163 87.4758 380.794 84.4729 383.788C81.4701 386.782 79.8286 390.872 79.927 395.107L84.4926 588.075Z" fill="url(#paint0_linear)"/>
<path d="M90.5575 582.185C90.5575 585.382 93.173 587.998 96.3706 587.998H414.863C418.06 587.998 420.676 585.382 420.676 582.185L423.285 408.859C422.978 398.428 413.832 394.681 408.29 394.902L97.0951 386.552C94.1163 386.471 91.236 387.62 89.1261 389.723C87.0162 391.827 85.8562 394.707 85.9306 397.686L90.5575 582.185Z" fill="#7D97F4"/>
<path d="M417.235 499.842C417.231 499.842 417.227 499.842 417.227 499.842C416.752 499.836 416.375 499.448 416.384 498.978L416.59 484.922C416.596 484.456 416.977 484.084 417.441 484.084C417.445 484.084 417.45 484.084 417.45 484.084C417.925 484.09 418.301 484.478 418.293 484.948L418.087 499.004C418.08 499.47 417.699 499.842 417.235 499.842Z" fill="white"/>
<path d="M417.741 465.397C417.741 465.397 417.732 465.397 417.728 465.397C417.257 465.39 416.881 465.003 416.889 464.532L417.68 410.695C417.664 407.498 416.695 404.943 414.795 403.125C411.249 399.728 405.618 399.901 405.381 399.912L305.917 397.244C305.446 397.233 305.076 396.839 305.087 396.37C305.101 395.9 305.462 395.499 305.963 395.543L405.368 398.211C405.988 398.174 411.982 398.071 415.975 401.897C418.22 404.048 419.367 407.014 419.385 410.706L418.594 464.561C418.586 465.023 418.205 465.397 417.741 465.397Z" fill="white"/>
<path d="M58.7779 610.062H448C448.68 610.062 449.236 609.506 449.236 608.825V594.525C449.236 593.844 448.68 593.288 448 593.288H58.7779C58.0972 593.288 57.5413 593.844 57.5413 594.525V608.825C57.5391 609.504 58.0972 610.062 58.7779 610.062Z" fill="url(#paint1_linear)"/>
<path d="M228.735 579.543H106.108C101.586 579.543 97.9224 575.877 97.9224 571.357V411.291C97.9224 406.646 101.781 402.932 106.423 403.109L229.051 407.802C233.448 407.97 236.923 411.584 236.923 415.983V571.357C236.921 575.877 233.257 579.543 228.735 579.543Z" fill="#91B3FA"/>
<path opacity="0.51" d="M204.345 476.695H123.118C122.473 476.695 121.952 476.172 121.952 475.528V467.067C121.952 466.421 122.475 465.9 123.118 465.9H204.345C204.99 465.9 205.511 466.423 205.511 467.067V475.528C205.511 476.172 204.988 476.695 204.345 476.695Z" fill="white"/>
<path opacity="0.51" d="M204.509 493.935H123.283C122.637 493.935 122.116 493.412 122.116 492.769V484.307C122.116 483.661 122.639 483.141 123.283 483.141H204.509C205.154 483.141 205.675 483.664 205.675 484.307V492.769C205.675 493.412 205.152 493.935 204.509 493.935Z" fill="white"/>
<path opacity="0.51" d="M204.997 511.534H123.771C123.125 511.534 122.604 511.011 122.604 510.368V501.906C122.604 501.261 123.127 500.74 123.771 500.74H204.997C205.643 500.74 206.163 501.263 206.163 501.906V510.368C206.166 511.011 205.643 511.534 204.997 511.534Z" fill="white"/>
<path opacity="0.51" d="M205.163 528.772H123.937C123.291 528.772 122.771 528.249 122.771 527.606V519.144C122.771 518.499 123.294 517.978 123.937 517.978H205.163C205.809 517.978 206.33 518.501 206.33 519.144V527.606C206.33 528.251 205.807 528.772 205.163 528.772Z" fill="white"/>
<path opacity="0.51" d="M382.484 476.682H264.682C264.037 476.682 263.516 476.159 263.516 475.515V467.054C263.516 466.408 264.039 465.887 264.682 465.887H382.484C383.129 465.887 383.65 466.41 383.65 467.054V475.515C383.65 476.161 383.127 476.682 382.484 476.682Z" fill="white"/>
<path opacity="0.51" d="M382.853 493.935H265.052C264.406 493.935 263.885 493.412 263.885 492.769V484.307C263.885 483.661 264.409 483.141 265.052 483.141H382.853C383.499 483.141 384.02 483.664 384.02 484.307V492.769C384.022 493.412 383.499 493.935 382.853 493.935Z" fill="white"/>
<path opacity="0.51" d="M333.903 511.534H265.05C264.404 511.534 263.883 511.011 263.883 510.368V501.906C263.883 501.261 264.406 500.74 265.05 500.74H333.903C334.549 500.74 335.07 501.263 335.07 501.906V510.368C335.072 511.011 334.549 511.534 333.903 511.534Z" fill="white"/>
<g opacity="0.51">
<path opacity="0.51" d="M327.287 425.655H325.457C324.549 425.655 323.812 424.917 323.812 424.009V417.754C323.812 415.515 321.997 413.7 319.758 413.7H308.419C306.18 413.7 304.365 415.515 304.365 417.754V424.009C304.365 424.917 303.628 425.655 302.719 425.655H300.89C299.981 425.655 299.244 424.917 299.244 424.009V417.754C299.244 412.687 303.352 408.579 308.419 408.579H319.758C324.825 408.579 328.933 412.687 328.933 417.754V424.009C328.933 424.917 328.198 425.655 327.287 425.655Z" fill="white"/>
<path opacity="0.51" d="M329.557 427.13H298.622C296.727 427.13 295.19 428.667 295.19 430.562V454.302C295.19 456.198 296.727 457.734 298.622 457.734H329.557C331.452 457.734 332.989 456.198 332.989 454.302V430.562C332.989 428.669 331.452 427.13 329.557 427.13ZM318.515 450.076C318.708 450.875 318.101 451.645 317.278 451.645H310.901C310.078 451.645 309.471 450.877 309.664 450.076L311.152 443.88C309.395 442.829 308.246 440.866 308.364 438.645C308.515 435.767 310.848 433.412 313.724 433.232C317.057 433.024 319.824 435.666 319.824 438.955C319.824 441.048 318.701 442.88 317.027 443.88L318.515 450.076Z" fill="white"/>
</g>
<path d="M417.334 148.498C417.214 148.498 417.091 148.47 416.977 148.406C416.621 148.209 416.494 147.76 416.691 147.404C417.166 146.55 417.625 145.692 418.072 144.825C418.258 144.464 418.702 144.324 419.065 144.508C419.426 144.694 419.569 145.138 419.383 145.502C418.93 146.379 418.461 147.253 417.982 148.117C417.844 148.362 417.592 148.498 417.334 148.498Z" fill="#91B3FA"/>
<path d="M331.137 199.232C330.701 199.232 330.268 199.229 329.833 199.223C329.425 199.216 329.102 198.884 329.106 198.477C329.112 198.074 329.441 197.75 329.843 197.75H329.854C331.761 197.776 333.685 197.743 335.589 197.658C335.967 197.632 336.339 197.953 336.357 198.361C336.377 198.768 336.062 199.111 335.654 199.129C334.155 199.199 332.636 199.232 331.137 199.232ZM320.474 198.658C320.447 198.658 320.421 198.656 320.395 198.654C318.471 198.446 316.53 198.179 314.63 197.859C314.229 197.792 313.958 197.411 314.026 197.01C314.094 196.61 314.475 196.336 314.875 196.404C316.749 196.719 318.659 196.982 320.557 197.187C320.962 197.231 321.255 197.595 321.211 197.999C321.163 198.378 320.844 198.658 320.474 198.658ZM344.965 198.262C344.604 198.262 344.289 197.995 344.236 197.627C344.179 197.225 344.459 196.853 344.862 196.796C346.749 196.531 348.651 196.205 350.516 195.828C350.91 195.749 351.303 196.008 351.384 196.406C351.463 196.804 351.205 197.194 350.807 197.273C348.913 197.654 346.983 197.984 345.068 198.253C345.033 198.26 344.998 198.262 344.965 198.262ZM305.578 195.881C305.514 195.881 305.451 195.872 305.387 195.855C303.52 195.356 301.645 194.795 299.81 194.189C299.423 194.062 299.215 193.644 299.342 193.259C299.469 192.874 299.885 192.663 300.272 192.79C302.078 193.388 303.925 193.939 305.766 194.432C306.16 194.537 306.392 194.94 306.287 195.334C306.199 195.664 305.902 195.881 305.578 195.881ZM359.765 194.999C359.448 194.999 359.156 194.793 359.06 194.476C358.942 194.086 359.163 193.675 359.553 193.556C361.378 193.003 363.208 192.39 364.989 191.733C365.37 191.593 365.795 191.788 365.935 192.171C366.075 192.554 365.88 192.976 365.497 193.117C363.687 193.784 361.831 194.406 359.977 194.968C359.907 194.99 359.835 194.999 359.765 194.999ZM291.281 190.856C291.183 190.856 291.082 190.836 290.986 190.792C289.215 190.011 287.447 189.168 285.733 188.288C285.372 188.102 285.229 187.658 285.413 187.297C285.599 186.936 286.041 186.793 286.405 186.977C288.094 187.844 289.834 188.673 291.579 189.444C291.951 189.608 292.119 190.044 291.955 190.416C291.835 190.691 291.563 190.856 291.281 190.856ZM373.886 189.496C373.613 189.496 373.348 189.343 373.221 189.078C373.044 188.713 373.199 188.271 373.565 188.096C375.278 187.271 376.992 186.382 378.658 185.454C379.014 185.257 379.461 185.384 379.66 185.741C379.857 186.095 379.73 186.546 379.373 186.743C377.684 187.684 375.944 188.586 374.204 189.424C374.101 189.475 373.993 189.496 373.886 189.496ZM277.935 183.692C277.799 183.692 277.661 183.655 277.538 183.576C275.912 182.532 274.295 181.427 272.734 180.291C272.406 180.052 272.334 179.59 272.572 179.262C272.813 178.934 273.273 178.862 273.601 179.1C275.137 180.219 276.729 181.306 278.333 182.335C278.674 182.554 278.775 183.011 278.556 183.353C278.414 183.572 278.178 183.692 277.935 183.692ZM386.99 181.88C386.756 181.88 386.526 181.768 386.384 181.562C386.152 181.228 386.237 180.768 386.572 180.536C388.139 179.455 389.697 178.312 391.199 177.141C391.52 176.892 391.982 176.949 392.234 177.27C392.483 177.592 392.427 178.054 392.105 178.306C390.579 179.494 389.001 180.652 387.41 181.751C387.279 181.838 387.132 181.88 386.99 181.88ZM265.853 174.554C265.678 174.554 265.505 174.493 265.365 174.37C263.923 173.094 262.496 171.755 261.121 170.387C260.832 170.1 260.832 169.634 261.119 169.345C261.406 169.056 261.872 169.056 262.161 169.343C263.513 170.689 264.921 172.009 266.343 173.267C266.648 173.537 266.676 174.003 266.407 174.307C266.26 174.471 266.057 174.554 265.853 174.554ZM398.778 172.344C398.583 172.344 398.386 172.265 398.242 172.112C397.962 171.816 397.977 171.35 398.272 171.07C399.66 169.761 401.024 168.398 402.328 167.016C402.608 166.721 403.074 166.708 403.37 166.986C403.665 167.266 403.679 167.732 403.401 168.028C402.076 169.431 400.691 170.814 399.284 172.142C399.141 172.276 398.958 172.344 398.778 172.344ZM255.301 163.677C255.089 163.677 254.881 163.587 254.735 163.412C253.5 161.93 252.292 160.389 251.141 158.833C250.9 158.505 250.968 158.045 251.296 157.802C251.627 157.561 252.086 157.631 252.327 157.958C253.459 159.492 254.651 161.009 255.868 162.471C256.129 162.784 256.087 163.248 255.774 163.508C255.636 163.62 255.468 163.677 255.301 163.677ZM408.975 161.138C408.818 161.138 408.658 161.087 408.524 160.982C408.203 160.733 408.146 160.269 408.395 159.949C409.568 158.441 410.709 156.885 411.783 155.322C412.015 154.987 412.475 154.902 412.808 155.132C413.142 155.364 413.228 155.821 412.998 156.156C411.906 157.743 410.75 159.323 409.557 160.853C409.413 161.039 409.196 161.138 408.975 161.138ZM246.523 151.324C246.273 151.324 246.028 151.197 245.89 150.967C244.892 149.303 243.933 147.596 243.041 145.889C242.852 145.528 242.992 145.084 243.353 144.895C243.712 144.707 244.159 144.847 244.347 145.208C245.225 146.889 246.168 148.57 247.153 150.21C247.363 150.558 247.249 151.011 246.901 151.221C246.783 151.289 246.652 151.324 246.523 151.324ZM239.749 137.767C239.458 137.767 239.182 137.594 239.066 137.307C238.337 135.513 237.654 133.676 237.037 131.851C236.906 131.466 237.114 131.048 237.499 130.916C237.882 130.785 238.302 130.993 238.433 131.378C239.042 133.175 239.714 134.983 240.434 136.751C240.587 137.128 240.405 137.559 240.029 137.712C239.935 137.749 239.841 137.767 239.749 137.767Z" fill="#91B3FA"/>
<path d="M235.139 123.287C234.805 123.287 234.503 123.057 234.424 122.718C234.198 121.752 233.986 120.787 233.789 119.818C233.708 119.419 233.966 119.03 234.365 118.949C234.763 118.868 235.153 119.124 235.234 119.524C235.428 120.479 235.636 121.431 235.86 122.381C235.951 122.777 235.706 123.173 235.31 123.267C235.251 123.28 235.194 123.287 235.139 123.287Z" fill="#91B3FA"/>
<path d="M247.633 48.1471C247.499 48.1471 247.363 48.1099 247.241 48.0333C246.897 47.8166 246.794 47.3613 247.011 47.0177C247.536 46.1838 248.077 45.3543 248.628 44.5314C248.856 44.1943 249.313 44.1024 249.651 44.33C249.99 44.5576 250.077 45.0151 249.852 45.3521C249.307 46.1641 248.775 46.9805 248.256 47.8035C248.116 48.0245 247.875 48.1471 247.633 48.1471Z" fill="#91B3FA"/>
<path d="M425.716 72.831C425.397 72.831 425.104 72.6231 425.01 72.3013C424.447 70.3819 423.817 68.4536 423.136 66.5714C422.998 66.1884 423.195 65.7659 423.578 65.6281C423.959 65.488 424.384 65.6872 424.521 66.0702C425.213 67.9809 425.852 69.9376 426.426 71.8877C426.539 72.2795 426.316 72.6887 425.924 72.8026C425.854 72.8201 425.784 72.831 425.716 72.831ZM420.006 57.9567C419.73 57.9567 419.468 57.8035 419.341 57.5387C418.472 55.7309 417.537 53.9318 416.561 52.1874C416.362 51.8328 416.489 51.3841 416.846 51.185C417.2 50.988 417.651 51.1127 417.848 51.4695C418.837 53.2379 419.787 55.0655 420.669 56.9018C420.847 57.2695 420.691 57.7094 420.326 57.8845C420.223 57.9349 420.113 57.9567 420.006 57.9567ZM411.961 44.2075C411.729 44.2075 411.499 44.098 411.357 43.8923C410.21 42.2552 408.997 40.629 407.75 39.0619C407.496 38.7423 407.548 38.2805 407.868 38.0266C408.187 37.7727 408.649 37.8253 408.903 38.1448C410.17 39.7382 411.402 41.3863 412.565 43.0497C412.799 43.3823 412.718 43.842 412.383 44.0761C412.254 44.1637 412.105 44.2075 411.961 44.2075ZM255.151 37.7749C254.984 37.7749 254.818 37.7202 254.68 37.6042C254.367 37.3438 254.323 36.8798 254.584 36.5668C255.877 35.0106 257.239 33.4654 258.635 31.9793C258.913 31.6817 259.379 31.6685 259.677 31.9465C259.972 32.2266 259.987 32.6928 259.71 32.9883C258.335 34.4525 256.991 35.9737 255.717 37.5079C255.573 37.6852 255.363 37.7749 255.151 37.7749ZM401.805 31.929C401.613 31.929 401.42 31.8546 401.275 31.7057C399.888 30.2743 398.432 28.8626 396.948 27.5122C396.649 27.2386 396.627 26.7724 396.9 26.4704C397.174 26.1684 397.642 26.1465 397.942 26.4223C399.448 27.7946 400.925 29.2281 402.333 30.6792C402.617 30.9703 402.608 31.4387 402.317 31.721C402.175 31.8611 401.991 31.929 401.805 31.929ZM266.276 26.3719C266.07 26.3719 265.866 26.2866 265.722 26.1202C265.455 25.8138 265.485 25.3476 265.792 25.0806C267.326 23.7411 268.917 22.4345 270.524 21.1935C270.848 20.9462 271.31 21.0053 271.557 21.327C271.804 21.6488 271.745 22.1127 271.423 22.3601C269.841 23.5813 268.272 24.8683 266.761 26.1881C266.621 26.3128 266.448 26.3719 266.276 26.3719ZM389.831 21.4299C389.678 21.4299 389.524 21.3817 389.391 21.2854C387.784 20.0926 386.121 18.9348 384.445 17.8426C384.103 17.6216 384.007 17.1641 384.23 16.8227C384.451 16.4813 384.906 16.385 385.25 16.6082C386.951 17.7157 388.64 18.891 390.271 20.1035C390.597 20.3465 390.665 20.8083 390.422 21.1344C390.28 21.327 390.056 21.4299 389.831 21.4299ZM279.079 16.884C278.834 16.884 278.593 16.7614 278.453 16.536C278.239 16.1902 278.344 15.7371 278.69 15.5204C280.412 14.448 282.194 13.4127 283.984 12.4454C284.343 12.2506 284.79 12.3863 284.982 12.743C285.175 13.102 285.041 13.5484 284.685 13.741C282.92 14.6931 281.165 15.713 279.467 16.768C279.349 16.8468 279.213 16.884 279.079 16.884ZM376.318 13.0035C376.204 13.0035 376.088 12.9772 375.981 12.9225C374.204 12.0054 372.374 11.1343 370.542 10.3267C370.17 10.1626 369.999 9.7292 370.163 9.35494C370.325 8.98286 370.761 8.81214 371.135 8.97629C372.996 9.79267 374.854 10.6791 376.657 11.6093C377.018 11.7953 377.161 12.2396 376.975 12.6007C376.843 12.8568 376.585 13.0035 376.318 13.0035ZM293.247 9.58694C292.958 9.58694 292.684 9.41622 292.566 9.13388C292.411 8.75743 292.588 8.32626 292.964 8.17086C294.836 7.39388 296.762 6.66068 298.688 5.99751C299.075 5.86618 299.493 6.06973 299.624 6.45275C299.756 6.83795 299.552 7.25818 299.169 7.3895C297.272 8.04392 295.376 8.76399 293.531 9.53003C293.437 9.56943 293.341 9.58694 293.247 9.58694ZM361.617 6.87516C361.542 6.87516 361.466 6.86422 361.389 6.84014C359.487 6.22293 357.539 5.65826 355.6 5.15924C355.206 5.05856 354.967 4.65584 355.07 4.26188C355.171 3.86792 355.58 3.63154 355.968 3.73222C357.935 4.23999 359.914 4.81343 361.844 5.43939C362.232 5.56414 362.444 5.98 362.317 6.36739C362.218 6.67818 361.927 6.87516 361.617 6.87516ZM308.405 4.68648C308.071 4.68648 307.769 4.45667 307.69 4.11962C307.598 3.72346 307.843 3.32732 308.239 3.2332C310.22 2.76701 312.24 2.35554 314.238 2.01411C314.648 1.94845 315.02 2.21547 315.09 2.61599C315.16 3.01652 314.888 3.39736 314.488 3.46739C312.518 3.80445 310.531 4.20935 308.578 4.66898C308.519 4.67992 308.462 4.68648 308.405 4.68648ZM346.119 3.20037C346.081 3.20037 346.044 3.19818 346.007 3.19162C344.028 2.88739 342.015 2.64226 340.021 2.4606C339.616 2.42339 339.316 2.06445 339.353 1.65954C339.391 1.25464 339.741 0.954783 340.154 0.991991C342.177 1.17584 344.221 1.42535 346.228 1.73396C346.631 1.79524 346.906 2.17169 346.845 2.57441C346.79 2.93992 346.478 3.20037 346.119 3.20037ZM324.157 2.29645C323.774 2.29645 323.45 1.99879 323.424 1.61139C323.396 1.2043 323.702 0.85192 324.107 0.825656C326.129 0.683392 328.187 0.602409 330.222 0.5849H330.229C330.634 0.5849 330.962 0.911012 330.966 1.31592C330.971 1.72301 330.642 2.05569 330.235 2.06007C328.231 2.07758 326.204 2.15637 324.212 2.29645C324.192 2.29645 324.175 2.29645 324.157 2.29645Z" fill="#91B3FA"/>
<path d="M428.518 85.3765C428.161 85.3765 427.848 85.1161 427.791 84.7528C427.643 83.7897 427.478 82.8311 427.297 81.8703C427.222 81.4697 427.485 81.0845 427.886 81.0101C428.284 80.9401 428.671 81.2005 428.746 81.5989C428.927 82.5728 429.094 83.5468 429.247 84.5229C429.31 84.9257 429.035 85.3021 428.632 85.3656C428.595 85.3722 428.555 85.3765 428.518 85.3765Z" fill="#91B3FA"/>
<path d="M406.815 97.7054C406.854 97.202 406.57 96.7292 406.106 96.5279L392.897 90.7891C391.877 84.1421 389.789 77.6089 386.607 71.4609L393.895 59.0511C394.151 58.6156 394.103 58.0662 393.775 57.6832L382.547 44.5555C382.219 44.1725 381.682 44.0389 381.214 44.2228L367.824 49.5019C362.243 45.4069 356.112 42.3318 349.704 40.2941L346.081 26.3566C345.954 25.8685 345.532 25.514 345.029 25.4746L327.806 24.1329C327.302 24.0935 326.83 24.378 326.628 24.842L320.89 38.0507C314.243 39.0706 307.709 41.1586 301.561 44.341L289.152 37.0505C288.716 36.7944 288.167 36.8426 287.784 37.1709L274.656 48.401C274.273 48.7293 274.139 49.2655 274.323 49.7339L279.602 63.122C275.507 68.7032 272.432 74.8315 270.395 81.2421L256.455 84.8644C255.967 84.9913 255.612 85.4137 255.573 85.9171L254.231 103.14C254.192 103.643 254.476 104.116 254.94 104.317L268.149 110.056C269.169 116.703 271.257 123.236 274.439 129.384L267.149 141.794C266.893 142.23 266.941 142.779 267.269 143.162L278.499 156.29C278.828 156.673 279.364 156.806 279.832 156.62L293.22 151.341C298.801 155.436 304.932 158.511 311.34 160.549L314.963 174.486C315.09 174.975 315.512 175.329 316.015 175.368L333.238 176.71C333.742 176.75 334.214 176.465 334.416 176.001L340.154 162.792C346.801 161.772 353.335 159.684 359.483 156.502L371.892 163.793C372.328 164.049 372.877 164 373.26 163.672L386.388 152.442C386.771 152.114 386.905 151.58 386.721 151.109L381.442 137.721C385.537 132.14 388.61 126.009 390.649 119.601L404.587 115.979C405.075 115.852 405.43 115.429 405.469 114.926L406.815 97.7054Z" fill="#91B3FA"/>
<path opacity="0.7" d="M330.489 116.872C327.116 116.872 323.833 115.834 321.025 113.847C313.623 108.609 311.863 98.3269 317.101 90.9248C319.638 87.3398 323.42 84.9563 327.749 84.2165C332.078 83.4768 336.438 84.466 340.021 87.0027C343.606 89.5416 345.989 93.3214 346.729 97.6506C347.471 101.98 346.482 106.34 343.943 109.925C341.406 113.51 337.624 115.893 333.295 116.633C332.363 116.793 331.421 116.872 330.489 116.872ZM330.555 86.1863C329.747 86.1863 328.935 86.2564 328.123 86.3943C324.376 87.0356 321.102 89.0973 318.907 92.2008C314.372 98.6071 315.895 107.508 322.301 112.041C325.405 114.239 329.176 115.092 332.925 114.453C336.672 113.812 339.944 111.75 342.142 108.647C344.339 105.543 345.195 101.77 344.554 98.0227C343.912 94.2757 341.848 91.0014 338.745 88.8062C336.315 87.0859 333.474 86.1863 330.555 86.1863Z" fill="white"/>
<path opacity="0.7" d="M330.227 143.217C329.099 143.217 327.97 143.173 326.834 143.085C315.44 142.199 305.072 136.927 297.644 128.24C290.953 120.419 287.368 110.675 287.368 100.496C287.368 99.3688 287.412 98.2372 287.499 97.1035C288.388 85.7092 293.658 75.3414 302.345 67.9131C311.03 60.4847 322.087 56.8821 333.483 57.7685C344.878 58.6549 355.245 63.9275 362.674 72.6143C364.657 74.9321 366.392 77.4601 367.833 80.1215L365.889 81.1721C364.525 78.6463 362.877 76.2497 360.995 74.0501C353.95 65.8141 344.118 60.813 333.313 59.9725C322.507 59.1386 312.019 62.5486 303.783 69.5918C295.547 76.6371 290.548 86.4687 289.705 97.2742C289.622 98.351 289.581 99.4235 289.581 100.492C289.581 110.146 292.982 119.386 299.327 126.804C306.372 135.04 316.204 140.039 327.009 140.881C337.824 141.724 348.303 138.308 356.539 131.262C362.129 126.48 366.311 120.286 368.634 113.348L370.73 114.05C368.281 121.367 363.871 127.9 357.975 132.943C350.152 139.63 340.408 143.217 330.227 143.217Z" fill="white"/>
<path d="M500.445 172.685C500.318 172.685 500.188 172.652 500.07 172.582C499.72 172.374 499.604 171.923 499.812 171.573C500.307 170.737 500.782 169.884 501.219 169.034C501.405 168.673 501.85 168.533 502.213 168.717C502.574 168.903 502.716 169.347 502.53 169.711C502.079 170.584 501.591 171.464 501.081 172.324C500.944 172.558 500.698 172.685 500.445 172.685Z" fill="#91B3FA"/>
<path d="M452.889 197.347C452.869 197.347 452.849 197.347 452.83 197.345C450.832 197.187 448.822 196.912 446.863 196.524C446.465 196.445 446.205 196.058 446.283 195.657C446.362 195.259 446.752 194.999 447.15 195.077C449.057 195.454 451.007 195.723 452.948 195.876C453.353 195.909 453.657 196.264 453.624 196.669C453.594 197.054 453.27 197.347 452.889 197.347ZM462.526 197.192C462.156 197.192 461.836 196.914 461.795 196.537C461.749 196.132 462.04 195.769 462.445 195.723C464.384 195.506 466.325 195.174 468.212 194.734C468.606 194.638 469.004 194.887 469.096 195.285C469.188 195.682 468.943 196.078 468.545 196.17C466.601 196.623 464.603 196.964 462.607 197.19C462.58 197.19 462.554 197.192 462.526 197.192ZM437.77 193.777C437.678 193.777 437.583 193.76 437.492 193.723C435.64 192.97 433.81 192.099 432.055 191.131C431.698 190.934 431.569 190.486 431.766 190.131C431.963 189.774 432.409 189.645 432.766 189.842C434.471 190.781 436.248 191.628 438.047 192.359C438.424 192.512 438.606 192.943 438.452 193.32C438.334 193.604 438.058 193.777 437.77 193.777ZM477.52 193.116C477.238 193.116 476.969 192.954 476.846 192.681C476.68 192.309 476.846 191.873 477.218 191.707C478.996 190.912 480.742 190.004 482.412 189.008C482.76 188.798 483.213 188.914 483.423 189.262C483.631 189.612 483.517 190.063 483.169 190.273C481.451 191.3 479.65 192.234 477.822 193.053C477.722 193.097 477.619 193.116 477.52 193.116ZM424.456 185.782C424.289 185.782 424.121 185.725 423.985 185.611C422.453 184.333 420.976 182.946 419.595 181.488C419.315 181.192 419.328 180.726 419.621 180.446C419.916 180.166 420.383 180.179 420.663 180.472C422.004 181.888 423.44 183.235 424.929 184.478C425.241 184.738 425.283 185.202 425.023 185.515C424.876 185.692 424.668 185.782 424.456 185.782ZM490.558 184.67C490.357 184.67 490.153 184.587 490.009 184.425C489.738 184.121 489.764 183.655 490.068 183.386L490.501 182.994C491.797 181.812 493.045 180.549 494.207 179.245C494.476 178.938 494.942 178.912 495.246 179.183C495.551 179.455 495.579 179.919 495.308 180.223C494.113 181.567 492.83 182.867 491.495 184.084L491.051 184.484C490.908 184.609 490.733 184.67 490.558 184.67ZM414.184 174.13C413.941 174.13 413.703 174.009 413.563 173.79C412.484 172.105 411.492 170.337 410.617 168.533C410.439 168.168 410.593 167.726 410.958 167.548C411.326 167.371 411.766 167.524 411.943 167.89C412.792 169.641 413.755 171.359 414.804 172.996C415.023 173.337 414.924 173.795 414.58 174.014C414.456 174.092 414.32 174.13 414.184 174.13Z" fill="#91B3FA"/>
<path d="M407.916 159.884C407.59 159.884 407.292 159.665 407.205 159.334C406.951 158.376 406.721 157.397 406.524 156.425C406.443 156.027 406.699 155.638 407.1 155.557C407.498 155.476 407.887 155.732 407.968 156.132C408.161 157.075 408.384 158.028 408.629 158.958C408.734 159.352 408.5 159.754 408.106 159.859C408.043 159.875 407.979 159.884 407.916 159.884Z" fill="#91B3FA"/>
<path d="M413.985 119.894C413.852 119.894 413.716 119.857 413.593 119.78C413.25 119.564 413.147 119.108 413.363 118.765C413.893 117.924 414.453 117.09 415.029 116.283C415.265 115.952 415.727 115.876 416.055 116.112C416.388 116.349 416.463 116.808 416.226 117.139C415.666 117.922 415.121 118.734 414.607 119.551C414.469 119.774 414.23 119.894 413.985 119.894Z" fill="#91B3FA"/>
<path d="M503.493 127.06C503.207 127.06 502.935 126.891 502.815 126.611C502.069 124.852 501.208 123.116 500.261 121.453C500.059 121.1 500.184 120.649 500.536 120.448C500.889 120.247 501.34 120.369 501.541 120.724C502.517 122.435 503.401 124.223 504.172 126.036C504.332 126.41 504.157 126.843 503.78 127.003C503.688 127.042 503.59 127.06 503.493 127.06ZM495.452 114.061C495.244 114.061 495.036 113.974 494.892 113.803C494.515 113.361 494.13 112.925 493.736 112.492C492.837 111.507 491.889 110.546 490.915 109.636C490.617 109.358 490.602 108.892 490.88 108.594C491.158 108.296 491.624 108.281 491.922 108.559C492.922 109.496 493.898 110.483 494.824 111.498C495.229 111.943 495.627 112.391 496.012 112.847C496.275 113.157 496.238 113.621 495.929 113.886C495.791 114.004 495.623 114.061 495.452 114.061ZM421.842 110.282C421.648 110.282 421.453 110.205 421.308 110.054C421.028 109.758 421.039 109.292 421.333 109.012C421.63 108.728 421.932 108.445 422.239 108.167C423.39 107.117 424.602 106.108 425.841 105.167C426.165 104.919 426.627 104.983 426.872 105.307C427.119 105.631 427.056 106.092 426.732 106.338C425.528 107.252 424.351 108.233 423.232 109.253C422.935 109.524 422.641 109.8 422.35 110.076C422.208 110.214 422.026 110.282 421.842 110.282ZM483.918 104.033C483.784 104.033 483.646 103.996 483.524 103.919C481.906 102.897 480.212 101.958 478.49 101.131C478.122 100.953 477.969 100.516 478.144 100.148C478.319 99.7802 478.757 99.6248 479.127 99.8021C480.9 100.654 482.644 101.619 484.31 102.671C484.653 102.89 484.756 103.343 484.539 103.689C484.402 103.912 484.161 104.033 483.918 104.033ZM434.346 101.487C434.075 101.487 433.815 101.339 433.685 101.078C433.504 100.713 433.653 100.271 434.018 100.091C435.778 99.2156 437.614 98.4342 439.47 97.7645C439.855 97.6288 440.276 97.8257 440.413 98.2088C440.551 98.5918 440.352 99.0142 439.969 99.1521C438.163 99.8021 436.382 100.562 434.673 101.411C434.567 101.463 434.456 101.487 434.346 101.487ZM469.915 97.922C469.851 97.922 469.788 97.9133 469.724 97.898C467.877 97.4077 465.979 97.0181 464.084 96.7424C463.681 96.6833 463.401 96.309 463.46 95.9085C463.519 95.5057 463.889 95.2168 464.294 95.2847C466.244 95.5692 468.197 95.9675 470.101 96.4731C470.492 96.5782 470.729 96.9809 470.624 97.3749C470.538 97.7032 470.241 97.922 469.915 97.922ZM448.905 96.843C448.549 96.843 448.236 96.5848 448.179 96.2214C448.115 95.8187 448.389 95.4423 448.792 95.3788C450.733 95.0724 452.716 94.8732 454.69 94.79C455.097 94.7813 455.441 95.0877 455.456 95.4948C455.474 95.9019 455.159 96.2455 454.751 96.2608C452.834 96.3418 450.908 96.5344 449.021 96.8321C448.982 96.8408 448.943 96.843 448.905 96.843Z" fill="#91B3FA"/>
<path d="M506.903 139.019C506.547 139.019 506.234 138.758 506.177 138.395C506.028 137.443 505.851 136.482 505.647 135.541C505.562 135.143 505.813 134.751 506.212 134.666C506.617 134.58 507.002 134.834 507.087 135.23C507.295 136.2 507.479 137.189 507.632 138.167C507.696 138.57 507.42 138.947 507.017 139.01C506.98 139.014 506.941 139.019 506.903 139.019Z" fill="#91B3FA"/>
<path d="M495.756 144.994C495.776 144.736 495.631 144.493 495.393 144.39L488.608 141.442C488.085 138.027 487.012 134.67 485.378 131.514L489.122 125.138C489.254 124.915 489.23 124.633 489.061 124.436L483.294 117.692C483.125 117.495 482.85 117.428 482.609 117.522L475.732 120.233C472.865 118.13 469.718 116.55 466.424 115.504L464.563 108.344C464.498 108.093 464.281 107.911 464.023 107.891L455.176 107.202C454.918 107.182 454.675 107.329 454.572 107.565L451.624 114.35C448.209 114.873 444.852 115.948 441.696 117.581L435.32 113.836C435.097 113.705 434.815 113.729 434.618 113.897L427.874 119.667C427.677 119.835 427.61 120.111 427.704 120.352L430.415 127.228C428.312 130.096 426.732 133.243 425.686 136.537L418.527 138.397C418.275 138.463 418.093 138.68 418.074 138.938L417.384 147.785C417.364 148.043 417.511 148.286 417.747 148.389L424.532 151.337C425.055 154.751 426.13 158.109 427.763 161.265L424.018 167.64C423.887 167.863 423.911 168.146 424.079 168.343L429.849 175.086C430.017 175.283 430.293 175.351 430.534 175.257L437.41 172.545C440.278 174.648 443.427 176.229 446.719 177.275L448.579 184.434C448.645 184.686 448.862 184.867 449.12 184.887L457.967 185.576C458.225 185.596 458.468 185.45 458.571 185.213L461.519 178.428C464.933 177.903 468.291 176.83 471.447 175.198L477.822 178.943C478.046 179.074 478.328 179.05 478.525 178.881L485.268 173.114C485.465 172.946 485.533 172.67 485.439 172.429L482.727 165.552C484.83 162.685 486.411 159.538 487.457 156.244L494.616 154.383C494.868 154.318 495.049 154.101 495.069 153.843L495.756 144.994Z" fill="#91B3FA"/>
<path opacity="0.7" d="M456.548 155.377C454.705 155.377 452.911 154.81 451.376 153.725C447.332 150.862 446.371 145.243 449.231 141.201C450.619 139.242 452.685 137.94 455.049 137.535C457.415 137.13 459.796 137.671 461.755 139.056C463.714 140.444 465.016 142.508 465.421 144.874C465.826 147.24 465.286 149.621 463.9 151.58C462.512 153.539 460.448 154.841 458.082 155.246C457.57 155.333 457.058 155.377 456.548 155.377ZM456.577 139.619C454.451 139.619 452.357 140.614 451.037 142.477C448.879 145.526 449.604 149.763 452.652 151.919C454.13 152.965 455.929 153.372 457.708 153.066C459.492 152.762 461.05 151.779 462.094 150.304C463.141 148.826 463.548 147.029 463.241 145.248C462.937 143.464 461.954 141.906 460.479 140.862C459.295 140.021 457.929 139.619 456.577 139.619Z" fill="white"/>
<path opacity="0.7" d="M456.415 168.91C455.822 168.91 455.226 168.886 454.629 168.84C448.632 168.373 443.178 165.598 439.267 161.028C435.642 156.793 433.869 151.588 433.872 146.406C433.872 140.048 436.542 133.727 441.742 129.279C451.177 121.207 465.419 122.317 473.489 131.752C473.552 131.827 473.616 131.901 473.677 131.976C474.552 133.026 475.332 134.153 475.997 135.333C475.999 135.338 476.004 135.342 476.006 135.346C476.017 135.364 476.025 135.381 476.034 135.399C476.052 135.429 476.069 135.46 476.087 135.491C476.096 135.508 476.106 135.526 476.115 135.541C476.144 135.594 476.174 135.648 476.203 135.701L474.259 136.751C473.576 135.489 472.753 134.289 471.81 133.186C466.656 127.163 458.713 124.904 451.495 126.679C448.518 127.412 445.664 128.831 443.178 130.956C438.49 134.968 436.082 140.667 436.08 146.401C436.08 151.074 437.68 155.769 440.945 159.588C448.223 168.095 461.068 169.098 469.578 161.818C472.375 159.426 474.467 156.325 475.629 152.853L477.726 153.556C476.437 157.408 474.117 160.844 471.013 163.497C466.901 167.021 461.773 168.91 456.415 168.91Z" fill="white"/>
<path d="M312.932 247.963C314.748 246.262 317.204 245.415 319.684 245.638C346.204 248.024 395.686 235.249 428.026 202.16C430.271 199.862 434.364 201.162 436.938 203.084C472.904 229.965 532.522 235.531 553.216 236.669C557.497 236.905 560.97 240.226 561.413 244.491C580.233 426.27 461.878 492.14 437.332 503.769C434.649 505.04 431.49 504.854 428.969 503.285C306.628 427.08 311.861 327.978 310.17 254.548C310.113 252.06 311.115 249.665 312.932 247.963Z" fill="#EA7B00"/>
<path opacity="0.61" d="M434.023 490.565C433.475 490.565 432.93 490.411 432.453 490.107C385.55 460.124 354.981 424.28 338.999 380.524C324.724 341.445 324.026 301.653 323.409 266.547L323.326 261.865C323.31 261.084 323.606 260.348 324.151 259.79C324.702 259.23 325.442 258.919 326.232 258.919H326.235C355.28 258.919 398.879 246.093 430.856 217.441C431.836 216.562 433.289 216.457 434.392 217.185C469.527 240.497 519.644 247.286 546.392 249.258C547.814 249.363 548.937 250.473 549.064 251.898C555.282 322.826 540.528 382.803 505.216 430.164C478.842 465.535 447.568 483.963 435.347 490.247C434.929 490.459 434.476 490.565 434.023 490.565ZM434.797 489.188L435.069 489.718L434.797 489.188C446.945 482.944 478.033 464.624 504.257 429.452C539.39 382.332 554.065 322.629 547.873 252.003C547.799 251.165 547.138 250.51 546.302 250.447C519.438 248.466 469.092 241.642 433.731 218.179C433.084 217.748 432.226 217.811 431.648 218.33C399.437 247.192 355.506 260.112 326.256 260.112C325.762 260.112 325.324 260.294 325 260.626C324.678 260.952 324.508 261.386 324.516 261.843L324.6 266.525C325.215 301.539 325.911 341.227 340.117 380.117C356.007 423.617 386.421 459.266 433.095 489.102C433.607 489.431 434.259 489.464 434.797 489.188Z" fill="white"/>
<path opacity="0.61" d="M476.787 316.582H471.254C468.507 316.582 466.279 314.356 466.279 311.607V292.697C466.279 285.927 460.792 280.44 454.023 280.44H419.741C412.972 280.44 407.485 285.927 407.485 292.697V311.607C407.485 314.354 405.259 316.582 402.51 316.582H396.977C394.23 316.582 392.002 314.356 392.002 311.607V292.697C392.002 277.378 404.421 264.96 419.739 264.96H454.02C469.339 264.96 481.758 277.378 481.758 292.697V311.607C481.76 314.356 479.534 316.582 476.787 316.582Z" fill="white"/>
<path opacity="0.61" d="M483.644 321.045H390.124C384.394 321.045 379.748 325.691 379.748 331.421V403.195C379.748 408.925 384.394 413.571 390.124 413.571H483.644C489.374 413.571 494.021 408.925 494.021 403.195V331.421C494.021 325.691 489.374 321.045 483.644 321.045ZM450.265 390.415C450.845 392.833 449.013 395.158 446.526 395.158H427.242C424.756 395.158 422.924 392.833 423.504 390.415L428.004 371.684C422.692 368.508 419.218 362.573 419.575 355.856C420.035 347.156 427.084 340.036 435.778 339.495C445.852 338.869 454.22 346.856 454.22 356.797C454.22 363.124 450.827 368.657 445.765 371.684L450.265 390.415Z" fill="white"/>
<path d="M78.406 297.582C78.406 297.582 85.981 297.983 86.909 313.566C86.909 313.566 69.3448 329.311 45.6196 333.058C43.838 333.341 48.1103 320.9 48.7516 319.215C51.8069 311.198 61.4284 306.035 78.406 297.582Z" fill="url(#paint2_linear)"/>
<path d="M163.707 279.261H147.724C147.724 279.261 98.6643 225.08 66.4885 219.615C66.4885 219.615 44.0918 248.205 67.6814 301.625C69.579 305.921 74.8865 307.832 78.8458 305.302C80.0299 304.544 80.8791 303.531 81.3956 302.261L79.4981 256.649C79.4981 256.649 121.346 293.249 128.619 300.311C135.896 307.374 172.869 303.069 163.707 279.261Z" fill="#7D97F4"/>
<path d="M9.17794 393.015C15.8753 387.145 26.5473 380.559 41.9556 378.673L47.1668 381.859C47.1668 381.859 43.8444 386.76 37.7752 391.936C32.1963 395.175 23.5838 399.564 16.4422 400.516C9.4975 401.439 8.47319 397.244 9.17794 393.015Z" fill="url(#paint3_linear)"/>
<path d="M48.7516 319.215C52.8773 320.55 54.6939 326.396 65.1645 322.531C75.2937 318.79 82.825 313.966 86.699 311.185C86.7843 311.938 86.8587 312.725 86.9091 313.566C86.9091 313.566 68.3906 331.181 44.6654 334.928C42.8838 335.21 41.4721 333.431 42.1156 331.745C43.2646 328.723 45.3417 324.137 48.7516 319.215Z" fill="#91B3FA"/>
<path d="M4.13313 398.027C5.4529 396.526 7.13819 394.803 9.17803 393.015C8.47328 397.246 9.4954 401.441 16.4401 400.516C23.5817 399.564 32.1964 395.175 37.7731 391.936C30.7825 397.898 20.1433 404.228 6.71577 403.856C3.73479 403.772 2.16113 400.266 4.13313 398.027Z" fill="#91B3FA"/>
<path d="M163.123 290.826L88.2726 291.636C88.2726 291.636 45.5277 327 37.7732 380.927C37.7732 380.927 36.4863 384.893 44.2123 385.571C44.2123 385.571 70.0563 368.692 86.9069 338.85C107.568 302.259 148.503 318.729 148.503 318.729C168.168 323.069 183.822 321.454 195.275 303.826L163.123 290.826Z" fill="#7D97F4"/>
<path d="M161.357 230.528C161.357 230.528 153.298 270.911 113.819 286.886L99.7741 285.231L96.4604 290.515L129.402 291.565C129.402 291.565 157.562 280.412 172.48 250.022C172.972 249.018 181.189 232.053 161.357 230.528Z" fill="url(#paint4_linear)"/>
<path d="M157.039 290.165C157.039 290.165 166.203 265.258 168.17 241.055C168.17 241.055 161.466 235.295 157.277 232.808C155.92 232.003 155.408 230.3 156.093 228.879C159.173 222.497 177.803 197.441 179.199 197.091C186.785 195.198 217.893 180.407 239.801 210.376C249.204 223.237 237.937 262.828 195.279 303.831C181.552 306.065 168.717 302.11 157.039 290.165Z" fill="#EA7B00"/>
<path d="M192.346 246.511C192.346 246.511 166.888 276.656 134.34 281.062C134.34 281.062 125.929 273.393 119.674 276.131C113.418 278.869 104.841 290.955 104.841 290.955H146.634C146.634 290.955 186.15 289.563 205.897 265.601C204.305 257.216 199.547 252.206 192.346 246.511Z" fill="url(#paint5_linear)"/>
<path d="M207.197 175.951L212.767 194.528C213.023 195.38 212.708 196.301 211.974 196.804C209.293 198.641 202.283 202.294 192.668 198.744C191.569 198.339 190.814 197.31 190.72 196.141L189.4 179.956L207.197 175.951Z" fill="url(#paint6_linear)"/>
<path d="M174.581 160.903C174.581 160.903 177.319 180.162 184.717 186.084C192.114 192.007 206.529 187.546 211.397 173.029L201.696 148.205L174.581 160.903Z" fill="url(#paint7_linear)"/>
<path d="M202.789 164.27C202.226 164.451 201.637 164.09 201.55 163.506C201.283 161.729 200.615 158.209 199.267 155.813C199.267 155.813 199.974 153.287 192.88 157.104C185.789 160.921 175.137 166.528 168.866 163.188C162.753 159.934 156.559 143.552 172.718 146.585C173.333 146.701 173.898 146.211 173.852 145.587C173.653 142.895 173.92 136.701 180.193 134.712C186.063 132.851 189.276 135.502 190.6 137.099C190.989 137.57 191.712 137.561 192.084 137.075C193.841 134.779 198.617 129.894 205.647 132.991C211.438 135.543 212.338 139.111 212.241 141.332C212.211 142.052 212.942 142.54 213.596 142.238C215.369 141.422 218.223 140.997 220.955 144.421C224.732 149.155 219.335 153.258 217.715 154.335C217.451 154.513 217.284 154.804 217.282 155.123C217.267 157.585 216.884 168.321 211.502 174.379C211.036 174.904 210.175 174.749 209.904 174.103L205.761 164.23C205.568 163.773 205.058 163.536 204.583 163.69L202.789 164.27Z" fill="url(#paint8_linear)"/>
<path d="M202.701 166.275C202.701 166.275 205.231 155.97 209.074 159.314C212.918 162.661 208.072 170.024 203.671 171.429L202.701 166.275Z" fill="url(#paint9_linear)"/>
<path d="M106.944 293.294L88.1807 230.716C87.4146 228.164 85.1472 226.352 82.4879 226.17L57.1539 224.436C54.5779 224.261 52.6628 226.776 53.5185 229.212L74.4949 288.974C75.1712 290.9 76.9002 292.259 78.9291 292.465L103.878 295.236L106.944 293.294Z" fill="url(#paint10_linear)"/>
<path d="M72.3388 251.926C73.7396 254.754 76.1603 256.411 77.7427 255.627C79.3251 254.844 79.4739 251.915 78.0732 249.088C76.6724 246.26 74.2539 244.603 72.6693 245.386C71.0847 246.17 70.9381 249.099 72.3388 251.926Z" fill="#91B3FA"/>
<path d="M103.878 295.234C103.919 295.234 103.959 295.234 104 295.229L157.159 292.542C158.472 292.476 159.485 291.358 159.418 290.042C159.352 288.727 158.227 287.694 156.918 287.783L103.76 290.471C102.446 290.537 101.435 291.657 101.501 292.971C101.564 294.244 102.617 295.234 103.878 295.234Z" fill="url(#paint11_linear)"/>
<path d="M168.17 241.423C167.967 241.423 167.802 241.259 167.802 241.055C167.765 229.834 172.084 214.981 172.127 214.833C172.184 214.638 172.388 214.526 172.585 214.583C172.78 214.64 172.891 214.846 172.834 215.04C172.79 215.187 168.503 229.939 168.54 241.053C168.54 241.256 168.374 241.423 168.17 241.423Z" fill="url(#paint12_linear)"/>
<path d="M192.346 246.881C192.267 246.881 192.186 246.855 192.119 246.803C191.959 246.676 191.933 246.446 192.057 246.286C192.173 246.139 203.727 231.449 207.682 221.429C207.757 221.241 207.969 221.142 208.159 221.221C208.348 221.296 208.442 221.51 208.367 221.698C204.373 231.821 192.751 246.595 192.635 246.741C192.563 246.833 192.453 246.881 192.346 246.881Z" fill="url(#paint13_linear)"/>
<path d="M208.724 269.466L206.623 266.494C206.505 266.328 206.544 266.098 206.711 265.98C206.877 265.862 207.107 265.901 207.225 266.067L208.983 268.554C225.378 261.366 235.529 241.751 235.63 241.554C235.722 241.372 235.943 241.3 236.124 241.394C236.306 241.486 236.378 241.71 236.284 241.891C236.181 242.093 225.803 262.156 208.998 269.353L208.724 269.466Z" fill="url(#paint14_linear)"/>
<defs>
<linearGradient id="paint0_linear" x1="287.103" y1="579.534" x2="208.635" y2="344.13" gradientUnits="userSpaceOnUse">
<stop stop-color="#09005D"/>
<stop offset="1" stop-color="#1A0F91"/>
</linearGradient>
<linearGradient id="paint1_linear" x1="104.532" y1="565.465" x2="453.92" y2="650.452" gradientUnits="userSpaceOnUse">
<stop stop-color="#09005D"/>
<stop offset="1" stop-color="#1A0F91"/>
</linearGradient>
<linearGradient id="paint2_linear" x1="70.7514" y1="312.394" x2="43.2925" y2="341.074" gradientUnits="userSpaceOnUse">
<stop stop-color="#09005D"/>
<stop offset="1" stop-color="#1A0F91"/>
</linearGradient>
<linearGradient id="paint3_linear" x1="34.3256" y1="384.379" x2="-17.6139" y2="422.5" gradientUnits="userSpaceOnUse">
<stop stop-color="#09005D"/>
<stop offset="1" stop-color="#1A0F91"/>
</linearGradient>
<linearGradient id="paint4_linear" x1="118.24" y1="243.493" x2="153.501" y2="285.426" gradientUnits="userSpaceOnUse">
<stop stop-color="#FEBBBA"/>
<stop offset="1" stop-color="#FF928E"/>
</linearGradient>
<linearGradient id="paint5_linear" x1="159.356" y1="281.647" x2="88.8736" y2="185.224" gradientUnits="userSpaceOnUse">
<stop stop-color="#FEBBBA"/>
<stop offset="1" stop-color="#FF928E"/>
</linearGradient>
<linearGradient id="paint6_linear" x1="202.472" y1="201.741" x2="199.876" y2="178.375" gradientUnits="userSpaceOnUse">
<stop stop-color="#FEBBBA"/>
<stop offset="1" stop-color="#FF928E"/>
</linearGradient>
<linearGradient id="paint7_linear" x1="188.625" y1="181.359" x2="200.068" y2="143.617" gradientUnits="userSpaceOnUse">
<stop stop-color="#FEBBBA"/>
<stop offset="1" stop-color="#FF928E"/>
</linearGradient>
<linearGradient id="paint8_linear" x1="198.951" y1="112.059" x2="188.312" y2="172.741" gradientUnits="userSpaceOnUse">
<stop stop-color="#09005D"/>
<stop offset="1" stop-color="#1A0F91"/>
</linearGradient>
<linearGradient id="paint9_linear" x1="200.477" y1="184.953" x2="211.92" y2="147.211" gradientUnits="userSpaceOnUse">
<stop stop-color="#FEBBBA"/>
<stop offset="1" stop-color="#FF928E"/>
</linearGradient>
<linearGradient id="paint10_linear" x1="106.945" y1="259.831" x2="53.3117" y2="259.831" gradientUnits="userSpaceOnUse">
<stop stop-color="#09005D"/>
<stop offset="1" stop-color="#1A0F91"/>
</linearGradient>
<linearGradient id="paint11_linear" x1="100.435" y1="283.276" x2="143.321" y2="295.03" gradientUnits="userSpaceOnUse">
<stop stop-color="#09005D"/>
<stop offset="1" stop-color="#1A0F91"/>
</linearGradient>
<linearGradient id="paint12_linear" x1="179.822" y1="80.8727" x2="163.244" y2="336.175" gradientUnits="userSpaceOnUse">
<stop stop-color="#E1473D"/>
<stop offset="1" stop-color="#E9605A"/>
</linearGradient>
<linearGradient id="paint13_linear" x1="210.004" y1="82.8327" x2="193.426" y2="338.135" gradientUnits="userSpaceOnUse">
<stop stop-color="#E1473D"/>
<stop offset="1" stop-color="#E9605A"/>
</linearGradient>
<linearGradient id="paint14_linear" x1="232.46" y1="84.2908" x2="215.882" y2="339.593" gradientUnits="userSpaceOnUse">
<stop stop-color="#E1473D"/>
<stop offset="1" stop-color="#E9605A"/>
</linearGradient>
</defs>
</svg>
