<svg width="95" height="95" viewBox="0 0 95 95" fill="none" xmlns="http://www.w3.org/2000/svg">
<path d="M47.4387 38.3064C47.0863 32.8822 44.8492 27.9786 41.371 24.24C39.624 22.3247 37.5553 20.7311 35.242 19.5056C32.0398 17.8199 28.3924 16.8548 24.5162 16.8548C11.8294 16.8548 1.53229 27.1519 1.53229 39.8387C1.53229 45.0175 3.2486 49.7984 6.12906 53.629C10.3278 59.2066 17.0082 62.8225 24.5162 62.8225C24.7922 62.8225 25.0676 62.8225 25.3436 62.8076H25.3586C27.9637 53.3529 36.4832 46.3508 46.6725 45.9827C47.209 44.0374 47.5 41.9687 47.5 39.8387C47.5 39.3179 47.4851 38.8122 47.4387 38.3064Z" fill="#FF5A73"/>
<path d="M59.7581 19.5056C62.9603 17.8199 66.6076 16.8548 70.4839 16.8548C83.1707 16.8548 93.4678 27.1519 93.4678 39.8387C93.4678 45.0175 91.7515 49.7984 88.871 53.629C84.6722 59.2066 77.9918 62.8225 70.4839 62.8225C70.2078 62.8225 69.9168 62.8225 69.6415 62.8076C66.96 53.1083 58.0575 45.9677 47.5 45.9677C47.2239 45.9677 46.9486 45.9677 46.6725 45.9827C47.209 44.0374 47.5 41.9687 47.5 39.8387C47.5 33.8166 49.8134 28.3318 53.6291 24.24C55.376 22.3247 57.4447 20.7311 59.7581 19.5056Z" fill="#B4DD7F"/>
<path d="M70.4839 26.0484L79.6774 39.8387L70.4839 42.9032V26.0484Z" fill="#FCD770"/>
<path d="M70.4839 42.9033V53.6291L61.2903 39.8387L70.4839 42.9033Z" fill="#FCD770"/>
<path d="M79.6774 39.8387L70.4839 53.6291V42.9033L79.6774 39.8387Z" fill="#FCD770"/>
<path d="M70.4839 26.0484V42.9032L61.2903 39.8387L70.4839 26.0484Z" fill="#FCD770"/>
<path d="M69.6414 62.8076C70.1929 64.7686 70.4839 66.8216 70.4839 68.9516C70.4839 81.6384 60.1868 91.9355 47.5 91.9355C34.8132 91.9355 24.5161 81.6384 24.5161 68.9516C24.5161 66.8216 24.8072 64.7686 25.3586 62.8076C27.9637 53.353 36.4832 46.3508 46.6725 45.9827C46.9486 45.9678 47.2239 45.9678 47.5 45.9678C58.0575 45.9678 66.96 53.1083 69.6414 62.8076Z" fill="#FFC729"/>
<path d="M47.5614 52.0967C47.5456 52.0967 47.515 52.0967 47.5 52.0967C43.3933 52.0967 39.6397 53.5676 36.7129 56.0037L34.5521 58.1644C32.1161 61.0913 30.6452 64.8449 30.6452 68.9516C30.6452 78.2521 38.1531 85.7757 47.4387 85.8064H47.5C51.6067 85.8064 55.3603 84.3355 58.2872 81.8995L60.4479 79.7387C62.8839 76.8119 64.3548 73.0583 64.3548 68.9516C64.3548 59.651 56.8469 52.1274 47.5614 52.0967Z" fill="#FCD770"/>
<path d="M45.9677 55.1613V58.2258H41.371V79.6774H45.9677V82.7419H49.0323V79.6774C52.4125 79.6774 55.1613 76.9286 55.1613 73.5483C55.1613 71.7206 54.357 70.0746 53.0821 68.9516C54.357 67.8286 55.1613 66.1826 55.1613 64.3548C55.1613 60.9746 52.4125 58.2258 49.0323 58.2258V55.1613H45.9677ZM49.0323 76.6129H44.4355V70.4838H49.0323C50.7224 70.4838 52.0968 71.8582 52.0968 73.5483C52.0968 75.2385 50.7224 76.6129 49.0323 76.6129ZM52.0968 64.3548C52.0968 66.0449 50.7224 67.4193 49.0323 67.4193H44.4355V61.2903H49.0323C50.7224 61.2903 52.0968 62.6647 52.0968 64.3548Z" fill="black"/>
<path d="M95 39.8387C95 26.3215 84.0011 15.3226 70.4839 15.3226C67.2323 15.3226 64.1326 15.972 61.2903 17.1279V12.2581H58.2258V18.64C57.1514 19.2632 56.1249 19.9575 55.1613 20.7311V9.19355H52.0968V23.6782C50.9304 25.0032 49.8934 26.4419 49.0323 27.9974V0H45.9677V27.9959C45.1066 26.4404 44.0696 25.0017 42.9032 23.6767V9.19355H39.8387V20.7311C38.8751 19.9575 37.8486 19.2632 36.7742 18.64V12.2581H33.7097V17.1279C30.8674 15.972 27.7677 15.3226 24.5161 15.3226C10.9989 15.3226 0 26.3215 0 39.8387C0 45.1492 1.71631 50.0573 4.59677 54.0764V75.0807H7.66129V57.5958C8.61746 58.5034 9.63347 59.3473 10.7258 60.094V81.2097H13.7903V61.85C14.7787 62.334 15.7977 62.7627 16.8548 63.1121V88.871H19.9194V63.9074C21.0656 64.1266 22.2439 64.2479 23.4388 64.2995C23.1477 65.8078 22.9839 67.3595 22.9839 68.9516C22.9839 82.4689 33.9828 93.4678 47.5 93.4678C61.0172 93.4678 72.0161 82.4689 72.0161 68.9516C72.0161 67.3595 71.8523 65.8078 71.5612 64.2995C72.7576 64.2479 73.9344 64.1252 75.0806 63.9074V88.871H78.1452V63.1121C79.2023 62.7627 80.2213 62.334 81.2097 61.8515V81.2097H84.2742V60.0918C85.3665 59.3458 86.3825 58.5034 87.3387 57.5944V75.0807H90.4032V54.0764C93.2837 50.0573 95 45.1492 95 39.8387ZM24.5161 18.3871C35.3018 18.3871 44.229 26.3963 45.7223 36.7742H32.7625L30.7521 40.7964L25.999 29.7077L20.2568 44.0644L15.8052 26.2549L9.77862 38.3065H3.14233C3.93314 27.1931 13.2053 18.3871 24.5161 18.3871ZM3.14233 41.371H11.6745L14.8415 35.0354L19.5834 54.0001L26.0993 37.7117L30.5397 48.0746L34.6569 39.8387H45.9677C45.9677 41.4263 45.7837 43.0027 45.4403 44.5395C35.5113 45.3715 27.2559 52.1349 24.2326 61.2769C13.0504 61.128 3.92716 52.3893 3.14233 41.371ZM47.5 90.4032C35.6706 90.4032 26.0484 80.781 26.0484 68.9516C26.0484 57.1223 35.6706 47.5 47.5 47.5C59.3294 47.5 68.9516 57.1223 68.9516 68.9516C68.9516 80.781 59.3294 90.4032 47.5 90.4032ZM70.7674 61.2769C67.7441 52.1364 59.4887 45.3715 49.5597 44.541C49.2163 43.0042 49.0323 41.4293 49.0323 39.8387C49.0323 28.0093 58.6545 18.3871 70.4839 18.3871C82.3132 18.3871 91.9355 28.0093 91.9355 39.8387C91.9355 51.5716 82.4644 61.122 70.7674 61.2769Z" fill="black"/>
<path d="M47.5 50.5645C43.21 50.5645 39.0329 52.0766 35.735 54.8239L37.6982 57.1776C40.4455 54.8905 43.9252 53.629 47.5 53.629C55.9491 53.629 62.8226 60.5025 62.8226 68.9516C62.8226 72.5264 61.5612 76.0076 59.274 78.7534L61.6263 80.7166C64.375 77.4202 65.8871 73.2431 65.8871 68.9516C65.8871 58.8124 57.6392 50.5645 47.5 50.5645Z" fill="black"/>
<path d="M47.5 84.2742C39.0509 84.2742 32.1774 77.4007 32.1774 68.9516C32.1774 65.3768 33.4388 61.8956 35.726 59.1498L33.3737 57.1866C30.6249 60.483 29.1129 64.6601 29.1129 68.9516C29.1129 79.0908 37.3607 87.3387 47.5 87.3387C51.79 87.3387 55.967 85.8266 59.265 83.0793L57.3018 80.7256C54.5545 83.0128 51.0747 84.2742 47.5 84.2742Z" fill="black"/>
<path d="M59.4483 39.8387L70.4839 56.3921L81.5194 39.8387L70.4839 23.2854L59.4483 39.8387ZM68.9516 40.7762L63.6792 39.0187L68.9516 31.1098V40.7762ZM68.9516 44.0083V48.5677L65.0431 42.7042L68.9516 44.0083ZM72.0161 44.0083L75.9246 42.7057L72.0161 48.5677V44.0083ZM72.0161 40.7762V31.1076L77.2885 39.0172L72.0161 40.7762Z" fill="black"/>
<path d="M4.59674 78.1452H7.66126V81.2097H4.59674V78.1452Z" fill="black"/>
<path d="M10.7258 84.2742H13.7903V87.3388H10.7258V84.2742Z" fill="black"/>
<path d="M16.8548 91.9355H19.9193V95H16.8548V91.9355Z" fill="black"/>
<path d="M87.3387 78.1452H90.4032V81.2097H87.3387V78.1452Z" fill="black"/>
<path d="M81.2097 84.2742H84.2742V87.3388H81.2097V84.2742Z" fill="black"/>
<path d="M75.0806 91.9355H78.1451V95H75.0806V91.9355Z" fill="black"/>
<path d="M39.8387 3.06451H42.9032V6.12903H39.8387V3.06451Z" fill="black"/>
<path d="M52.0968 3.06451H55.1613V6.12903H52.0968V3.06451Z" fill="black"/>
</svg>
