<svg width="816" height="510" viewBox="0 0 816 510" fill="none" xmlns="http://www.w3.org/2000/svg">
<path d="M776.95 508.826C730.322 508.826 51.1055 508.991 50.7121 507.777L50.6465 507.624C50.6465 507.624 50.5809 507.474 50.5809 507.399C50.3217 506.79 -54.0721 336.032 108.219 217.158C171.719 170.646 104.244 139.939 154.74 88.1622C212.772 28.6594 276.104 94.4829 340.631 67.5014C352.033 62.7391 363.475 55.0725 374.926 43.3087C381.372 36.6945 388.439 30.9079 396.003 25.9144C397.161 25.1462 398.332 24.3936 399.516 23.666C404.044 20.8742 408.741 18.3478 413.578 16.0775C416.826 14.5535 420.136 13.1451 423.509 11.8522H423.512C428.861 9.79741 434.357 8.02362 439.972 6.52465C447.945 4.39487 456.152 2.80847 464.521 1.73733C468.172 1.26578 471.853 0.897281 475.56 0.619347C547.664 -4.76757 628.805 25.5428 670.679 69.8436C679.111 78.7656 717.444 124.924 687.227 188.371C668.146 228.428 748.079 266.689 776.481 312.433C848.691 428.728 777.605 507.308 776.95 508.826Z" fill="#AAE0FF"/>
<g opacity="0.8">
<path opacity="0.8" d="M358.925 199.885C358.925 206.168 358.359 212.324 357.273 218.301C354.662 232.641 349.063 245.938 341.137 257.527C322.725 284.455 291.768 302.127 256.682 302.127C214.949 302.127 179.052 277.126 163.166 241.279C161.07 236.557 159.321 231.645 157.96 226.576C155.658 218.07 154.434 209.12 154.434 199.888C154.434 192.422 155.234 185.139 156.754 178.131C156.77 178.05 156.789 177.972 156.804 177.891C161.051 158.511 170.798 141.194 184.326 127.651C188.161 123.806 192.302 120.265 196.714 117.067C198.816 115.543 200.983 114.094 203.201 112.733C218.755 103.161 237.071 97.64 256.679 97.64C259.281 97.64 261.857 97.7368 264.405 97.9304C268.006 98.1959 271.55 98.6487 275.035 99.2826C289.703 101.94 303.275 107.727 315.045 115.931H315.052C322.384 121.036 329.017 127.073 334.772 133.884C337.795 137.459 340.581 141.244 343.095 145.217C344.659 147.69 346.124 150.229 347.482 152.843C350.743 159.116 353.363 165.771 355.274 172.723C357.654 181.367 358.925 190.479 358.925 199.885Z" fill="#D7E5FF"/>
<g opacity="0.8">
<path opacity="0.8" d="M221.944 154.117C217.863 160.578 223.649 171.798 211.408 168.738C199.166 165.678 191.687 164.316 191.006 171.114C190.322 177.919 200.187 177.919 200.187 185.058C200.187 192.197 195.765 194.561 188.967 191.169C182.162 187.778 180.21 182.847 172.303 185.907C164.399 188.968 159.809 186.929 158.022 180.808C157.707 179.73 157.267 178.859 156.751 178.132C156.767 178.05 156.786 177.972 156.801 177.891C161.048 158.511 170.795 141.194 184.323 127.651C188.158 123.806 192.299 120.265 196.711 117.067C198.813 115.543 200.98 114.094 203.198 112.733C206.386 112.851 210.196 114.06 213.444 118.079C220.583 126.923 225.342 122.501 223.643 132.7C221.938 142.9 224.664 144.261 230.441 143.921C236.219 143.58 243.023 143.58 243.701 148.002C244.385 152.418 226.023 147.656 221.944 154.117Z" fill="#AEC3FF"/>
<path opacity="0.8" d="M222.656 201.334C222.656 201.334 216.486 208.507 211.167 204.388C205.849 200.269 207.457 197.69 199.669 200.273C191.881 202.855 188.455 198.574 184.464 201.818C180.473 205.063 183.711 205.469 180.951 212.349C178.19 219.228 172.485 220.331 176.894 227.201C181.304 234.068 189.507 230.536 193.829 234.168C198.151 237.8 196.74 241.357 202.136 242.834C207.529 244.314 212.685 239.058 212.791 245.573C212.897 252.087 210.814 258.451 217.522 264.51C224.227 270.568 222.972 271.936 229.867 274.887C236.762 277.838 245.003 275.177 243.957 271.033C242.911 266.889 234.027 266.055 233.849 261.377C233.674 256.699 238.399 257.09 236.506 251.075C234.611 245.057 239.901 241.813 238.114 237.925C236.328 234.034 226.138 232.703 227.325 228.784C228.512 224.865 237.727 228.188 238.233 219.903C238.736 211.618 233.14 208.667 233.964 200.585C234.789 192.5 223.603 196.369 222.656 201.334Z" fill="#AEC3FF"/>
<path opacity="0.8" d="M358.925 199.885C358.925 206.169 358.36 212.324 357.273 218.301C354.662 232.641 349.063 245.938 341.137 257.527C338.433 258.414 335.675 258.395 332.961 257.308C320.211 252.209 329.645 238.437 334.748 231.551C339.847 224.665 326.844 227.726 317.407 221.352C307.972 214.978 318.428 197.89 308.737 200.697C299.047 203.505 287.318 207.071 281.706 197.637C276.097 188.203 286.806 186.673 281.962 178.766C277.115 170.862 284.766 166.271 294.457 165.506C304.147 164.741 302.873 157.855 314.858 156.837C326.844 155.816 326.588 171.118 339.85 170.097C353.11 169.075 352.514 172.136 352.514 172.136C353.466 172.111 354.397 172.311 355.284 172.717C357.654 181.367 358.925 190.479 358.925 199.885Z" fill="#AEC3FF"/>
<path opacity="0.8" d="M347.483 152.836C336.456 158.201 332.031 143.611 322.603 147.996C313.1 152.418 314.765 143.914 307.289 138.474C299.806 133.038 284.848 142.896 285.525 134.393C286.203 125.896 297.424 128.272 299.806 121.474C302.189 114.675 313.066 116.374 313.066 116.374C313.684 116.14 314.346 115.987 315.046 115.924C315.046 115.924 315.046 115.918 315.052 115.924C322.384 121.03 329.017 127.067 334.773 133.878C337.796 137.453 340.581 141.238 343.095 145.21C344.663 147.684 346.127 150.226 347.483 152.836Z" fill="#AEC3FF"/>
<path opacity="0.8" d="M254.585 123.516C254.585 123.516 260.365 115.175 251.184 112.717C242.003 110.256 242.174 113.476 235.032 112.717C227.894 111.958 225.086 117.483 230.442 123.516C235.797 129.552 240.132 141.132 244.979 134.958C249.825 128.784 248.892 124.109 254.585 123.516Z" fill="#AEC3FF"/>
</g>
</g>
<path d="M379.716 310.066L364.055 496.272C364.055 496.272 362.416 507.558 370.81 507.58C384.616 507.614 439.522 507.58 439.522 507.58C439.522 507.58 429.132 505.232 429.257 499.945C429.404 493.711 447.56 308.305 447.56 308.305L379.716 310.066Z" fill="#7599EA"/>
<path d="M444.691 504.276C441.977 504.285 388.82 504.372 375.376 504.201C369.518 504.129 368.49 498.992 368.44 495.666C368.415 494.073 368.618 492.893 368.618 492.893L369.024 488.052L370.061 475.717L370.979 464.818L372.156 450.816L373.149 438.996L384.276 306.684L452.123 304.922C452.123 304.922 444.475 382.516 439.067 438.996C438.464 445.288 437.889 451.322 437.358 456.955C437.187 458.754 437.021 460.512 436.859 462.223C436.356 467.567 435.9 472.476 435.5 476.807C435.291 479.09 435.097 481.213 434.919 483.156C434.229 490.772 433.826 495.638 433.82 496.562C433.817 497.102 433.864 497.602 433.951 498.071C435.069 504.007 443.67 504.276 444.691 504.276Z" fill="#90AFF4"/>
<path d="M214.949 208.739L253.095 361.965L258.319 382.947L276.085 454.317H606.161L540.678 208.739H214.949Z" fill="#AEC3FF"/>
<path d="M214.949 208.739L209.662 210.5L269.059 459.647L276.085 454.317L214.949 208.739Z" fill="#90AFF4"/>
<path d="M269.058 459.647H597.101L606.161 454.317H276.085L269.058 459.647Z" fill="#7599EA"/>
<path d="M384.255 507.65H455.281V504.275H384.255V507.65Z" fill="#AEC3FF"/>
<path d="M437.227 459.647L436.862 462.227L370.064 475.72L370.982 464.822L371.416 459.647H437.227Z" fill="#5888DD"/>
<path opacity="0.4" d="M444.69 504.276C441.977 504.285 388.819 504.373 375.376 504.201C369.517 504.129 368.49 498.992 368.44 495.666L434.922 483.159C434.232 490.776 433.829 495.641 433.823 496.566C433.82 497.106 433.867 497.606 433.954 498.074C435.069 504.007 443.669 504.276 444.69 504.276Z" fill="#5888DD"/>
<path d="M214.949 208.739H540.675L593.526 406.106H264.084L214.949 208.739Z" fill="#C2D5FF"/>
<path d="M578.162 397.552H273.184L262.285 354.139L258.07 337.338L256.349 330.489L245.147 285.873L244.566 283.55L238.649 259.966L235.997 249.414L233.739 240.411L228.44 219.309H529.024L534.842 240.411L537.321 249.414L540.232 259.966L559.396 329.484V329.487L561.02 335.376L561.776 338.112L575.008 386.104L578.162 397.552Z" fill="#739AF0"/>
<path d="M534.841 240.414H233.739L228.443 219.309H529.026L534.841 240.414Z" fill="#607CF4"/>
<path d="M240.878 228.847C240.516 227.388 241.403 226.208 242.858 226.208C244.316 226.208 245.79 227.388 246.153 228.847C246.515 230.305 245.628 231.485 244.173 231.485C242.717 231.485 241.24 230.305 240.878 228.847Z" fill="#E9F3FE"/>
<path d="M249.641 228.847C249.278 227.388 250.165 226.208 251.62 226.208C253.079 226.208 254.553 227.388 254.915 228.847C255.277 230.305 254.39 231.485 252.935 231.485C251.48 231.485 250.006 230.305 249.641 228.847Z" fill="#E9F3FE"/>
<path d="M259.081 228.847C258.719 227.388 259.606 226.208 261.061 226.208C262.519 226.208 263.993 227.388 264.355 228.847C264.718 230.305 263.831 231.485 262.376 231.485C260.92 231.485 259.443 230.305 259.081 228.847Z" fill="#E9F3FE"/>
<path opacity="0.5" d="M387.836 406.106L276.197 454.891L264.084 406.106H387.836Z" fill="#90AFF4"/>
<path d="M290.762 157.614C285.382 159.629 281.909 164.282 281.909 169.409V283.234C281.909 306.521 292.964 328.331 311.495 341.607L378.361 384.458C382.805 387.309 388.848 387.309 393.31 384.458L460.174 341.607C478.705 328.331 489.76 306.521 489.76 283.234V169.712C489.76 164.432 486.068 159.679 480.466 157.758C399.238 129.952 366.679 129.209 290.762 157.614Z" fill="#EA7B00"/>
<path d="M392.642 259.097H377.434C363.797 259.097 352.698 248.002 352.698 234.361V231.404C352.698 217.763 363.793 206.665 377.434 206.665H392.642C406.283 206.665 417.382 217.76 417.382 231.404V234.361C417.378 248.002 406.283 259.097 392.642 259.097ZM377.434 216.558C369.249 216.558 362.591 223.216 362.591 231.404V234.361C362.591 242.546 369.249 249.204 377.434 249.204H392.642C400.83 249.204 407.488 242.546 407.488 234.361V231.404C407.488 223.216 400.83 216.558 392.642 216.558H377.434Z" fill="#FFDAA4"/>
<path d="M399.075 328.187H375.054C352.582 328.187 334.364 309.969 334.364 287.497V247.796C334.364 242.768 338.439 238.696 343.464 238.696H425.641C432.081 238.696 437.299 243.914 437.299 250.354V289.961C437.302 311.074 420.189 328.187 399.075 328.187Z" fill="#FFDAA4"/>
<path d="M390.262 278.208C397.257 275.754 400.938 268.095 398.485 261.1C396.031 254.106 388.372 250.424 381.377 252.878C374.382 255.332 370.701 262.991 373.155 269.986C375.608 276.98 383.268 280.662 390.262 278.208Z" fill="#F78248"/>
<path d="M385.835 271.814C387.434 271.814 388.742 273.122 388.742 274.721V297.093C388.742 298.692 387.434 300.001 385.835 300.001C384.236 300.001 382.927 298.692 382.927 297.093V274.724C382.924 273.122 384.236 271.814 385.835 271.814Z" fill="#F78248"/>
<path d="M338.336 179.574C338.336 172.988 343.467 167.592 350.484 167.592C354.653 167.592 357.17 168.716 359.587 170.771L356.376 174.643C354.59 173.153 353.001 172.292 350.318 172.292C346.611 172.292 343.666 175.567 343.666 179.574C343.666 183.812 346.58 186.922 350.683 186.922C352.538 186.922 354.193 186.46 355.483 185.532V182.222H350.352V177.819H360.414V187.881C358.031 189.901 354.756 191.556 350.518 191.556C343.298 191.556 338.336 186.491 338.336 179.574Z" fill="#FFDAA4"/>
<path d="M365.311 167.988H374.349C381.631 167.988 386.662 172.985 386.662 179.574C386.662 186.094 381.631 191.16 374.349 191.16H365.311V167.988ZM374.349 186.56C378.518 186.56 381.331 183.746 381.331 179.577C381.331 175.474 378.518 172.594 374.349 172.594H370.411V186.563H374.349V186.56Z" fill="#FFDAA4"/>
<path d="M391.196 167.988H400.662C406.189 167.988 409.534 171.264 409.534 176.064C409.534 181.426 405.362 184.205 400.165 184.205H396.293V191.157H391.196V167.988ZM400.331 179.674C402.879 179.674 404.368 178.15 404.368 176.098C404.368 173.815 402.779 172.588 400.231 172.588H396.293V179.674H400.331Z" fill="#FFDAA4"/>
<path d="M413.306 167.988H423.899C426.843 167.988 429.129 168.816 430.65 170.34C431.94 171.629 432.636 173.45 432.636 175.702C432.636 179.443 430.619 181.791 427.671 182.884L433.33 191.16H427.371L422.34 183.746H418.402V191.16H413.306V167.988ZM423.568 179.243C426.05 179.243 427.474 177.919 427.474 175.898C427.474 173.712 425.95 172.588 423.468 172.588H418.402V179.243H423.568Z" fill="#FFDAA4"/>
<path d="M538.442 89.296C536.968 89.8456 536.019 91.1197 536.019 92.525V123.679C536.019 130.052 539.045 136.02 544.116 139.655L562.416 151.384C563.631 152.165 565.286 152.165 566.507 151.384L584.807 139.655C589.878 136.02 592.904 130.052 592.904 123.679V92.6093C592.904 91.1634 591.893 89.8643 590.362 89.3366C568.134 81.723 559.221 81.5201 538.442 89.296Z" fill="#AEC3FF"/>
<path opacity="0.4" d="M590.362 89.3367C579.542 85.633 571.875 83.6875 564.461 83.5594V151.969C565.18 151.969 565.895 151.775 566.507 151.385L584.807 139.655C589.878 136.02 592.904 130.052 592.904 123.679V92.6063C592.907 91.1605 591.896 89.8614 590.362 89.3367Z" fill="#5888DD"/>
<path d="M567.656 50.5569L574.842 51.5031L569.72 56.6309L571.044 63.7572L564.583 60.472L558.216 63.9321L559.343 56.7714L554.084 51.7842L561.242 50.6444L564.362 44.102L567.656 50.5569Z" fill="#F99746"/>
<path d="M567.656 174.372L574.842 175.318L569.72 180.446L571.044 187.572L564.583 184.287L558.216 187.747L559.343 180.586L554.084 175.599L561.242 174.459L564.362 167.917L567.656 174.372Z" fill="#F99746"/>
<path d="M514.743 80.9609L521.928 81.9071L516.81 87.0349L518.131 94.1612L511.67 90.876L505.302 94.3361L506.43 87.1754L501.174 82.1882L508.331 81.0483L511.448 74.506L514.743 80.9609Z" fill="#F99746"/>
<path d="M621.301 80.9609L628.486 81.9071L623.368 87.0349L624.689 94.1612L618.228 90.876L611.86 94.3361L612.988 87.1754L607.732 82.1882L614.886 81.0483L618.006 74.506L621.301 80.9609Z" fill="#F99746"/>
<path d="M514.743 144.336L521.928 145.279L516.81 150.407L518.131 157.533L511.67 154.248L505.302 157.708L506.43 150.548L501.174 145.56L508.331 144.42L511.448 137.881L514.743 144.336Z" fill="#F99746"/>
<path d="M621.301 144.336L628.486 145.279L623.368 150.407L624.689 157.533L618.228 154.248L611.86 157.708L612.988 150.548L607.732 145.56L614.886 144.42L618.006 137.881L621.301 144.336Z" fill="#F99746"/>
<path d="M537.683 58.7387L544.869 59.685L539.747 64.8127L541.068 71.9359L534.61 68.6538L528.243 72.1108L529.37 64.9532L524.111 59.966L531.269 58.8262L534.389 52.2838L537.683 58.7387Z" fill="#F99746"/>
<path d="M599.194 58.7387L606.376 59.685L601.258 64.8127L602.579 71.9359L596.121 68.6538L589.75 72.1108L590.881 64.9532L585.622 59.966L592.779 58.8262L595.896 52.2838L599.194 58.7387Z" fill="#F99746"/>
<path d="M537.683 166.415L544.869 167.361L539.747 172.488L541.068 179.615L534.61 176.33L528.243 179.79L529.37 172.629L524.111 167.642L531.269 166.502L534.389 159.96L537.683 166.415Z" fill="#F99746"/>
<path d="M599.194 166.415L606.376 167.361L601.258 172.488L602.579 179.615L596.121 176.33L589.75 179.79L590.881 172.629L585.622 167.642L592.779 166.502L595.896 159.96L599.194 166.415Z" fill="#F99746"/>
<path d="M506.277 114.297L513.462 115.24L508.344 120.371L509.665 127.494L503.204 124.209L496.836 127.669L497.964 120.512L492.708 115.524L499.862 114.385L502.982 107.842L506.277 114.297Z" fill="#F99746"/>
<path d="M631.681 114.297L638.866 115.24L633.745 120.371L635.066 127.494L628.608 124.209L622.237 127.669L623.368 120.512L618.109 115.524L625.267 114.385L628.383 107.842L631.681 114.297Z" fill="#F99746"/>
<path d="M120.271 287.378C120.536 287.641 120.539 288.072 120.274 288.34C120.008 288.606 119.581 288.609 119.312 288.343C119.047 288.081 119.043 287.65 119.309 287.382C119.574 287.116 120.005 287.113 120.271 287.378Z" fill="#D5E5FB"/>
<path d="M118.06 289.608C118.325 289.874 118.328 290.301 118.063 290.57C117.797 290.835 117.369 290.839 117.104 290.573C116.839 290.308 116.835 289.88 117.101 289.611C117.363 289.349 117.791 289.346 118.06 289.608Z" fill="#D5E5FB"/>
<path d="M114.859 291.875C115.124 291.61 115.552 291.607 115.818 291.872C116.083 292.135 116.086 292.566 115.821 292.834C115.555 293.1 115.127 293.103 114.859 292.837C114.596 292.572 114.593 292.141 114.859 291.875Z" fill="#D5E5FB"/>
<path d="M113.578 294.133C113.844 294.395 113.847 294.826 113.581 295.095C113.316 295.36 112.888 295.364 112.62 295.098C112.354 294.836 112.351 294.405 112.616 294.139C112.882 293.871 113.313 293.868 113.578 294.133Z" fill="#D5E5FB"/>
<path d="M111.367 296.366C111.632 296.631 111.636 297.059 111.37 297.328C111.105 297.593 110.677 297.596 110.411 297.331C110.146 297.065 110.143 296.638 110.408 296.369C110.671 296.104 111.098 296.101 111.367 296.366Z" fill="#D5E5FB"/>
<path d="M108.166 298.63C108.432 298.365 108.86 298.362 109.125 298.627C109.391 298.892 109.394 299.32 109.128 299.589C108.863 299.854 108.435 299.857 108.166 299.592C107.904 299.326 107.901 298.899 108.166 298.63Z" fill="#D5E5FB"/>
<path d="M106.974 300.797C107.239 301.059 107.242 301.49 106.977 301.759C106.711 302.024 106.283 302.027 106.015 301.762C105.749 301.5 105.746 301.069 106.012 300.803C106.28 300.535 106.708 300.535 106.974 300.797Z" fill="#D5E5FB"/>
<path d="M104.763 303.03C105.028 303.295 105.032 303.723 104.766 303.992C104.501 304.257 104.073 304.26 103.807 303.995C103.542 303.729 103.539 303.301 103.804 303.033C104.067 302.767 104.497 302.764 104.763 303.03Z" fill="#D5E5FB"/>
<path d="M101.562 305.294C101.824 305.029 102.255 305.026 102.52 305.291C102.786 305.556 102.789 305.984 102.523 306.253C102.261 306.518 101.83 306.521 101.565 306.256C101.302 305.991 101.299 305.563 101.562 305.294Z" fill="#D5E5FB"/>
<path d="M100.281 307.552C100.547 307.814 100.55 308.245 100.284 308.514C100.019 308.779 99.591 308.782 99.3225 308.517C99.057 308.252 99.0539 307.824 99.3194 307.555C99.5848 307.29 100.016 307.29 100.281 307.552Z" fill="#D5E5FB"/>
<path d="M98.0701 309.785C98.3355 310.047 98.3386 310.478 98.0732 310.744C97.8077 311.009 97.3799 311.012 97.1145 310.747C96.849 310.484 96.8459 310.053 97.1113 309.785C97.3737 309.523 97.8046 309.519 98.0701 309.785Z" fill="#D5E5FB"/>
<path d="M94.8691 312.052C95.1345 311.787 95.5624 311.784 95.8278 312.049C96.0933 312.314 96.0964 312.742 95.8309 313.011C95.5655 313.276 95.1377 313.279 94.8691 313.014C94.6068 312.748 94.6068 312.318 94.8691 312.052Z" fill="#D5E5FB"/>
<path d="M150.842 274.786C152.172 266.716 146.708 259.097 138.638 257.767C130.568 256.437 122.948 261.901 121.619 269.97C120.289 278.04 125.753 285.66 133.822 286.99C141.892 288.32 149.512 282.856 150.842 274.786Z" fill="#C6DCF7"/>
<path d="M131.471 266.433C131.471 263.807 133.598 261.68 136.224 261.68C138.848 261.68 140.977 263.807 140.977 266.433C140.977 269.056 138.851 271.186 136.224 271.186C133.601 271.186 131.471 269.056 131.471 266.433Z" fill="#EBF3FA"/>
<path d="M136.225 271.186C131.631 271.186 127.909 274.909 127.909 279.502H144.544C144.541 274.909 140.819 271.186 136.225 271.186Z" fill="#EBF3FA"/>
<path d="M82.6119 318.07L82.0623 316.711C81.4752 315.253 80.0606 314.3 78.4898 314.3H68.3655V320.724V348.146H110.24V320.724H86.5436C84.8167 320.724 83.2615 319.675 82.6119 318.07Z" fill="#C6DCF7"/>
<path d="M95.5686 329.752H94.1696C94.2102 329.524 94.232 329.29 94.232 329.053V328.575C94.232 326.37 92.4364 324.574 90.2316 324.574H87.7708C85.5661 324.574 83.7705 326.37 83.7705 328.575V329.053C83.7705 329.29 83.7923 329.524 83.8329 329.752H82.2777C81.4658 329.752 80.8069 330.411 80.8069 331.226V337.647C80.8069 341.282 83.7517 344.227 87.3867 344.227H91.2716C94.688 344.227 97.4548 341.46 97.4548 338.043V331.638C97.4548 330.598 96.6116 329.752 95.5686 329.752ZM89.6008 336.216V339.199C89.6008 339.458 89.3885 339.667 89.1293 339.667C88.8701 339.667 88.6577 339.455 88.6577 339.199V336.216C87.6865 336.001 86.9589 335.136 86.9589 334.099C86.9589 332.9 87.9301 331.929 89.1293 331.929C90.3285 331.929 91.2997 332.9 91.2997 334.099C91.3028 335.136 90.5752 336.001 89.6008 336.216ZM92.6331 329.053C92.6331 329.296 92.5956 329.53 92.5301 329.752H85.4755C85.4068 329.53 85.3694 329.296 85.3694 329.053V328.575C85.3694 327.251 86.4468 326.173 87.7708 326.173H90.2316C91.5557 326.173 92.6331 327.251 92.6331 328.575V329.053Z" fill="#EBF3FA"/>
<path d="M205.315 315.44C205.315 315.44 206.106 306.824 196.478 306.824C196.478 306.824 199.395 307.614 200.906 309.197C200.906 309.197 194.766 305.594 188.084 311.133C181.401 316.673 185.554 330.567 183.521 333.203C181.488 335.841 173.575 336.369 174.543 344.898C175.511 353.426 199.66 364.11 198.108 371.167C198.108 371.167 207.57 357.255 200.803 350.906C200.803 350.906 204.101 354.013 204.438 357.708C204.438 357.708 205.334 350.497 200.744 348.192C196.684 346.15 193.358 338.686 193.708 337.353C194.058 336.013 205.315 315.44 205.315 315.44Z" fill="#2C3A64"/>
<path d="M195.834 356.812C195.834 356.812 203.026 386.569 210.087 392.518C214.331 396.094 226.95 404.301 226.95 404.301L221.701 406.206C221.701 406.206 204.197 400.294 200.278 395.688C196.359 391.082 185.632 367.994 185.632 367.994L195.834 356.812Z" fill="#FFB27D"/>
<path d="M237.365 415.174L235.675 410.99C233.864 406.502 229.508 403.564 224.667 403.564H193.486V423.35V507.823H322.478V423.35H249.481C244.154 423.35 239.36 420.115 237.365 415.174Z" fill="#EA7B00"/>
<path d="M128.234 409.091C128.297 409.204 128.366 409.322 128.431 409.441C130.005 412.177 133.615 418.881 137.594 426.217C139.473 429.699 141.444 433.321 143.311 436.728C146.531 442.612 149.46 447.852 151.169 450.622C152.908 453.439 154.185 455.416 154.704 456.206C154.707 456.209 154.707 456.209 154.707 456.209C154.863 456.452 154.897 456.74 154.875 457.024C154.694 459.506 154.744 461.973 154.988 464.4C157.386 488.268 173.481 501.056 173.481 501.056L178.266 501.762C178.266 501.762 171.495 476.676 169.5 462.492C169.162 460.087 169.016 458.139 169.134 456.871C169.487 453.176 168.831 447.752 167.589 441.522C165.378 430.455 161.327 416.867 157.805 405.993C157.583 405.3 150.853 380.957 150.853 380.957C145.204 385.895 124.606 387.931 124.606 387.931C124.606 387.931 121.111 396.428 128.234 409.091Z" fill="#2F539B"/>
<path d="M188.311 507.823H168.34C168.34 507.823 167.863 504.779 168.906 502.471C169.905 500.253 171.329 500.185 169.087 496.712C170.355 498.018 174.436 498.561 177.322 498.171C177.675 498.745 179.601 502.593 180.785 503.442C182.09 504.376 187.908 504.042 188.311 507.823Z" fill="#233862"/>
<path d="M128.234 409.091C128.296 409.204 128.365 409.322 128.431 409.441C130.005 412.177 138.517 427.9 142.493 435.236C137.883 416.277 141.091 397.318 141.091 397.318L128.234 409.091Z" fill="#233862"/>
<path d="M202.589 314.228C202.72 313.704 191.181 319.444 190.597 320.09C185.185 326.092 186.728 333.924 189.826 333.999C191.812 334.049 191.428 337.35 191.428 337.35L213.547 327.994C213.547 327.991 210.886 312.461 202.589 314.228Z" fill="#2C3A64"/>
<path d="M195.157 352.343C195.157 352.343 198.523 359.066 198.102 364.525C198.102 364.525 194.042 370.933 183.515 372.554C183.518 372.554 192.568 352.34 195.157 352.343Z" fill="#739AF0"/>
<path d="M143.801 389.423L143.87 385.688C136.428 386.625 118.21 376.795 118.21 376.795C118.21 376.795 110.424 381.972 109.36 396.762C108.838 403.979 105.55 434.505 105.184 443.62C105.05 446.924 105.006 449.282 104.994 450.225C104.997 450.232 104.994 450.232 104.994 450.235C104.991 450.522 104.853 450.775 104.678 451.003C103.139 452.961 101.802 455.034 100.647 457.183C89.2921 478.312 95.2286 507.021 95.2286 507.021L97.8643 506.349C97.8643 506.349 107.467 476.588 113.741 463.713C114.806 461.53 115.774 459.831 116.583 458.847C118.944 455.981 121.429 451.115 123.884 445.257C128.518 434.186 143.801 389.423 143.801 389.423Z" fill="#2F539B"/>
<path d="M111.108 507.823H91.1373C91.1373 507.823 90.6595 504.778 91.7025 502.471C92.7018 500.253 94.2664 499.248 93.8916 496.565C95.1595 497.871 97.23 499.335 100.115 498.948C100.468 499.523 102.398 502.592 103.582 503.439C104.884 504.375 110.705 504.041 111.108 507.823Z" fill="#233862"/>
<path d="M182.169 376.845C179.486 377.3 182.606 379.433 178.918 379.836C173.665 380.411 168.244 380.801 165.405 381.935C164.368 382.347 163.675 382.859 163.46 383.512C162.229 387.212 154.431 393.574 154.431 393.574C119.655 391.99 117.416 376.492 117.416 376.492C139.985 354.572 159.188 342.624 175.055 341.144C178.918 340.785 184.123 341.269 186.566 342.356C192.115 344.826 195.156 352.346 195.156 352.346C195.156 352.346 192.362 375.105 182.169 376.845Z" fill="#739AF0"/>
<path d="M178.917 379.833C173.665 380.408 168.244 380.798 165.405 381.932C164.243 364.587 172.428 351.543 172.428 351.543C172.428 351.543 177.765 373.272 178.917 379.833Z" fill="#5A7DE0"/>
<path d="M183.45 348.608C183.45 348.608 170.243 347.887 167.898 356.178C165.552 364.469 172.301 397.562 173.753 400.978C176.401 407.196 189.751 425.717 189.751 425.717L194.03 423.5C194.03 423.5 185.436 396.388 183.515 393.705C180.505 389.492 187.4 352.215 183.45 348.608Z" fill="#FFB27D"/>
<path d="M194.029 423.5C194.029 423.5 195.135 424.462 196.021 425.546C196.908 426.632 196.128 427.023 198.679 431.938C198.679 431.938 198.548 432.622 197.995 432.497C197.442 432.372 195.516 430.467 194.529 430.605C194.529 430.605 193.823 431.186 193.745 433.112C193.673 434.914 193.667 438.899 193.355 439.648C193.042 440.398 190.75 436.51 189.62 433.699C188.63 431.235 189.595 422.926 189.595 422.926L194.029 423.5Z" fill="#FFB27D"/>
<path d="M165.29 367.264C165.324 367.457 177.787 369.556 185.582 365.599C185.582 365.599 192.093 345.198 182.787 346.175C173.481 347.153 167.972 350.082 167.735 354.538C167.504 358.994 165.29 367.264 165.29 367.264Z" fill="#739AF0"/>
<path d="M186.269 343.783C186.403 345.435 186.616 347.368 188.777 349.592C190.432 351.297 192.824 352.627 194.504 350.947C195.36 350.091 196.518 348.814 197.102 347.808C198.554 345.313 200.284 342.762 200.284 342.762L192.811 336.213L192.365 335.823C190.407 339.243 188.483 340.885 186.797 342.141C186.285 342.518 186.216 343.149 186.269 343.783Z" fill="#FFB27D"/>
<path d="M200.281 342.765C200.281 342.765 198.554 345.31 197.102 347.808C192.455 344.945 192.452 339.192 192.808 336.213L200.281 342.765Z" fill="#ED985F"/>
<path d="M200.49 346.044C200.49 346.044 189.21 339.767 193.226 332.803C197.242 325.839 198.491 320.337 205.864 324.05C213.237 327.763 213.091 331.22 212.316 333.871C211.539 336.522 203.525 347.499 200.49 346.044Z" fill="#FFB27D"/>
<path d="M214.222 329.811C213.706 326.72 212.136 326.423 211.04 326.629C206.874 319.74 200.069 322.429 200.069 322.429C196.434 326.991 191.178 327.769 191.178 327.769C191.178 327.769 192.487 330.205 197.88 331.713C199.529 332.172 201.396 331.894 203.201 331.288C199.46 333.374 195.547 334.174 195.547 334.174C202.655 334.823 209.416 328.328 210.118 327.632C210.446 328.637 211.021 330.745 210.677 332.288C210.209 334.383 208.351 338.174 209.484 338.668C209.481 338.665 214.996 334.449 214.222 329.811Z" fill="#2C3A64"/>
<path d="M229.018 404.313C229.018 404.313 225.87 406.674 228.243 408.217C230.617 409.759 234.851 410.178 234.867 409.166C234.926 405.768 233.231 403.348 229.018 404.313Z" fill="#FFB27D"/>
<path d="M276.554 451.028H272.488C272.606 450.366 272.672 449.688 272.672 448.995V447.605C272.672 441.197 267.46 435.985 261.052 435.985H253.91C247.502 435.985 242.293 441.197 242.293 447.605V448.995C242.293 449.688 242.355 450.366 242.474 451.028H237.955C235.594 451.028 233.68 452.942 233.68 455.306V473.956C233.68 484.511 242.237 493.068 252.792 493.068H264.072C273.99 493.068 282.028 485.029 282.028 475.111V456.508C282.028 453.479 279.577 451.028 276.554 451.028ZM259.219 469.796V478.459C259.219 479.208 258.604 479.824 257.851 479.824C257.098 479.824 256.483 479.208 256.483 478.459V469.796C253.657 469.172 251.546 466.658 251.546 463.641C251.546 460.159 254.369 457.336 257.851 457.336C261.333 457.336 264.156 460.159 264.156 463.641C264.156 466.658 262.045 469.172 259.219 469.796ZM268.022 448.995C268.022 449.701 267.916 450.385 267.719 451.028H247.236C247.04 450.385 246.93 449.701 246.93 448.995V447.605C246.93 443.758 250.06 440.632 253.904 440.632H261.046C264.893 440.632 268.019 443.761 268.019 447.605V448.995H268.022Z" fill="#FFDAA4"/>
<path d="M753.875 508.008L597.302 508.004C575.473 482.919 576.375 452.377 606.161 424.643C611.507 419.665 620.842 414.306 628.377 412.508C642.268 409.194 658.019 408.432 658.141 408.367C658.188 408.348 675.651 405.918 680.632 399.857C696.105 381.039 700.084 378.344 700.084 378.344C715.857 375.261 729.311 374.356 739.285 379.933C739.285 379.936 739.285 379.936 739.288 379.939C748.529 385.114 754.784 395.857 757.126 415.602C757.569 419.334 757.875 423.391 758.032 427.791C758.603 443.814 761.748 458.067 763.615 470.137C763.618 470.137 763.618 470.14 763.618 470.14C766.323 487.625 768.234 500.919 753.875 508.008Z" fill="#F99746"/>
<path d="M731.472 399.954C721.9 405.166 720.842 422.342 705.864 426.776C690.884 431.214 665.458 430.808 651.033 446.453C637.118 461.549 621.772 423.144 628.38 412.342C642.271 409.045 658.022 408.286 658.144 408.217C658.191 408.198 679.508 408.114 684.489 402.081C699.962 383.347 700.087 378.331 700.087 378.331C715.861 375.262 729.314 374.362 739.288 379.911C739.288 379.915 739.288 379.915 739.291 379.918C750.278 391.276 741.04 394.742 731.472 399.954Z" fill="#ED7D2B"/>
<path d="M763.612 469.706C741.646 442.287 696.521 479.665 684.844 478.612C674.108 477.641 705.78 440.167 745.056 434.589C760.933 432.335 757.129 415.927 757.123 415.421C757.566 419.138 757.872 423.175 758.028 427.557C758.603 443.505 761.745 457.692 763.612 469.706Z" fill="#ED7D2B"/>
<path d="M641.106 484.633C639.569 487.594 639.223 493.04 638.767 494.889C638.311 496.734 630.26 503.014 629.57 502.699C627.809 501.906 629.492 498.836 630.566 496.594C630.61 496.503 630.651 496.413 630.694 496.325C631.756 494.064 630.844 489.021 631.391 486.416C631.94 483.812 629.298 476.798 629.298 476.798L633.745 471.18C633.745 471.18 636.871 477.126 639.107 478.209C639.501 478.403 639.869 478.634 640.197 478.903C641.712 480.155 642.367 482.197 641.106 484.633Z" fill="#FFB27D"/>
<path d="M700.702 335.242C696.415 335.601 692.414 337.528 689.307 340.504C687.343 342.387 685.163 344.96 683.817 348.033C680.885 354.729 681.894 362.517 680.217 366.792C678.54 371.067 677.534 371.811 680.217 373.747C682.899 375.683 683.349 377.526 680.142 379.577C676.934 381.629 674.567 388.021 683.514 388.577C692.461 389.133 709.802 385.885 712.032 384.23C714.262 382.578 720.351 380.118 723.268 375.689C729.105 366.842 724.455 360.896 719.949 359.397C713.085 357.118 715.608 333.993 700.702 335.242Z" fill="#163560"/>
<path d="M688.958 372.307C688.958 372.307 680.089 392.331 678.24 394.073C676.391 395.816 667.738 399.217 668.515 402.133C669.293 405.05 675.807 407.87 678.53 407.189C681.253 406.509 688.155 394.745 688.155 394.745L688.958 372.307Z" fill="#739AF0"/>
<path d="M669.237 403.886C669.237 403.886 669.718 400.441 678.121 399.329C682.787 398.714 690.591 385.701 690.591 385.701L682.787 406.215L675.223 409.485L669.237 403.886Z" fill="#5A7DE0"/>
<path d="M672.653 410.359C672.653 410.359 628.874 407.296 622.875 414.244C618.115 419.756 626.781 479.983 626.781 479.983C626.781 479.983 638.695 480.33 639.632 477.176C639.632 477.176 637.408 447.936 639.27 442.881C641.131 437.825 639.953 430.826 639.953 430.826C639.953 430.826 663.262 434.318 670.657 432.547C678.058 430.773 672.653 410.359 672.653 410.359Z" fill="#233862"/>
<path d="M625.473 501.981C622.39 503.252 618.612 507.189 617.072 508.307C615.532 509.425 605.33 509.026 605.005 508.342C604.14 506.531 607.707 505.241 609.974 504.198C610.008 504.182 610.039 504.167 610.074 504.151L610.08 504.145C612.322 503.017 614.83 498.686 616.9 497.075C618.999 495.438 621.507 488.377 621.507 488.377L628.527 486.953C628.527 486.953 627.081 493.514 628.089 495.782C628.183 495.997 628.264 496.213 628.33 496.431C628.976 498.539 628.267 500.828 625.473 501.981Z" fill="#FFB27D"/>
<path d="M691.899 412.495C691.899 412.495 644.132 417.348 639.935 422.223C635.738 427.098 619.233 490.495 619.233 490.495C619.233 490.495 624.108 493.212 628.54 490.673C628.54 490.673 641.178 469.166 646.771 462.414C652.361 455.662 654.35 438.028 657.332 436.132C658.132 435.623 686.234 438.783 696.543 430.873C706.848 422.966 691.899 412.495 691.899 412.495Z" fill="#2A4E96"/>
<path d="M712.722 412.582C711.495 414.937 710.158 417.145 708.734 419.134C705.159 424.118 701.018 427.703 696.533 428.634C690.016 429.986 668.172 417.307 669.277 410.312C669.877 406.505 682.018 399.663 683.976 396.9C685.931 394.139 687.112 380.292 688.155 374.64C688.932 370.433 691.54 369.996 694.8 368.878C708.644 364.135 718.499 369.153 718.499 369.153C724.836 372.719 721.313 396.15 712.722 412.582Z" fill="#739AF0"/>
<path d="M712.057 354.745C712.057 354.745 712.801 351.35 713.097 347.724C713.31 345.136 709.378 336.698 703.273 337.047C703.273 337.047 700.543 337.578 698.12 339.571C696.193 341.154 693.501 344.436 697.602 352.359L698.726 355.06L712.057 354.745Z" fill="#163560"/>
<path d="M699.681 368.382C699.881 369.828 701.168 370.652 704.035 370.468C706.939 370.281 711.058 368.523 710.717 367.18C710.418 366.005 709.122 363.251 708.597 356.247L708.069 356.393L699.197 358.885C699.197 358.885 699.625 361.705 699.841 364.378C700.025 366.624 699.581 367.648 699.681 368.382Z" fill="#FFB27D"/>
<path d="M699.197 358.889C699.197 358.889 699.625 361.708 699.841 364.382C704.875 363.844 707.176 359.032 708.069 356.396L699.197 358.889Z" fill="#F4A269"/>
<path d="M699.006 362.992C699.006 362.992 710.617 360.072 708.687 352.871C706.757 345.669 706.957 340.442 699.462 342C691.967 343.558 691.271 346.691 691.33 349.251C691.389 351.812 695.936 363.563 699.006 362.992Z" fill="#FFB27D"/>
<path d="M694.151 343.24C694.151 343.24 698.048 350.669 705.402 351.469C709.706 351.937 710.886 354.773 710.886 354.773C710.886 354.773 709.596 346.666 707.432 341.707C707.432 341.707 695.456 338.577 694.151 343.24Z" fill="#163560"/>
<path d="M695.481 344.224C695.481 344.224 692.939 346.819 692.155 348.645C690.993 351.353 693.257 357.062 694.194 358.292C694.194 358.292 688.792 349.126 690.597 345.157C692.511 340.948 695.481 344.224 695.481 344.224Z" fill="#163560"/>
<path d="M660.071 411.074C660.071 411.074 657.76 413.523 657.479 413.654C655.949 414.369 654.019 413.954 653.085 414.188C652.151 414.422 652.314 413.841 653.001 413.37C653.688 412.898 655.384 413.082 654.69 412.911C653.997 412.739 650.262 412.042 648.854 412.417C646.627 413.014 644.869 412.314 644.728 412.086C644.588 411.858 649.816 409.304 651.308 409.391C652.801 409.479 657.095 409.272 657.095 409.272L660.071 411.074Z" fill="#FFB27D"/>
<path d="M722.428 373.672C722.428 373.672 723.818 407.723 719.814 412.498C715.932 417.126 699.353 413.985 692.189 412.43C691.843 412.355 691.109 412.426 690.59 412.892C690.031 413.395 689.788 409.485 689.788 409.485C689.788 409.485 711.414 406.321 712.866 405.909C714.955 405.319 713.5 381.869 713.5 381.869L722.428 373.672Z" fill="#FFB27D"/>
<path d="M691.474 411.97C691.474 411.97 689.535 413.935 688.798 414.937C688.061 415.94 682.908 417.757 682.793 417.22C682.677 416.683 685.097 415.047 685.319 414.438C685.541 413.829 688.179 410.765 689.788 410.415C691.396 410.066 691.474 411.97 691.474 411.97Z" fill="#FFB27D"/>
<path d="M689.784 409.482C689.784 409.482 681.84 411.318 680.491 411.871C679.142 412.42 676.281 416.47 677.418 417.076C678.133 417.46 681.268 415.805 682.861 415.459C684.454 415.115 688.963 415.896 691.027 411.821C691.258 411.362 689.784 409.482 689.784 409.482Z" fill="#FFB27D"/>
<path d="M625.473 501.98C622.39 503.251 618.612 507.189 617.072 508.307C615.532 509.425 605.33 509.025 605.005 508.342C604.14 506.53 607.707 505.241 609.974 504.198C610.008 504.182 610.039 504.166 610.074 504.151L610.08 504.144L610.399 504.041C610.399 504.041 614.799 505.612 618.455 504.041C621.31 502.817 625.541 498.277 628.33 496.431C628.976 498.539 628.267 500.828 625.473 501.98Z" fill="#2A4E96"/>
<path d="M641.106 484.633C639.569 487.593 639.223 493.04 638.767 494.888C638.311 496.734 630.26 503.014 629.57 502.699C627.809 501.905 629.492 498.836 630.566 496.593C631.2 496.556 632.037 496.334 633.024 495.678C635.035 494.339 638.448 489.28 638.754 486.291C639.004 483.858 638.848 480.37 640.197 478.902C641.712 480.155 642.367 482.197 641.106 484.633Z" fill="#193B72"/>
<path d="M679.542 418.104H644.932L634.52 392.212H669.077L679.542 418.104Z" fill="#EF8035"/>
<path d="M644.525 417.092H690.228V418.104H644.931L644.525 417.092Z" fill="#ED7D2B"/>
<path d="M653.666 405.157C653.407 404.245 653.932 403.508 654.84 403.508C655.749 403.508 656.698 404.245 656.961 405.157C657.223 406.065 656.695 406.806 655.786 406.806C654.878 406.806 653.928 406.069 653.666 405.157Z" fill="white"/>
<path d="M712.723 412.583C711.495 414.937 710.159 417.145 708.735 419.134C697.642 418.719 694.966 414.238 694.966 414.238L712.723 412.583Z" fill="#5A7DE0"/>
<path d="M695.487 408.345C695.487 408.345 708.15 405.437 709.724 402.717C711.298 399.994 713.5 381.866 713.5 381.866L718.784 388.64L717.715 404.579C717.715 404.579 711.688 410.543 711.298 410.325C710.908 410.106 695.487 408.345 695.487 408.345Z" fill="#5A7DE0"/>
<path d="M718.503 369.156C718.503 369.156 721.504 370.665 722.662 372.782C724.864 376.804 727.216 407.973 720.957 413.123C714.702 418.273 696.543 417.245 694.407 413.601C694.407 413.601 694.257 410.181 695.484 408.345C695.484 408.345 711.829 406.184 712.56 405.157C713.288 404.126 712.032 382.044 712.804 380.039C713.578 378.032 718.503 369.156 718.503 369.156Z" fill="#739AF0"/>
<path d="M721.219 412.783C721.219 412.783 716.501 417.205 696.758 417.839C681.319 418.335 665.058 424.559 657.46 435.248C655.343 438.231 653.878 443.14 653.316 446.447C652.286 452.524 690.79 461.971 691.409 461.09C692.027 460.209 716.769 438.952 716.769 438.952L721.219 412.783Z" fill="#F99746"/>
<path d="M542.686 290.873C542.686 290.873 561.888 310.781 562.794 318.273C563.7 325.764 553.597 337.463 553.597 337.463L542.686 290.873Z" fill="#ED7D2B"/>
<path d="M534.01 497.193C534.01 497.193 533.333 507.751 531.29 507.901C531.019 507.92 520.926 507.898 520.926 507.898L508.044 507.795C508.044 507.795 508.135 504.691 511.901 504.045C515.667 503.395 521.975 500.763 524.267 495.791C526.681 490.56 534.01 497.193 534.01 497.193Z" fill="#0E2644"/>
<path d="M562.703 497.256C562.703 497.256 562.026 507.817 559.983 507.964C559.712 507.983 549.619 507.961 549.619 507.961L536.737 507.858C536.737 507.858 536.827 504.754 540.594 504.107C544.36 503.458 550.668 500.828 552.96 495.854C555.374 490.623 562.703 497.256 562.703 497.256Z" fill="#0E2644"/>
<path d="M519.989 383.659C519.989 383.659 523.311 405.216 535.797 443.496C548.282 481.776 549.959 498.342 549.959 498.342L563.443 497.993C563.443 497.993 563.649 456.187 557.9 436.941C552.148 417.692 556.801 367.592 556.801 367.592L519.989 383.659Z" fill="#163560"/>
<path d="M513.462 368.676C513.462 368.676 512.916 401.147 518.446 441.029C523.977 480.911 522.038 497.83 522.038 497.83L535.494 498.308C535.494 498.308 543.623 458.439 541.359 438.481C539.098 418.519 552.52 370.025 552.52 370.025L513.462 368.676Z" fill="#1C468A"/>
<path d="M539.675 292.743L532.496 297.428L522.137 295.473C522.281 294.636 522.974 291.173 523.605 288.034C523.642 287.85 523.68 287.662 523.717 287.481C524.258 284.811 524.723 282.516 524.723 282.516L534.41 278.266L538.023 276.682C538.014 276.739 537.736 279.646 537.698 280.071C537.002 287.616 539.675 292.743 539.675 292.743Z" fill="#FFB27D"/>
<path d="M524.804 290.339C525.004 290.254 537.289 286.657 538.623 287.1C539.956 287.544 540.74 290.126 540.74 290.126L520.651 294.623C520.648 294.623 522.234 291.413 524.804 290.339Z" fill="#ED7D2B"/>
<path d="M557.682 372.782C555.58 382.269 520.945 383.322 512.038 374.684C511.023 373.7 510.986 369.128 511.382 362.97C512.157 350.934 514.602 332.831 514.718 323.581C514.774 319.113 515.395 314.547 516.223 310.4C517.981 301.559 520.651 294.626 520.651 294.626C520.651 294.626 537.577 289.196 540.74 290.133C555.977 294.642 559.783 363.292 557.682 372.782Z" fill="#F99746"/>
<path d="M511.382 362.97C512.157 350.935 514.602 332.831 514.718 323.582C514.774 319.113 515.395 314.547 516.223 310.4L526.403 308.626C526.4 308.623 536.262 349.279 511.382 362.97Z" fill="#ED7D2B"/>
<path d="M516.928 346.203C516.928 346.203 517.619 347.862 516.16 348.973C514.702 350.085 513.753 351.884 514.084 353.202C514.415 354.52 517.606 356.677 518.715 356.334C519.823 355.99 522.081 354.257 521.841 353.564C521.6 352.871 523.371 347.468 520.676 345.379C517.975 343.293 516.928 346.203 516.928 346.203Z" fill="#FFB27D"/>
<path d="M528.424 292.203C528.424 292.203 518.496 294.039 510.564 305.675C502.632 317.311 497.411 325.964 498.857 330.164C500.303 334.365 513.55 348.961 515.839 348.967C518.128 348.973 521.825 347.315 522.041 343.571C522.041 343.571 512.722 329.54 514.571 327.444C515.361 326.548 526.728 317.361 528.34 321.527C531.006 328.419 528.424 292.203 528.424 292.203Z" fill="#F99746"/>
<path d="M536.968 280.205C534.835 283.799 526.909 286.897 523.605 288.034C523.642 287.85 523.68 287.662 523.717 287.481C524.258 284.811 524.723 282.516 524.723 282.516L534.41 278.266C536.546 278.244 537.848 278.728 536.968 280.205Z" fill="#FCA56B"/>
<path d="M521.076 281.922C521.076 281.922 536.652 286.819 539.554 277.07C542.455 267.32 546.418 261.39 536.593 257.848C526.769 254.31 523.721 257.452 521.963 260.472C520.204 263.491 517.097 280.399 521.076 281.922Z" fill="#FFB27D"/>
<path d="M522.578 259.535C522.578 259.535 523.546 270.889 525.894 270.399C528.243 269.912 530.372 269.55 530.023 272.972C529.673 276.395 526.406 280.336 533.642 280.958C540.875 281.579 551.317 262.945 549.338 259.407C543.623 249.201 514.315 247.081 522.578 259.535Z" fill="#163560"/>
<path d="M648.27 230.052C647.979 230.339 647.976 230.808 648.263 231.098C648.551 231.389 649.019 231.392 649.31 231.104C649.6 230.817 649.603 230.349 649.316 230.058C649.028 229.768 648.56 229.765 648.27 230.052Z" fill="#D5E5FB"/>
<path d="M650.678 232.485C650.387 232.772 650.384 233.241 650.671 233.531C650.959 233.821 651.427 233.825 651.717 233.537C652.008 233.25 652.011 232.782 651.724 232.491C651.433 232.198 650.968 232.198 650.678 232.485Z" fill="#D5E5FB"/>
<path d="M654.163 234.952C653.875 234.661 653.407 234.658 653.117 234.945C652.826 235.233 652.823 235.701 653.11 235.992C653.398 236.282 653.866 236.285 654.156 235.998C654.447 235.707 654.45 235.239 654.163 234.952Z" fill="#D5E5FB"/>
<path d="M655.555 237.406C655.265 237.694 655.262 238.162 655.549 238.453C655.837 238.743 656.305 238.746 656.595 238.459C656.886 238.172 656.889 237.703 656.602 237.413C656.314 237.122 655.846 237.119 655.555 237.406Z" fill="#D5E5FB"/>
<path d="M657.963 239.839C657.673 240.126 657.67 240.595 657.957 240.885C658.244 241.176 658.713 241.179 659.003 240.892C659.293 240.604 659.297 240.136 659.009 239.845C658.722 239.552 658.254 239.552 657.963 239.839Z" fill="#D5E5FB"/>
<path d="M661.448 242.306C661.161 242.016 660.693 242.013 660.402 242.3C660.112 242.587 660.109 243.056 660.396 243.346C660.683 243.636 661.152 243.64 661.442 243.352C661.732 243.062 661.736 242.593 661.448 242.306Z" fill="#D5E5FB"/>
<path d="M662.744 244.664C662.454 244.951 662.451 245.42 662.738 245.71C663.026 246 663.494 246.004 663.784 245.716C664.075 245.429 664.078 244.961 663.791 244.67C663.503 244.38 663.035 244.377 662.744 244.664Z" fill="#D5E5FB"/>
<path d="M665.152 247.094C664.861 247.381 664.858 247.849 665.146 248.14C665.433 248.43 665.901 248.433 666.192 248.146C666.482 247.859 666.485 247.39 666.198 247.1C665.908 246.809 665.442 246.806 665.152 247.094Z" fill="#D5E5FB"/>
<path d="M668.637 249.56C668.35 249.27 667.881 249.267 667.591 249.554C667.3 249.842 667.297 250.31 667.585 250.6C667.872 250.891 668.34 250.894 668.631 250.607C668.921 250.319 668.924 249.851 668.637 249.56Z" fill="#D5E5FB"/>
<path d="M670.03 252.018C669.739 252.306 669.736 252.774 670.024 253.064C670.311 253.355 670.779 253.358 671.07 253.071C671.36 252.783 671.363 252.315 671.076 252.024C670.789 251.734 670.32 251.731 670.03 252.018Z" fill="#D5E5FB"/>
<path d="M672.438 254.448C672.147 254.735 672.144 255.204 672.432 255.494C672.719 255.784 673.187 255.787 673.478 255.5C673.768 255.213 673.771 254.744 673.484 254.454C673.197 254.164 672.728 254.16 672.438 254.448Z" fill="#D5E5FB"/>
<path d="M675.923 256.915C675.635 256.624 675.167 256.621 674.877 256.908C674.586 257.196 674.583 257.664 674.87 257.955C675.158 258.245 675.626 258.248 675.916 257.961C676.207 257.674 676.21 257.205 675.923 256.915Z" fill="#D5E5FB"/>
<path d="M618.976 237.556C618.58 237.465 618.183 237.712 618.09 238.112C617.999 238.508 618.246 238.905 618.645 238.999C619.042 239.089 619.439 238.843 619.532 238.443C619.623 238.043 619.376 237.647 618.976 237.556Z" fill="#D5E5FB"/>
<path d="M618.212 240.888C617.815 240.797 617.419 241.044 617.325 241.444C617.235 241.84 617.481 242.237 617.881 242.33C618.278 242.421 618.674 242.174 618.768 241.775C618.858 241.375 618.609 240.978 618.212 240.888Z" fill="#D5E5FB"/>
<path d="M617.987 245.151C618.077 244.754 617.83 244.357 617.431 244.264C617.034 244.173 616.638 244.42 616.544 244.82C616.453 245.216 616.7 245.613 617.1 245.706C617.499 245.797 617.896 245.55 617.987 245.151Z" fill="#D5E5FB"/>
<path d="M616.656 247.643C616.26 247.552 615.863 247.799 615.769 248.198C615.679 248.595 615.926 248.992 616.325 249.085C616.722 249.176 617.119 248.929 617.212 248.529C617.303 248.133 617.053 247.733 616.656 247.643Z" fill="#D5E5FB"/>
<path d="M615.888 250.978C615.492 250.887 615.095 251.134 615.001 251.534C614.911 251.93 615.158 252.327 615.557 252.421C615.954 252.511 616.35 252.264 616.444 251.865C616.535 251.465 616.285 251.068 615.888 250.978Z" fill="#D5E5FB"/>
<path d="M615.667 255.241C615.757 254.844 615.511 254.447 615.111 254.354C614.714 254.263 614.318 254.51 614.224 254.91C614.133 255.306 614.38 255.703 614.78 255.796C615.177 255.887 615.573 255.637 615.667 255.241Z" fill="#D5E5FB"/>
<path d="M614.365 257.595C613.968 257.505 613.572 257.751 613.478 258.151C613.387 258.548 613.634 258.944 614.034 259.038C614.43 259.128 614.827 258.882 614.921 258.482C615.011 258.085 614.761 257.689 614.365 257.595Z" fill="#D5E5FB"/>
<path d="M613.596 260.931C613.2 260.84 612.803 261.087 612.709 261.486C612.619 261.883 612.866 262.28 613.265 262.373C613.662 262.464 614.058 262.217 614.152 261.817C614.243 261.418 613.996 261.021 613.596 260.931Z" fill="#D5E5FB"/>
<path d="M613.375 265.193C613.465 264.796 613.218 264.4 612.819 264.306C612.422 264.216 612.025 264.462 611.932 264.862C611.841 265.259 612.088 265.655 612.488 265.749C612.884 265.84 613.284 265.593 613.375 265.193Z" fill="#D5E5FB"/>
<path d="M612.041 267.685C611.644 267.595 611.248 267.841 611.154 268.241C611.063 268.638 611.31 269.034 611.71 269.128C612.106 269.219 612.503 268.972 612.597 268.572C612.687 268.172 612.441 267.776 612.041 267.685Z" fill="#D5E5FB"/>
<path d="M611.276 271.017C610.879 270.927 610.483 271.174 610.389 271.573C610.299 271.97 610.545 272.367 610.945 272.46C611.342 272.551 611.738 272.304 611.832 271.904C611.926 271.505 611.673 271.111 611.276 271.017Z" fill="#D5E5FB"/>
<path d="M611.051 275.283C611.142 274.887 610.895 274.49 610.495 274.396C610.099 274.306 609.702 274.553 609.608 274.952C609.518 275.349 609.764 275.745 610.164 275.839C610.564 275.93 610.961 275.68 611.051 275.283Z" fill="#D5E5FB"/>
<path d="M647.02 213.72C647.02 204.816 639.803 197.599 630.9 197.599C621.997 197.599 614.78 204.816 614.78 213.72C614.78 222.623 621.997 229.84 630.9 229.84C639.8 229.84 647.02 222.623 647.02 213.72Z" fill="#C6DCF7"/>
<path d="M636.072 207.249C636.072 204.391 633.754 202.074 630.897 202.074C628.04 202.074 625.722 204.391 625.722 207.249C625.722 210.106 628.04 212.423 630.897 212.423C633.754 212.423 636.072 210.109 636.072 207.249Z" fill="#EBF3FA"/>
<path d="M630.897 212.423C635.897 212.423 639.953 216.477 639.953 221.48H621.844C621.844 216.477 625.897 212.423 630.897 212.423Z" fill="#EBF3FA"/>
<path d="M670.189 263.47L669.593 261.989C668.952 260.403 667.413 259.363 665.701 259.363H654.681V266.355V296.21H700.271V266.355H674.473C672.587 266.358 670.892 265.215 670.189 263.47Z" fill="#C6DCF7"/>
<path d="M684.291 276.189H682.767C682.811 275.942 682.836 275.686 682.836 275.427V274.906C682.836 272.504 680.881 270.549 678.48 270.549H675.803C673.402 270.549 671.447 272.504 671.447 274.906V275.427C671.447 275.686 671.472 275.942 671.516 276.189H669.823C668.939 276.189 668.221 276.907 668.221 277.791V284.78C668.221 288.737 671.428 291.944 675.385 291.944H679.613C683.332 291.944 686.343 288.93 686.343 285.214V278.241C686.346 277.107 685.425 276.189 684.291 276.189ZM677.796 283.222V286.469C677.796 286.751 677.565 286.982 677.283 286.982C677.002 286.982 676.771 286.751 676.771 286.469V283.222C675.713 282.987 674.92 282.044 674.92 280.914C674.92 279.609 675.978 278.55 677.283 278.55C678.589 278.55 679.647 279.609 679.647 280.914C679.644 282.048 678.854 282.991 677.796 283.222ZM681.093 275.427C681.093 275.693 681.053 275.949 680.981 276.189H673.305C673.23 275.949 673.189 275.693 673.189 275.427V274.906C673.189 273.463 674.36 272.292 675.803 272.292H678.48C679.922 272.292 681.093 273.463 681.093 274.906V275.427Z" fill="#EBF3FA"/>
<path d="M593.085 298.168C593.085 306.403 607.029 321.43 607.029 321.43C607.029 321.43 620.969 306.403 620.969 298.168C620.969 289.939 614.73 283.266 607.029 283.266C599.328 283.266 593.085 289.936 593.085 298.168ZM598.938 296.656C598.938 292.191 602.557 288.565 607.029 288.565C611.495 288.565 615.12 292.187 615.12 296.656C615.12 301.125 611.498 304.748 607.029 304.748C602.557 304.748 598.938 301.125 598.938 296.656Z" fill="#C6DCF7"/>
<path d="M814.315 510H0.961838C0.430954 510 0 509.566 0 509.038V508.613C0 508.083 0.434077 507.652 0.961838 507.652H814.315C814.845 507.652 815.276 508.086 815.276 508.613V509.038C815.276 509.566 814.842 510 814.315 510Z" fill="#233862"/>
<path d="M271.007 292.306C270.664 290.885 271.285 289.767 272.603 289.767C273.915 289.764 275.064 290.863 275.414 292.3C275.757 293.721 275.142 294.839 273.818 294.839C272.494 294.839 271.357 293.743 271.007 292.306ZM274.296 292.3C274.08 291.41 273.478 290.739 272.828 290.739C272.175 290.739 271.91 291.391 272.128 292.303C272.347 293.199 272.937 293.865 273.596 293.865C274.255 293.865 274.514 293.206 274.296 292.3Z" fill="#F99746"/>
<path d="M251.967 255.454L251.155 255.667L250.715 254.783L252.036 254.361H252.779L253.975 259.302L252.898 259.305L251.967 255.454Z" fill="#2F539B"/>
<path d="M255.831 256.84C255.487 255.419 256.109 254.301 257.426 254.301C258.738 254.298 259.887 255.397 260.237 256.834C260.58 258.255 259.965 259.37 258.641 259.373C257.317 259.376 256.18 258.277 255.831 256.84ZM259.119 256.837C258.903 255.947 258.301 255.276 257.651 255.276C256.999 255.276 256.733 255.928 256.952 256.84C257.167 257.736 257.761 258.401 258.419 258.401C259.078 258.398 259.338 257.739 259.119 256.837Z" fill="#2F539B"/>
<path d="M279.049 325.077C278.705 323.657 279.327 322.539 280.645 322.539C281.956 322.535 283.105 323.635 283.455 325.071C283.799 326.492 283.184 327.61 281.859 327.61C280.535 327.61 279.395 326.514 279.049 325.077ZM282.334 325.071C282.119 324.181 281.516 323.51 280.866 323.51C280.217 323.51 279.948 324.162 280.167 325.074C280.385 325.971 280.979 326.636 281.635 326.636C282.297 326.633 282.556 325.974 282.334 325.071Z" fill="#2F539B"/>
<path d="M257.555 278.528L256.743 278.74L256.302 277.857L257.623 277.435H258.366L259.563 282.375H258.485L257.555 278.528Z" fill="#2F539B"/>
<path d="M261.417 279.918C261.074 278.497 261.695 277.379 263.013 277.379C264.324 277.376 265.474 278.475 265.823 279.912C266.167 281.333 265.552 282.447 264.228 282.451C262.903 282.451 261.767 281.351 261.417 279.918ZM264.705 279.912C264.49 279.022 263.887 278.35 263.238 278.35C262.585 278.35 262.32 279.003 262.538 279.915C262.757 280.811 263.347 281.476 264.006 281.476C264.665 281.473 264.924 280.814 264.705 279.912Z" fill="#2F539B"/>
<path d="M260.774 266.921L259.962 267.133L259.522 266.249L260.843 265.828H261.586L262.782 270.768L261.705 270.771L260.774 266.921Z" fill="#F99746"/>
<path d="M264.637 268.307C264.293 266.886 264.915 265.768 266.233 265.768C267.544 265.765 268.694 266.864 269.043 268.301C269.387 269.722 268.772 270.837 267.448 270.84C266.123 270.843 264.984 269.744 264.637 268.307ZM267.922 268.304C267.707 267.414 267.104 266.743 266.454 266.743C265.802 266.743 265.536 267.395 265.755 268.307C265.974 269.203 266.567 269.868 267.223 269.868C267.885 269.865 268.144 269.206 267.922 268.304Z" fill="#F99746"/>
<path d="M260.555 290.929L259.743 291.141L259.303 290.258L260.624 289.836H261.367L262.563 294.776H261.486L260.555 290.929Z" fill="#2F539B"/>
<path d="M264.422 292.319C264.078 290.898 264.7 289.78 266.017 289.78C267.329 289.777 268.478 290.876 268.828 292.312C269.172 293.733 268.556 294.848 267.232 294.851C265.908 294.851 264.768 293.752 264.422 292.319ZM267.707 292.312C267.491 291.422 266.889 290.751 266.239 290.751C265.586 290.751 265.321 291.404 265.54 292.316C265.758 293.212 266.348 293.877 267.007 293.877C267.669 293.874 267.926 293.215 267.707 292.312Z" fill="#2F539B"/>
<path d="M274.517 256.837C274.174 255.416 274.795 254.298 276.113 254.298C277.425 254.295 278.574 255.394 278.924 256.83C279.267 258.251 278.652 259.369 277.328 259.369C276.004 259.369 274.864 258.27 274.517 256.837ZM277.803 256.83C277.587 255.94 276.984 255.269 276.335 255.269C275.682 255.269 275.417 255.922 275.635 256.834C275.854 257.73 276.447 258.395 277.103 258.395C277.765 258.392 278.021 257.733 277.803 256.83Z" fill="#F99746"/>
<path d="M264.065 255.46L263.254 255.672L262.813 254.788L264.134 254.367H264.877L266.074 259.304L264.996 259.307L264.065 255.46Z" fill="#2F539B"/>
<path d="M267.931 256.846C267.588 255.425 268.209 254.308 269.527 254.308C270.839 254.304 271.988 255.404 272.338 256.84C272.681 258.261 272.066 259.376 270.742 259.379C269.415 259.382 268.278 258.283 267.931 256.846ZM271.217 256.84C271.001 255.95 270.398 255.279 269.749 255.279C269.096 255.279 268.831 255.931 269.049 256.843C269.268 257.74 269.861 258.405 270.517 258.405C271.176 258.405 271.435 257.746 271.217 256.84Z" fill="#2F539B"/>
<path d="M276.744 316.261C276.4 314.841 277.022 313.723 278.34 313.723C279.651 313.719 280.801 314.819 281.15 316.255C281.494 317.676 280.879 318.794 279.554 318.794C278.23 318.794 277.094 317.695 276.744 316.261ZM280.032 316.255C279.817 315.365 279.214 314.694 278.565 314.694C277.912 314.694 277.646 315.346 277.865 316.258C278.084 317.155 278.674 317.82 279.333 317.82C279.992 317.82 280.251 317.158 280.032 316.255Z" fill="#F99746"/>
<path d="M263.291 302.484L262.479 302.696L262.039 301.812L263.36 301.391H264.103L265.299 306.331L264.221 306.334L263.291 302.484Z" fill="#2F539B"/>
<path d="M267.157 303.87C266.813 302.449 267.434 301.331 268.752 301.331C270.064 301.328 271.213 302.428 271.563 303.864C271.906 305.285 271.291 306.4 269.967 306.403C268.643 306.406 267.503 305.307 267.157 303.87ZM270.442 303.864C270.226 302.974 269.624 302.303 268.974 302.303C268.321 302.303 268.056 302.955 268.274 303.867C268.493 304.763 269.086 305.429 269.742 305.429C270.401 305.429 270.66 304.77 270.442 303.864Z" fill="#2F539B"/>
<path d="M273.743 303.861C273.399 302.44 274.021 301.322 275.339 301.322C276.65 301.319 277.8 302.418 278.149 303.854C278.493 305.275 277.878 306.393 276.554 306.393C275.229 306.393 274.09 305.294 273.743 303.861ZM277.028 303.854C276.813 302.964 276.21 302.293 275.56 302.293C274.908 302.293 274.642 302.946 274.861 303.858C275.08 304.754 275.673 305.419 276.329 305.419C276.988 305.416 277.247 304.757 277.028 303.854Z" fill="#2F539B"/>
<path d="M280.835 302.452L280.023 302.665L279.583 301.781L280.904 301.359H281.647L282.843 306.3L281.766 306.303L280.835 302.452Z" fill="#2F539B"/>
<path d="M266.292 314.881L265.48 315.094L265.04 314.21L266.361 313.788H267.104L268.3 318.729L267.223 318.732L266.292 314.881Z" fill="#2F539B"/>
<path d="M270.158 316.271C269.815 314.85 270.436 313.732 271.754 313.732C273.066 313.729 274.215 314.828 274.565 316.265C274.908 317.686 274.293 318.801 272.969 318.804C271.645 318.807 270.505 317.708 270.158 316.271ZM273.443 316.265C273.228 315.375 272.625 314.703 271.976 314.703C271.323 314.703 271.058 315.356 271.276 316.268C271.495 317.164 272.085 317.829 272.744 317.829C273.406 317.829 273.662 317.17 273.443 316.265Z" fill="#2F539B"/>
<path d="M282.568 343.755C282.224 342.334 282.846 341.216 284.164 341.216C285.475 341.213 286.624 342.312 286.974 343.749C287.318 345.17 286.703 346.285 285.378 346.288C284.054 346.291 282.918 345.192 282.568 343.755ZM285.856 343.749C285.641 342.859 285.038 342.188 284.389 342.188C283.736 342.188 283.47 342.84 283.689 343.752C283.908 344.648 284.498 345.313 285.157 345.313C285.816 345.313 286.075 344.655 285.856 343.749Z" fill="#2F539B"/>
<path d="M289.663 342.35L288.851 342.562L288.411 341.679L289.732 341.257H290.475L291.671 346.197L290.594 346.2L289.663 342.35Z" fill="#2F539B"/>
<path d="M272.119 342.378L271.307 342.59L270.867 341.707L272.188 341.285H272.931L274.127 346.225L273.05 346.228L272.119 342.378Z" fill="#2F539B"/>
<path d="M275.982 343.768C275.638 342.347 276.26 341.232 277.578 341.229C278.889 341.226 280.039 342.325 280.388 343.761C280.732 345.182 280.117 346.297 278.793 346.3C277.468 346.3 276.329 345.201 275.982 343.768ZM279.27 343.761C279.055 342.871 278.452 342.2 277.803 342.2C277.15 342.2 276.884 342.853 277.103 343.765C277.322 344.661 277.915 345.326 278.571 345.326C279.23 345.323 279.489 344.664 279.27 343.761Z" fill="#2F539B"/>
<path d="M293.526 343.736C293.183 342.315 293.804 341.201 295.122 341.198C296.434 341.194 297.583 342.294 297.933 343.73C298.276 345.151 297.661 346.266 296.337 346.269C295.013 346.272 293.876 345.173 293.526 343.736ZM296.815 343.73C296.599 342.84 295.996 342.169 295.347 342.169C294.694 342.169 294.429 342.821 294.647 343.733C294.866 344.63 295.459 345.295 296.115 345.295C296.774 345.295 297.033 344.636 296.815 343.73Z" fill="#F99746"/>
<path d="M300.113 343.727C299.769 342.306 300.391 341.188 301.708 341.188C303.02 341.185 304.169 342.284 304.519 343.721C304.862 345.142 304.247 346.256 302.923 346.26C301.599 346.26 300.462 345.16 300.113 343.727ZM303.401 343.721C303.185 342.831 302.583 342.159 301.933 342.159C301.281 342.159 301.015 342.812 301.234 343.724C301.452 344.62 302.042 345.285 302.701 345.285C303.36 345.282 303.62 344.623 303.401 343.721Z" fill="#F99746"/>
<path d="M274.43 352.599C274.086 351.178 274.708 350.06 276.026 350.06C277.337 350.057 278.487 351.156 278.836 352.593C279.18 354.014 278.565 355.132 277.241 355.132C275.916 355.132 274.78 354.036 274.43 352.599ZM277.718 352.593C277.503 351.703 276.9 351.031 276.251 351.031C275.598 351.031 275.332 351.684 275.551 352.596C275.77 353.492 276.36 354.157 277.019 354.157C277.678 354.157 277.937 353.498 277.718 352.593Z" fill="#2F539B"/>
<path d="M281.522 351.194L280.71 351.406L280.27 350.522L281.591 350.101H282.334L283.53 355.041H282.453L281.522 351.194Z" fill="#2F539B"/>
<path d="M285.388 352.581C285.045 351.16 285.666 350.045 286.984 350.042C288.296 350.039 289.445 351.138 289.795 352.574C290.138 353.995 289.523 355.11 288.199 355.113C286.875 355.116 285.735 354.017 285.388 352.581ZM288.674 352.577C288.458 351.687 287.855 351.016 287.206 351.016C286.553 351.016 286.288 351.669 286.506 352.581C286.725 353.477 287.315 354.142 287.974 354.142C288.636 354.139 288.892 353.48 288.674 352.577Z" fill="#2F539B"/>
<path d="M291.974 352.571C291.631 351.15 292.252 350.032 293.57 350.032C294.882 350.029 296.031 351.128 296.38 352.565C296.724 353.986 296.109 355.103 294.785 355.103C293.461 355.103 292.321 354.007 291.974 352.571ZM295.263 352.565C295.047 351.675 294.444 351.003 293.795 351.003C293.142 351.003 292.877 351.656 293.095 352.568C293.311 353.464 293.904 354.129 294.563 354.129C295.222 354.129 295.481 353.467 295.263 352.565Z" fill="#2F539B"/>
<path d="M481.843 343.755C481.5 342.334 482.121 341.216 483.439 341.216C484.751 341.213 485.9 342.312 486.25 343.749C486.593 345.17 485.978 346.285 484.654 346.288C483.33 346.291 482.19 345.192 481.843 343.755ZM485.129 343.749C484.913 342.859 484.31 342.188 483.661 342.188C483.008 342.188 482.743 342.84 482.961 343.752C483.177 344.648 483.77 345.313 484.429 345.313C485.091 345.313 485.347 344.655 485.129 343.749Z" fill="#2F539B"/>
<path d="M488.935 342.35L488.123 342.562L487.683 341.678L489.004 341.257H489.747L490.943 346.197L489.866 346.2L488.935 342.35Z" fill="#2F539B"/>
<path d="M471.391 342.378L470.579 342.59L470.139 341.706L471.46 341.285H472.203L473.399 346.225L472.322 346.228L471.391 342.378Z" fill="#2F539B"/>
<path d="M475.258 343.768C474.914 342.347 475.536 341.232 476.853 341.229C478.165 341.226 479.314 342.325 479.664 343.761C480.007 345.182 479.392 346.297 478.068 346.3C476.741 346.3 475.604 345.201 475.258 343.768ZM478.543 343.761C478.327 342.871 477.725 342.2 477.072 342.2C476.419 342.2 476.154 342.853 476.372 343.765C476.591 344.661 477.184 345.326 477.84 345.326C478.502 345.323 478.761 344.664 478.543 343.761Z" fill="#2F539B"/>
<path d="M492.802 343.736C492.458 342.315 493.08 341.201 494.397 341.197C495.709 341.194 496.858 342.294 497.208 343.73C497.551 345.151 496.936 346.266 495.612 346.269C494.285 346.272 493.148 345.173 492.802 343.736ZM496.087 343.73C495.871 342.84 495.269 342.169 494.616 342.169C493.963 342.169 493.698 342.821 493.916 343.733C494.135 344.629 494.725 345.295 495.384 345.295C496.046 345.295 496.305 344.636 496.087 343.73Z" fill="#F99746"/>
<path d="M499.387 343.727C499.044 342.306 499.665 341.188 500.983 341.188C502.295 341.185 503.444 342.284 503.794 343.721C504.137 345.142 503.522 346.256 502.198 346.26C500.874 346.26 499.734 345.16 499.387 343.727ZM502.673 343.721C502.457 342.831 501.855 342.159 501.205 342.159C500.552 342.159 500.287 342.812 500.505 343.724C500.724 344.62 501.314 345.285 501.973 345.285C502.635 345.282 502.891 344.623 502.673 343.721Z" fill="#F99746"/>
<path d="M455.502 352.599C455.159 351.178 455.78 350.06 457.098 350.06C458.41 350.057 459.559 351.156 459.909 352.593C460.252 354.014 459.637 355.132 458.313 355.132C456.989 355.132 455.849 354.036 455.502 352.599ZM458.788 352.593C458.572 351.703 457.97 351.031 457.32 351.031C456.667 351.031 456.402 351.684 456.62 352.596C456.839 353.492 457.429 354.157 458.088 354.157C458.747 354.157 459.006 353.498 458.788 352.593Z" fill="#2F539B"/>
<path d="M462.594 351.194L461.782 351.406L461.342 350.522L462.663 350.101H463.406L464.602 355.041H463.525L462.594 351.194Z" fill="#2F539B"/>
<path d="M466.457 352.581C466.114 351.16 466.735 350.045 468.053 350.042C469.364 350.039 470.514 351.138 470.863 352.574C471.207 353.995 470.592 355.11 469.268 355.113C467.944 355.116 466.807 354.017 466.457 352.581ZM469.745 352.577C469.53 351.687 468.927 351.016 468.278 351.016C467.625 351.016 467.36 351.669 467.578 352.581C467.797 353.477 468.387 354.142 469.046 354.142C469.705 354.139 469.964 353.48 469.745 352.577Z" fill="#2F539B"/>
<path d="M473.043 352.571C472.7 351.15 473.321 350.032 474.639 350.032C475.951 350.029 477.1 351.128 477.45 352.564C477.793 353.985 477.178 355.103 475.854 355.103C474.53 355.103 473.393 354.007 473.043 352.571ZM476.332 352.564C476.116 351.674 475.513 351.003 474.861 351.003C474.208 351.003 473.943 351.656 474.161 352.568C474.38 353.464 474.97 354.129 475.629 354.129C476.288 354.129 476.55 353.467 476.332 352.564Z" fill="#2F539B"/>
<path d="M290.935 375.749C290.591 374.328 291.213 373.213 292.53 373.21C293.842 373.207 294.991 374.306 295.341 375.742C295.684 377.163 295.069 378.278 293.745 378.281C292.421 378.284 291.284 377.185 290.935 375.749ZM294.223 375.742C294.007 374.852 293.405 374.181 292.755 374.181C292.103 374.181 291.837 374.834 292.056 375.746C292.274 376.642 292.865 377.307 293.523 377.307C294.182 377.307 294.442 376.648 294.223 375.742Z" fill="#F99746"/>
<path d="M298.026 374.343L297.215 374.556L296.774 373.672L298.095 373.25H298.838L300.034 378.191L298.957 378.194L298.026 374.343Z" fill="#F99746"/>
<path d="M277.481 361.971L276.669 362.183L276.229 361.299L277.55 360.878H278.293L279.489 365.818L278.412 365.821L277.481 361.971Z" fill="#2F539B"/>
<path d="M281.347 363.36C281.004 361.939 281.625 360.821 282.943 360.821C284.255 360.818 285.404 361.918 285.754 363.354C286.097 364.775 285.482 365.893 284.158 365.893C282.831 365.893 281.694 364.794 281.347 363.36ZM284.632 363.354C284.417 362.464 283.814 361.793 283.165 361.793C282.512 361.793 282.247 362.445 282.465 363.357C282.684 364.253 283.274 364.919 283.933 364.919C284.592 364.915 284.851 364.257 284.632 363.354Z" fill="#2F539B"/>
<path d="M287.933 363.348C287.59 361.927 288.211 360.812 289.529 360.809C290.841 360.806 291.99 361.905 292.34 363.342C292.683 364.763 292.068 365.877 290.744 365.881C289.417 365.884 288.28 364.784 287.933 363.348ZM291.219 363.342C291.003 362.452 290.4 361.78 289.751 361.78C289.098 361.78 288.833 362.433 289.051 363.345C289.27 364.241 289.863 364.906 290.519 364.906C291.181 364.906 291.437 364.247 291.219 363.342Z" fill="#2F539B"/>
<path d="M295.025 361.943L294.213 362.155L293.773 361.271L295.094 360.85H295.837L297.033 365.79L295.956 365.793L295.025 361.943Z" fill="#2F539B"/>
<path d="M470.302 361.971L469.49 362.183L469.05 361.299L470.371 360.878H471.114L472.31 365.818L471.232 365.821L470.302 361.971Z" fill="#2F539B"/>
<path d="M474.164 363.36C473.821 361.939 474.442 360.821 475.76 360.821C477.071 360.818 478.221 361.918 478.57 363.354C478.914 364.775 478.299 365.893 476.975 365.893C475.651 365.893 474.514 364.794 474.164 363.36ZM477.452 363.354C477.237 362.464 476.634 361.793 475.985 361.793C475.332 361.793 475.067 362.445 475.285 363.357C475.504 364.253 476.094 364.919 476.753 364.919C477.412 364.915 477.671 364.257 477.452 363.354Z" fill="#2F539B"/>
<path d="M480.754 363.348C480.41 361.927 481.032 360.812 482.349 360.809C483.661 360.806 484.81 361.905 485.16 363.342C485.504 364.763 484.888 365.877 483.564 365.881C482.237 365.884 481.1 364.784 480.754 363.348ZM484.039 363.342C483.823 362.452 483.221 361.78 482.571 361.78C481.919 361.78 481.653 362.433 481.872 363.345C482.09 364.241 482.68 364.906 483.339 364.906C483.998 364.906 484.258 364.247 484.039 363.342Z" fill="#2F539B"/>
<path d="M487.846 361.943L487.034 362.155L486.594 361.271L487.914 360.85H488.658L489.854 365.79L488.776 365.793L487.846 361.943Z" fill="#2F539B"/>
<path d="M280.482 374.372L279.67 374.584L279.23 373.7L280.551 373.279H281.294L282.49 378.219L281.413 378.222L280.482 374.372Z" fill="#2F539B"/>
<path d="M284.348 375.761C284.005 374.34 284.626 373.222 285.944 373.222C287.256 373.219 288.405 374.318 288.755 375.755C289.098 377.176 288.483 378.294 287.159 378.294C285.835 378.294 284.695 377.195 284.348 375.761ZM287.634 375.755C287.418 374.865 286.815 374.193 286.166 374.193C285.513 374.193 285.248 374.846 285.466 375.758C285.682 376.654 286.275 377.319 286.934 377.319C287.593 377.319 287.852 376.657 287.634 375.755Z" fill="#2F539B"/>
<path d="M301.893 375.73C301.549 374.309 302.171 373.191 303.488 373.191C304.8 373.188 305.949 374.287 306.299 375.724C306.642 377.145 306.027 378.26 304.703 378.263C303.379 378.266 302.239 377.167 301.893 375.73ZM305.178 375.724C304.962 374.834 304.36 374.162 303.71 374.162C303.057 374.162 302.792 374.815 303.011 375.727C303.229 376.623 303.819 377.288 304.478 377.288C305.14 377.288 305.396 376.63 305.178 375.724Z" fill="#2F539B"/>
<path d="M308.479 375.718C308.135 374.297 308.757 373.182 310.074 373.179C311.386 373.176 312.535 374.275 312.885 375.711C313.228 377.132 312.613 378.247 311.289 378.25C309.965 378.253 308.828 377.154 308.479 375.718ZM311.767 375.714C311.551 374.824 310.949 374.153 310.299 374.153C309.647 374.153 309.381 374.806 309.6 375.718C309.818 376.614 310.408 377.279 311.067 377.279C311.726 377.276 311.986 376.617 311.767 375.714Z" fill="#2F539B"/>
<path d="M293.476 384.505C293.133 383.084 293.754 381.966 295.072 381.966C296.384 381.963 297.533 383.063 297.883 384.499C298.226 385.92 297.611 387.035 296.287 387.038C294.96 387.038 293.823 385.939 293.476 384.505ZM296.762 384.499C296.546 383.609 295.943 382.938 295.294 382.938C294.641 382.938 294.376 383.59 294.594 384.502C294.813 385.398 295.403 386.064 296.062 386.064C296.721 386.06 296.98 385.402 296.762 384.499Z" fill="#F99746"/>
<path d="M300.568 383.097L299.756 383.309L299.316 382.425L300.637 382.004H301.38L302.576 386.944L301.499 386.947L300.568 383.097Z" fill="#F99746"/>
<path d="M286.887 384.515C286.544 383.094 287.165 381.976 288.483 381.976C289.795 381.973 290.944 383.072 291.294 384.508C291.637 385.929 291.022 387.047 289.698 387.047C288.374 387.05 287.237 385.951 286.887 384.515ZM290.176 384.508C289.96 383.618 289.357 382.947 288.708 382.947C288.055 382.947 287.79 383.6 288.008 384.511C288.227 385.408 288.817 386.073 289.476 386.073C290.135 386.073 290.394 385.414 290.176 384.508Z" fill="#2F539B"/>
<path d="M304.431 384.487C304.087 383.066 304.709 381.948 306.027 381.948C307.338 381.945 308.488 383.044 308.837 384.48C309.181 385.901 308.566 387.019 307.242 387.019C305.917 387.019 304.781 385.923 304.431 384.487ZM307.719 384.48C307.504 383.59 306.901 382.919 306.252 382.919C305.599 382.919 305.333 383.572 305.552 384.483C305.771 385.38 306.364 386.045 307.02 386.045C307.679 386.042 307.938 385.383 307.719 384.48Z" fill="#2F539B"/>
<path d="M311.021 384.474C310.677 383.053 311.298 381.938 312.616 381.935C313.928 381.932 315.077 383.031 315.427 384.468C315.77 385.889 315.155 387.004 313.831 387.007C312.504 387.01 311.367 385.911 311.021 384.474ZM314.306 384.468C314.09 383.578 313.488 382.906 312.838 382.906C312.185 382.906 311.92 383.559 312.139 384.471C312.357 385.367 312.947 386.032 313.606 386.032C314.265 386.032 314.524 385.373 314.306 384.468Z" fill="#2F539B"/>
<path d="M333.683 384.505C333.34 383.084 333.961 381.966 335.279 381.966C336.591 381.963 337.74 383.063 338.09 384.499C338.433 385.92 337.818 387.035 336.494 387.038C335.17 387.038 334.03 385.939 333.683 384.505ZM336.969 384.499C336.753 383.609 336.15 382.938 335.501 382.938C334.848 382.938 334.583 383.59 334.801 384.502C335.02 385.398 335.61 386.064 336.269 386.064C336.931 386.06 337.19 385.402 336.969 384.499Z" fill="#F99746"/>
<path d="M340.775 383.097L339.963 383.309L339.523 382.425L340.844 382.004H341.587L342.783 386.944L341.706 386.947L340.775 383.097Z" fill="#F99746"/>
<path d="M327.097 384.515C326.754 383.094 327.375 381.976 328.693 381.976C330.005 381.973 331.154 383.072 331.504 384.508C331.847 385.929 331.232 387.047 329.908 387.047C328.584 387.047 327.444 385.951 327.097 384.515ZM330.382 384.508C330.167 383.618 329.564 382.947 328.915 382.947C328.262 382.947 327.997 383.6 328.215 384.511C328.434 385.408 329.027 386.073 329.683 386.073C330.339 386.073 330.601 385.414 330.382 384.508Z" fill="#2F539B"/>
<path d="M344.641 384.487C344.298 383.066 344.919 381.948 346.237 381.948C347.549 381.945 348.698 383.044 349.048 384.48C349.391 385.901 348.776 387.019 347.452 387.019C346.128 387.019 344.988 385.923 344.641 384.487ZM347.927 384.48C347.711 383.59 347.108 382.919 346.459 382.919C345.806 382.919 345.541 383.572 345.759 384.483C345.978 385.38 346.571 386.045 347.227 386.045C347.886 386.042 348.145 385.383 347.927 384.48Z" fill="#2F539B"/>
<path d="M351.227 384.474C350.883 383.053 351.505 381.938 352.823 381.935C354.134 381.932 355.283 383.031 355.633 384.468C355.977 385.889 355.361 387.004 354.037 387.007C352.713 387.01 351.573 385.911 351.227 384.474ZM354.512 384.468C354.297 383.578 353.694 382.906 353.044 382.906C352.392 382.906 352.126 383.559 352.345 384.471C352.563 385.367 353.154 386.032 353.813 386.032C354.475 386.032 354.731 385.373 354.512 384.468Z" fill="#2F539B"/>
<path d="M425.223 384.505C424.879 383.084 425.501 381.966 426.818 381.966C428.13 381.963 429.279 383.062 429.629 384.499C429.973 385.92 429.357 387.035 428.033 387.038C426.709 387.038 425.572 385.938 425.223 384.505ZM428.511 384.499C428.296 383.609 427.693 382.937 427.043 382.937C426.391 382.937 426.125 383.59 426.344 384.502C426.562 385.398 427.153 386.063 427.812 386.063C428.47 386.06 428.73 385.401 428.511 384.499Z" fill="#F99746"/>
<path d="M432.315 383.097L431.503 383.309L431.063 382.425L432.384 382.004H433.127L434.323 386.944L433.246 386.947L432.315 383.097Z" fill="#F99746"/>
<path d="M418.637 384.515C418.293 383.094 418.915 381.976 420.233 381.976C421.544 381.973 422.694 383.072 423.043 384.508C423.387 385.929 422.772 387.047 421.448 387.047C420.123 387.047 418.984 385.951 418.637 384.515ZM421.922 384.508C421.707 383.618 421.104 382.947 420.455 382.947C419.802 382.947 419.536 383.6 419.755 384.511C419.974 385.408 420.564 386.073 421.223 386.073C421.882 386.073 422.144 385.414 421.922 384.508Z" fill="#2F539B"/>
<path d="M436.181 384.487C435.838 383.066 436.459 381.948 437.777 381.948C439.089 381.945 440.238 383.044 440.588 384.48C440.931 385.901 440.316 387.019 438.992 387.019C437.668 387.019 436.528 385.923 436.181 384.487ZM439.467 384.48C439.251 383.59 438.648 382.919 437.999 382.919C437.346 382.919 437.081 383.572 437.299 384.483C437.515 385.38 438.108 386.045 438.767 386.045C439.429 386.042 439.688 385.383 439.467 384.48Z" fill="#2F539B"/>
<path d="M442.767 384.474C442.424 383.053 443.045 381.938 444.363 381.935C445.674 381.932 446.824 383.031 447.173 384.468C447.517 385.889 446.902 387.004 445.578 387.007C444.254 387.01 443.117 385.911 442.767 384.474ZM446.055 384.468C445.84 383.578 445.237 382.906 444.588 382.906C443.935 382.906 443.67 383.559 443.888 384.471C444.107 385.367 444.697 386.032 445.356 386.032C446.015 386.032 446.274 385.373 446.055 384.468Z" fill="#2F539B"/>
<path d="M465.433 384.505C465.089 383.084 465.711 381.966 467.028 381.966C468.34 381.963 469.489 383.062 469.839 384.499C470.182 385.92 469.567 387.035 468.243 387.038C466.916 387.038 465.779 385.938 465.433 384.505ZM468.718 384.499C468.502 383.609 467.9 382.937 467.25 382.937C466.597 382.937 466.332 383.59 466.551 384.502C466.766 385.398 467.359 386.063 468.018 386.063C468.68 386.06 468.936 385.401 468.718 384.499Z" fill="#F99746"/>
<path d="M472.525 383.097L471.713 383.309L471.272 382.425L472.593 382.004H473.337L474.533 386.944L473.455 386.947L472.525 383.097Z" fill="#F99746"/>
<path d="M458.846 384.515C458.503 383.094 459.124 381.976 460.442 381.976C461.754 381.973 462.903 383.072 463.253 384.508C463.596 385.929 462.981 387.047 461.657 387.047C460.333 387.047 459.193 385.951 458.846 384.515ZM462.132 384.508C461.916 383.618 461.314 382.947 460.664 382.947C460.011 382.947 459.746 383.6 459.964 384.511C460.183 385.408 460.776 386.073 461.435 386.073C462.094 386.073 462.35 385.414 462.132 384.508Z" fill="#2F539B"/>
<path d="M476.391 384.487C476.048 383.066 476.669 381.948 477.987 381.948C479.299 381.945 480.448 383.044 480.797 384.48C481.141 385.901 480.526 387.019 479.202 387.019C477.874 387.019 476.738 385.923 476.391 384.487ZM479.676 384.48C479.461 383.59 478.858 382.919 478.205 382.919C477.553 382.919 477.287 383.572 477.506 384.483C477.725 385.38 478.315 386.045 478.974 386.045C479.636 386.042 479.895 385.383 479.676 384.48Z" fill="#2F539B"/>
<path d="M482.977 384.474C482.634 383.053 483.255 381.938 484.573 381.935C485.884 381.932 487.034 383.031 487.383 384.468C487.727 385.889 487.112 387.004 485.788 387.007C484.46 387.01 483.324 385.911 482.977 384.474ZM486.262 384.468C486.047 383.578 485.444 382.906 484.795 382.906C484.142 382.906 483.876 383.559 484.095 384.471C484.314 385.367 484.904 386.032 485.563 386.032C486.225 386.032 486.481 385.373 486.262 384.468Z" fill="#2F539B"/>
<path d="M315.065 375.708C314.721 374.287 315.343 373.169 316.661 373.169C317.972 373.166 319.122 374.265 319.471 375.702C319.815 377.123 319.2 378.238 317.876 378.241C316.551 378.244 315.415 377.145 315.065 375.708ZM318.353 375.702C318.138 374.812 317.535 374.14 316.886 374.14C316.233 374.14 315.967 374.793 316.186 375.705C316.405 376.601 316.998 377.266 317.654 377.266C318.313 377.266 318.572 376.607 318.353 375.702Z" fill="#2F539B"/>
<path d="M321.654 375.696C321.31 374.275 321.932 373.157 323.249 373.157C324.561 373.154 325.71 374.253 326.06 375.69C326.403 377.111 325.788 378.229 324.464 378.229C323.137 378.232 322 377.132 321.654 375.696ZM324.939 375.693C324.723 374.803 324.121 374.131 323.471 374.131C322.818 374.131 322.553 374.784 322.772 375.696C322.99 376.592 323.584 377.257 324.239 377.257C324.898 377.254 325.157 376.595 324.939 375.693Z" fill="#2F539B"/>
<path d="M442.064 375.708C441.721 374.287 442.342 373.169 443.66 373.169C444.972 373.166 446.121 374.265 446.471 375.702C446.814 377.123 446.199 378.238 444.875 378.241C443.551 378.244 442.411 377.145 442.064 375.708ZM445.35 375.702C445.134 374.812 444.532 374.14 443.882 374.14C443.229 374.14 442.964 374.793 443.182 375.705C443.401 376.601 443.991 377.266 444.65 377.266C445.312 377.266 445.568 376.607 445.35 375.702Z" fill="#2F539B"/>
<path d="M448.651 375.696C448.308 374.275 448.929 373.157 450.247 373.157C451.559 373.154 452.708 374.253 453.057 375.69C453.401 377.11 452.786 378.228 451.462 378.228C450.138 378.228 449.001 377.132 448.651 375.696ZM451.939 375.693C451.724 374.803 451.121 374.131 450.472 374.131C449.819 374.131 449.554 374.784 449.772 375.696C449.991 376.592 450.581 377.257 451.24 377.257C451.899 377.254 452.158 376.595 451.939 375.693Z" fill="#2F539B"/>
</svg>
