<svg width="35" height="20" viewBox="0 0 35 20" fill="none" xmlns="http://www.w3.org/2000/svg">
<path d="M29.0447 11.4686C28.4788 10.7686 28.6407 10.4571 29.0447 9.83143C29.052 9.82429 33.7232 3.50143 34.2044 1.35714L34.2074 1.35571C34.4465 0.574286 34.2074 0 33.0509 0H29.2241C28.2499 0 27.8007 0.492857 27.5601 1.04429C27.5601 1.04429 25.6117 5.61286 22.8553 8.57429C21.9657 9.43 21.5544 9.70429 21.0688 9.70429C20.8296 9.70429 20.4577 9.43 20.4577 8.64857V1.35571C20.4577 0.418571 20.185 0 19.3785 0H13.3612C12.7502 0 12.387 0.437143 12.387 0.844286C12.387 1.73286 13.7652 1.93714 13.9081 4.43714V9.86143C13.9081 11.05 13.6879 11.2686 13.1994 11.2686C11.8985 11.2686 8.74107 6.68143 6.86996 1.43143C6.49224 0.412857 6.12327 0.00142847 5.14178 0.00142847H1.31352C0.221193 0.00142847 0.000976562 0.494286 0.000976562 1.04571C0.000976562 2.02 1.30185 6.86429 6.05035 13.2643C9.21505 17.6329 13.6719 20 17.7262 20C20.1631 20 20.4606 19.4743 20.4606 18.57C20.4606 14.3957 20.2404 14.0014 21.4611 14.0014C22.0269 14.0014 23.0011 14.2757 25.2762 16.3829C27.8765 18.8814 28.3038 20 29.7593 20H33.5861C34.677 20 35.2297 19.4743 34.9118 18.4371C34.184 16.2557 29.2664 11.7686 29.0447 11.4686Z" fill="white"/>
</svg>
